<?xml version="1.0" standalone="no"?>
<!DOCTYPE svg PUBLIC "-//W3C//DTD SVG 20010904//EN"
 "http://www.w3.org/TR/2001/REC-SVG-20010904/DTD/svg10.dtd">
<svg version="1.0" xmlns="http://www.w3.org/2000/svg"
 width="152.000000pt" height="152.000000pt" viewBox="0 0 152.000000 152.000000"
 preserveAspectRatio="xMidYMid meet">
<metadata>
Created by potrace 1.11, written by Peter Selinger 2001-2013
</metadata>
<g transform="translate(0.000000,152.000000) scale(0.100000,-0.100000)"
fill="#000000" stroke="none">
<path d="M427 1502 c-15 -16 -17 -46 -17 -205 l0 -187 -188 0 c-170 0 -191 -2
-205 -18 -21 -23 -22 -52 -3 -78 13 -17 29 -19 158 -21 79 -1 146 -2 150 -2 4
-1 5 -7 2 -15 -14 -36 43 -83 78 -64 10 5 61 52 113 105 75 76 95 102 95 124
0 31 -36 62 -66 57 -16 -3 -17 10 -18 145 -1 135 -3 150 -20 163 -27 19 -60
18 -79 -4z"/>
<path d="M1008 1498 c-9 -16 -14 -76 -15 -193 -1 -93 -2 -176 -2 -182 -1 -10
-37 -13 -145 -13 l-144 0 -44 -43 c-80 -79 -87 -74 90 -73 150 0 157 -1 158
-20 2 -40 23 -64 56 -64 27 0 48 16 135 103 85 85 103 108 99 128 -3 13 -5 27
-5 30 -2 11 -59 31 -70 24 -8 -4 -11 40 -11 143 0 132 -2 151 -18 165 -27 25
-69 22 -84 -5z"/>
<path d="M1232 1057 c-29 -29 -52 -55 -52 -59 0 -3 66 -5 148 -4 165 2 192 10
192 55 0 50 -25 61 -136 61 l-100 0 -52 -53z"/>
<path d="M463 874 l-53 -54 0 -145 c0 -109 -3 -145 -12 -146 -7 0 -93 -1 -191
-2 -164 -2 -180 -4 -193 -21 -19 -27 -18 -60 4 -79 16 -14 43 -17 165 -17
l147 0 -5 -22 c-7 -29 12 -55 48 -64 25 -6 37 3 132 97 89 87 105 108 105 134
0 39 -16 55 -54 55 l-31 0 1 160 c1 88 -2 160 -5 159 -3 -1 -30 -25 -58 -55z"/>
<path d="M1048 873 l-56 -58 1 -138 c1 -81 -2 -141 -8 -145 -5 -3 -71 -6 -147
-6 l-138 -1 -57 -57 -58 -58 163 0 162 0 0 -28 c0 -37 31 -66 62 -59 30 8 217
193 224 222 7 30 -26 68 -59 68 l-27 0 -2 159 -3 159 -57 -58z"/>
<path d="M1227 469 l-58 -59 159 0 c141 0 161 2 175 18 21 23 22 52 3 77 -12
17 -28 20 -117 21 l-104 1 -58 -58z"/>
<path d="M467 292 l-57 -58 0 -100 c0 -85 3 -104 18 -117 23 -21 52 -22 78 -3
17 13 19 28 20 175 0 89 0 161 0 161 -1 0 -27 -26 -59 -58z"/>
<path d="M1049 289 l-56 -58 1 -101 c1 -88 4 -103 20 -116 27 -19 60 -18 80 5
14 16 16 39 14 173 l-3 155 -56 -58z"/>
</g>
</svg>
