<?xml version="1.0" standalone="no"?>
<!DOCTYPE svg PUBLIC "-//W3C//DTD SVG 1.1//EN" "http://www.w3.org/Graphics/SVG/1.1/DTD/svg11.dtd" >
<svg xmlns="http://www.w3.org/2000/svg" xmlns:xlink="http://www.w3.org/1999/xlink" version="1.1">
<metadata>
Created by FontForge 20170731 at Tue Aug 27 17:04:58 2013
 By Aleksey,,,
Copyright (c) 2013 by Michael Chereda. All rights reserved.
</metadata>
<defs>
<font id="BravoSCT" horiz-adv-x="335" >
  <font-face 
    font-family="BravoSCT"
    font-weight="400"
    font-stretch="normal"
    units-per-em="1000"
    panose-1="2 0 5 6 0 0 0 2 0 4"
    ascent="800"
    descent="-200"
    x-height="540"
    cap-height="700"
    bbox="-116 -200 879 877"
    underline-thickness="50"
    underline-position="-200"
    unicode-range="U+0020-F6C3"
  />
<missing-glyph horiz-adv-x="200" 
 />
    <glyph glyph-name=".notdef" horiz-adv-x="200" 
 />
    <glyph glyph-name=".null" horiz-adv-x="0" 
 />
    <glyph glyph-name="nonmarkingreturn" horiz-adv-x="333" 
 />
    <glyph glyph-name="space" unicode=" " horiz-adv-x="180" 
 />
    <glyph glyph-name="exclam" unicode="!" horiz-adv-x="121" 
d="M30 71h61v-71h-61v71zM30 700h61v-566h-61v566z" />
    <glyph glyph-name="quotedbl" unicode="&#x22;" horiz-adv-x="210" 
d="M30 710h50v-161h-50v161zM130 710h50v-161h-50v161z" />
    <glyph glyph-name="numbersign" unicode="#" horiz-adv-x="399" 
d="M335 234h-196l-48 -234h-52l48 234h-57v51h68l23 111h51l-23 -111h79l34 162h-187v50h66l42 203h52l-42 -203h79l42 203h52l-42 -203h45v-50h-56l-33 -162h55v-51zM170 0l38 183h51l-37 -183h-52z" />
    <glyph glyph-name="dollar" unicode="$" horiz-adv-x="262" 
d="M156 231v144l52 -113q24 -50 24 -82v-76q0 -31 -22 -55t-54 -29v-80h-51v80q-32 5 -53.5 28.5t-21.5 55.5v118h61v-118q0 -11 9 -17.5t21 -6.5h20q12 0 21 6.5t9 17.5v68q0 23 -15 59zM105 486v-144l-51 110q-24 50 -24 83v51q0 31 21.5 55t53.5 29v80h51v-80
q32 -5 54 -28.5t22 -55.5v-87h-61v87q0 11 -9.5 18t-20.5 7h-20q-11 0 -20.5 -7t-9.5 -18v-55q0 -15 14 -45z" />
    <glyph glyph-name="uni0025" unicode="%" horiz-adv-x="432" 
d="M374 491l28 -38l-349 -247l-28 39zM194 524h48v-43q0 -38 -26 -62.5t-65 -24.5h-4q-38 0 -64.5 24.5t-26.5 62.5v43h48v-41q0 -42 45 -42t45 42v41zM242 613v-38h-48v34q0 45 -45 45t-45 -45v-34h-48v38q0 37 26 62t65 25h4q40 0 65.5 -24.5t25.5 -62.5zM328 130h48v-43
q0 -38 -26 -62.5t-65 -24.5h-4q-38 0 -64.5 24.5t-26.5 62.5v43h48v-41q0 -42 45 -42t45 42v41zM376 219v-38h-48v34q0 45 -45 45t-45 -45v-34h-48v38q0 37 26 62t65 25h4q40 0 65.5 -24.5t25.5 -62.5z" />
    <glyph glyph-name="ampersand" unicode="&#x26;" horiz-adv-x="340" 
d="M92 608v-80h-61v81q0 38 27 64.5t64 26.5h111v-61h-111q-12 0 -21 -10t-9 -21zM91 289v-37h-61v48q0 26 14 48t36 33q-49 28 -49 91v5h61v-6q0 -28 13.5 -45.5t39.5 -17.5h165v-61h-171q-48 0 -48 -58zM30 201h61v-108q0 -13 9.5 -22t20.5 -9h76v234h61v-296h-137
q-38 0 -64.5 27.5t-26.5 64.5v109z" />
    <glyph glyph-name="quotesingle" unicode="'" horiz-adv-x="110" 
d="M30 710h50v-161h-50v161z" />
    <glyph glyph-name="parenleft" unicode="(" horiz-adv-x="203" 
d="M117 750h56q-79 -254 -79 -447q0 -213 79 -457h-57q-86 231 -86 457q0 213 87 447z" />
    <glyph glyph-name="parenright" unicode=")" horiz-adv-x="203" 
d="M30 750h56q87 -234 87 -447q0 -226 -86 -457h-57q79 244 79 457q0 193 -79 447z" />
    <glyph glyph-name="asterisk" unicode="*" horiz-adv-x="266" 
d="M209 671l27 -45l-73 -30l73 -29l-27 -45l-61 48l11 -77h-53l11 77l-61 -48l-26 45l72 29l-72 30l26 45l61 -48l-11 77h53l-11 -77z" />
    <glyph glyph-name="plus" unicode="+" horiz-adv-x="389" 
d="M169 540h51v-139h139v-51h-139v-139h-51v139h-139v51h139v139z" />
    <glyph glyph-name="comma" unicode="," horiz-adv-x="131" 
d="M30 71h71v-71l-48 -108h-23l26 108h-26v71z" />
    <glyph glyph-name="hyphen" unicode="-" horiz-adv-x="257" 
d="M30 268v54h197v-54h-197z" />
    <glyph glyph-name="period" unicode="." horiz-adv-x="131" 
d="M30 0v71h71v-71h-71z" />
    <glyph glyph-name="slash" unicode="/" horiz-adv-x="350" 
d="M282 750h58l-272 -904h-58z" />
    <glyph glyph-name="zero" unicode="0" horiz-adv-x="297" 
d="M191 292l66 116v-317q0 -39 -27 -65t-64 -26h-35q-38 0 -64.5 26.5t-26.5 64.5v139l151 277v97q0 12 -9 21t-21 9h-25q-12 0 -21 -9t-9 -21v-146l-66 -116v267q0 37 27.5 64t63.5 27h35q37 0 64 -27.5t27 -63.5v-89l-151 -279v-145q0 -12 9 -21t21 -9h25q12 0 21 9t9 21
v196z" />
    <glyph glyph-name="one" unicode="1" horiz-adv-x="285" 
d="M177 700v-302h-65v236h-72v66h137zM112 347h65v-281h68v-66h-201v66h68v281z" />
    <glyph glyph-name="two" unicode="2" horiz-adv-x="302" 
d="M228 398h-71l29 61q11 24 11 69v76q0 12 -9.5 21t-21.5 9h-30q-12 0 -21 -9t-9 -21v-76h-66v81q0 37 27.5 64t63.5 27h40q38 0 64.5 -27t26.5 -64v-81q0 -61 -16 -94zM76 229l57 118h72l-69 -145q-25 -53 -25 -105v-31h146v-66h-212v97q0 65 31 132z" />
    <glyph glyph-name="three" unicode="3" horiz-adv-x="305" 
d="M265 361v-109h-66v101q0 13 -9.5 22.5t-22.5 9.5q-36 0 -55 -36l-56 24l109 210h73l-79 -146q11 9 27 9q37 0 58 -23.5t21 -61.5zM199 201h66v-110q0 -37 -26.5 -64t-64.5 -27h-43q-37 0 -64 27t-27 64v110h66v-105q0 -13 9 -21.5t21 -8.5h33q13 0 21.5 8.5t8.5 21.5v105
zM255 700v-66h-215v66h215z" />
    <glyph glyph-name="four" unicode="4" horiz-adv-x="338" 
d="M102 201h206v-61h-58v-140h-66v140h-149v61l121 499h94v-448h-66v134l13 231z" />
    <glyph glyph-name="five" unicode="5" horiz-adv-x="307" 
d="M267 360v-108h-65v98q0 15 -11.5 25t-26.5 10q-57 0 -57 -86h-67v284h66v-154q25 22 66 22q37 0 66 -27t29 -64zM202 201h65v-110q0 -38 -26.5 -64.5t-63.5 -26.5h-45q-38 0 -65 26.5t-27 64.5v110h66v-105q0 -12 9 -21t22 -9h35q12 0 21 8.5t9 21.5v105zM253 634h-213
v66h213v-66z" />
    <glyph glyph-name="six" unicode="6" horiz-adv-x="307" 
d="M267 355v-103h-65v98q0 12 -9.5 21t-21.5 9q-65 0 -65 -86v-42h-66v357q0 37 27 64t64 27h45q38 0 64.5 -27t26.5 -64v-81h-65v76q0 12 -9 21t-22 9h-35q-12 0 -21 -9t-9 -21v-183q28 25 65 25q41 0 68.5 -26.5t27.5 -64.5zM202 201h65v-110q0 -37 -26.5 -64t-64.5 -27
h-45q-37 0 -64 27t-27 64v110h66v-105q0 -12 9 -21t21 -9h35q13 0 22 8.5t9 21.5v105z" />
    <glyph glyph-name="seven" unicode="7" horiz-adv-x="300" 
d="M183 583h69q-30 -69 -47.5 -132t-25.5 -145t-10 -134t-4 -172h-66q3 212 17.5 334t66.5 249zM270 634h-240v66h240v-66z" />
    <glyph glyph-name="eight" unicode="8" horiz-adv-x="300" 
d="M40 201h66v-105q0 -13 9 -21.5t22 -8.5h27q13 0 21.5 9t8.5 21v105h66v-110q0 -37 -27 -64t-64 -27h-37q-38 0 -65 26.5t-27 64.5v110zM111 604v-13h-66v18q0 38 27 64.5t65 26.5h27q38 0 64.5 -27t26.5 -64v-18h-66v13q0 12 -8.5 21t-21.5 9h-17q-13 0 -22 -9t-9 -21z
M45 540h66v-65q0 -13 9 -21.5t21 -8.5h18q13 0 21.5 8.5t8.5 21.5v65h66v-62q0 -24 -14.5 -41t-31.5 -22q51 -23 51 -74v-89h-66v97q0 13 -8.5 22t-21.5 9h-27q-13 0 -22 -9t-9 -22v-97h-66v89q0 54 52 74q-19 7 -33 24t-14 39v62z" />
    <glyph glyph-name="nine" unicode="9" horiz-adv-x="307" 
d="M267 609v-69h-66v64q0 12 -9 21t-22 9h-34q-13 0 -22 -9t-9 -21v-64h-65v69q0 37 27 64t64 27h44q38 0 65 -27t27 -64zM201 489h66v-398q0 -37 -27 -64t-65 -27h-44q-38 0 -64.5 26.5t-26.5 64.5v110h65v-105q0 -12 9 -21t22 -9h34q13 0 22 9t9 21v220q-29 -27 -65 -27
q-38 0 -67 27.5t-29 63.5v109h65v-104q0 -12 9 -21t22 -9q65 0 65 86v48z" />
    <glyph glyph-name="colon" unicode=":" horiz-adv-x="131" 
d="M30 449v71h71v-71h-71zM30 0v71h71v-71h-71z" />
    <glyph glyph-name="semicolon" unicode=";" horiz-adv-x="131" 
d="M30 520h71v-71h-71v71zM30 71h71v-71l-48 -108h-23l26 108h-26v71z" />
    <glyph glyph-name="less" unicode="&#x3c;" horiz-adv-x="517" 
d="M487 540v-66l-365 -178l365 -179v-65l-457 224v39z" />
    <glyph glyph-name="equal" unicode="=" horiz-adv-x="455" 
d="M30 236v60h395v-60h-395zM30 430v61h395v-61h-395z" />
    <glyph glyph-name="greater" unicode="&#x3e;" horiz-adv-x="517" 
d="M30 474v66l457 -225v-39l-457 -224v65l365 179z" />
    <glyph glyph-name="question" unicode="?" horiz-adv-x="262" 
d="M101 71h61v-71h-61v71zM91 529h-61v80q0 37 27 64t64 27h20q38 0 64.5 -26.5t26.5 -64.5v-80q0 -51 -35 -157t-35 -158v-80h-61v80q0 56 35 162.5t35 152.5v80q0 13 -8.5 21.5t-21.5 8.5h-20q-13 0 -21.5 -8.5t-8.5 -21.5v-80z" />
    <glyph glyph-name="at" unicode="@" horiz-adv-x="523" 
d="M234 627v-59h-7q-55 0 -94.5 -39t-39.5 -95v-313q0 -55 39.5 -94.5t95.5 -39.5h90v-60h-98q-76 0 -130.5 54.5t-54.5 130.5v331q0 76 54.5 130t130.5 54h14zM285 627h17q77 0 131.5 -54t54.5 -130v-291q0 -42 -25 -67.5t-61 -25.5t-61 22t-31 58l-10 58h-82l-18 -105h-51
l26 149h117l-30 176h-7l-21 -125h-50l31 175h89l55 -319q6 -35 41 -35q30 0 30 37v283q0 55 -40 95t-95 40h-10v59z" />
    <glyph glyph-name="A" unicode="A" horiz-adv-x="349" 
d="M240 155h67l22 -155h-66zM301 206h-185l-29 -206h-67l37 267h169l-49 368h-5l-42 -317h-66l51 382h119z" />
    <glyph glyph-name="B" unicode="B" horiz-adv-x="332" 
d="M226 94v203q0 31 -14.5 40.5t-41.5 9.5h-64v-230h-66v583h66v-292h69q51 0 51 68v130q0 11 -8 19.5t-20 8.5h-41v66h41q39 0 66.5 -27.5t27.5 -66.5v-133q0 -28 -15 -56.5t-42 -39.5q28 -10 42.5 -34.5t14.5 -52.5v-196q0 -39 -27.5 -66.5t-66.5 -27.5h-158v66h158
q12 0 20 8t8 20z" />
    <glyph glyph-name="C" unicode="C" horiz-adv-x="311" 
d="M134 66h43q11 0 19.5 8t8.5 20v107h66v-107q0 -39 -27.5 -66.5t-66.5 -27.5h-43q-38 0 -66 27.5t-28 66.5v253h66v-253q0 -12 8.5 -20t19.5 -8zM205 528v78q0 11 -8 19.5t-20 8.5h-43q-11 0 -19.5 -8.5t-8.5 -19.5v-208h-66v208q0 39 28 66.5t66 27.5h43q39 0 66.5 -27.5
t27.5 -66.5v-78h-66z" />
    <glyph glyph-name="D" unicode="D" horiz-adv-x="329" 
d="M157 0v66h39q11 0 19 8.5t8 19.5v512q0 12 -8 20t-19 8h-156v66h156q38 0 65.5 -27.5t27.5 -66.5v-512q0 -39 -27.5 -66.5t-65.5 -27.5h-39zM106 0v583h-66v-583h66z" />
    <glyph glyph-name="E" unicode="E" horiz-adv-x="261" 
d="M40 66h190v-66h-190v66zM106 117h-66v466h66v-175h109v-61h-109v-230zM40 634v66h191v-66h-191z" />
    <glyph glyph-name="F" unicode="F" horiz-adv-x="241" 
d="M106 296h-66v-296h66v296zM106 583v-175h110v-61h-176v236h66zM231 634h-191v66h191v-66z" />
    <glyph glyph-name="G" unicode="G" horiz-adv-x="311" 
d="M271 286v61h-109v-61h109zM271 235h-66v-141q0 -12 -8.5 -20t-19.5 -8h-43q-11 0 -19.5 8t-8.5 20v253h-66v-253q0 -39 27.5 -66.5t66.5 -27.5h43q39 0 66.5 27.5t27.5 66.5v141zM106 398h-66v208q0 38 28 66t66 28h43q39 0 66.5 -27.5t27.5 -66.5v-78h-66v78
q0 11 -8 19.5t-20 8.5h-43q-11 0 -19.5 -8.5t-8.5 -19.5v-208z" />
    <glyph glyph-name="H" unicode="H" 
d="M229 296h66v-296h-66v296zM295 347h-189v-347h-66v408h189v292h66v-353zM106 459h-66v241h66v-241z" />
    <glyph glyph-name="I" unicode="I" horiz-adv-x="260" 
d="M97 347h66v-281h57v-66h-180v66h57v281zM163 398h-66v236h-57v66h180v-66h-57v-236z" />
    <glyph glyph-name="J" unicode="J" horiz-adv-x="296" 
d="M190 347h66v-253q0 -39 -27.5 -66.5t-66.5 -27.5h-43q-38 0 -66 27.5t-28 66.5v107h66v-107q0 -12 8.5 -20t19.5 -8h43q12 0 20 8t8 20v253zM190 398v236h-94v66h160v-302h-66z" />
    <glyph glyph-name="K" unicode="K" horiz-adv-x="304" 
d="M142 296h68l78 -296h-68zM197 347h-91v-347h-66v408h91l90 292h68l-103 -312zM40 459v241h66v-241h-66z" />
    <glyph glyph-name="L" unicode="L" horiz-adv-x="260" 
d="M40 66h190v-66h-190v66zM40 117v583h66v-583h-66z" />
    <glyph glyph-name="M" unicode="M" horiz-adv-x="476" 
d="M201 0l-124 634h-37v66h92l105 -553l107 553h92v-66h-37l-125 -634h-73zM370 240l57 333h9v-573h-66v240zM106 236l-57 337h-9v-573h66v236z" />
    <glyph glyph-name="N" unicode="N" horiz-adv-x="362" 
d="M106 360v-360h-66v573h15zM283 66h39v-66h-85l-158 634h-39v66h85zM256 340v360h66v-573h-15z" />
    <glyph glyph-name="O" unicode="O" horiz-adv-x="334" 
d="M142 634h-8q-11 0 -19.5 -8.5t-8.5 -19.5v-512q0 -12 8.5 -20t19.5 -8h8v-66h-8q-38 0 -66 27.5t-28 66.5v512q0 39 28 66.5t66 27.5h8v-66zM193 634v66h7q39 0 66.5 -27.5t27.5 -66.5v-512q0 -39 -27.5 -66.5t-66.5 -27.5h-7v66h7q11 0 19.5 8t8.5 20v512
q0 11 -8.5 19.5t-19.5 8.5h-7z" />
    <glyph glyph-name="P" unicode="P" horiz-adv-x="315" 
d="M106 583v-583h-66v583h66zM157 285v62h25q14 0 23 11t9 25v223q0 11 -8.5 19.5t-19.5 8.5h-146v66h146q38 0 66 -27.5t28 -66.5v-228q0 -39 -24.5 -66t-63.5 -27h-35z" />
    <glyph glyph-name="Q" unicode="Q" horiz-adv-x="333" 
d="M78 -27q38 0 64.5 -9.5t60.5 -32.5q47 -30 88 -30v-56q-38 0 -64.5 9.5t-60.5 32.5q-45 30 -88 30v56zM78 -27q38 0 64.5 -9.5t60.5 -32.5q47 -30 88 -30v-56q-38 0 -64.5 9.5t-60.5 32.5q-45 30 -88 30v56zM142 634h-8q-11 0 -19.5 -8.5t-8.5 -19.5v-512q0 -12 8.5 -20
t19.5 -8h8v-66h-8q-38 0 -66 27.5t-28 66.5v512q0 39 28 66.5t66 27.5h8v-66zM192 634v66h7q39 0 66.5 -27.5t27.5 -66.5v-512q0 -39 -27.5 -66.5t-66.5 -27.5h-7v66h7q11 0 19.5 8t8.5 20v512q0 11 -8.5 19.5t-19.5 8.5h-7z" />
    <glyph glyph-name="R" unicode="R" horiz-adv-x="323" 
d="M157 408h4q56 0 56 59v139q0 11 -8.5 19.5t-19.5 8.5h-149v66h149q38 0 66 -28t28 -66v-138q0 -62 -59 -90q29 -7 44 -27.5t15 -48.5v-302h-66v297q0 50 -50 50h-10v61zM106 583v-583h-66v583h66z" />
    <glyph glyph-name="S" unicode="S" horiz-adv-x="314" 
d="M132 452v-105l-59 72q-33 41 -33 106v81q0 38 28 66t66 28h46q38 0 66 -27.5t28 -66.5v-78h-66v78q0 11 -8.5 19.5t-19.5 8.5h-46q-11 0 -19.5 -8.5t-8.5 -19.5v-81q0 -41 21 -67zM183 388l57 -69q34 -41 34 -106v-119q0 -39 -28 -66.5t-66 -27.5h-46q-39 0 -66.5 27.5
t-27.5 66.5v107h66v-107q0 -12 8.5 -20t19.5 -8h46q11 0 19.5 8t8.5 20v119q0 42 -21 67l-4 5v103z" />
    <glyph glyph-name="T" unicode="T" horiz-adv-x="278" 
d="M106 583h66v-583h-66v583zM253 634h-228v66h228v-66z" />
    <glyph glyph-name="U" unicode="U" 
d="M193 66h8q11 0 19.5 8t8.5 20v606h66v-606q0 -39 -28 -66.5t-66 -27.5h-8v66zM142 66v-66h-8q-39 0 -66.5 27.5t-27.5 66.5v606h66v-606q0 -12 8 -20t20 -8h8z" />
    <glyph glyph-name="V" unicode="V" 
d="M107 66h57l93 634h68l-109 -700h-99zM142 258l-21 -141h-22l-89 583h68z" />
    <glyph glyph-name="W" unicode="W" horiz-adv-x="536" 
d="M366 66h58l-10 -66h-96l-48 411h-4l-49 -411h-96l-10 66h58l38 331l28 165l-19 138h105l-20 -138l28 -165zM412 117l-18 167l55 416h67l-85 -583h-19zM142 282l-19 -165h-19l-84 583h66z" />
    <glyph glyph-name="X" unicode="X" horiz-adv-x="358" 
d="M179 416l85 284h69l-98 -325l12 -41h-68l-95 -334h-69l107 375l-12 41h69zM164 467h-69l-69 233h68zM261 283l82 -283h-68l-81 283h67z" />
    <glyph glyph-name="Y" unicode="Y" horiz-adv-x="313" 
d="M122 306l113 394h68l-115 -380v-254h57v-66h-180v66h57v240zM130 513l-32 -111l-88 298h68z" />
    <glyph glyph-name="Z" unicode="Z" horiz-adv-x="288" 
d="M37 66h210v-66h-227zM50 117l117 466h71l-117 -466h-71zM251 634h-209v66h226z" />
    <glyph glyph-name="bracketleft" unicode="[" horiz-adv-x="185" 
d="M155 700v-61h-63v-731h63v-62h-125v854h125z" />
    <glyph glyph-name="backslash" unicode="\" horiz-adv-x="355" 
d="M10 750h63l272 -904h-63z" />
    <glyph glyph-name="bracketright" unicode="]" horiz-adv-x="185" 
d="M30 639v61h125v-854h-125v62h63v731h-63z" />
    <glyph glyph-name="underscore" unicode="_" horiz-adv-x="610" 
d="M580 -152v-48h-550v48h550z" />
    <glyph glyph-name="grave" unicode="`" horiz-adv-x="209" 
d="M45 662l30 38l89 -66l-30 -38z" />
    <glyph glyph-name="a" unicode="a" horiz-adv-x="348" 
d="M241 128h63l24 -128h-64zM294 179h-177l-34 -179h-63l45 241h155l-44 237h-4l-34 -186h-63l46 248h106z" />
    <glyph glyph-name="b" unicode="b" horiz-adv-x="337" 
d="M204 477h-164v63h164q38 0 65.5 -27.5t27.5 -66.5v-84q0 -25 -15 -45t-38 -28q24 -7 38.5 -28t14.5 -45v-123q0 -38 -27 -65.5t-66 -27.5h-51v62h51q13 0 22 9t9 22v118q0 19 -13.5 33t-33.5 14h-86v-258h-62v426h62v-106h86q20 0 33.5 14t13.5 33v79q0 13 -9 22t-22 9z
" />
    <glyph glyph-name="c" unicode="c" horiz-adv-x="316" 
d="M40 263h62v-170q0 -13 9 -22t22 -9h49q13 0 22 9t9 22v85h63v-85q0 -38 -27.5 -65.5t-66.5 -27.5h-49q-38 0 -65.5 27.5t-27.5 65.5v170zM40 314v132q0 39 27.5 66.5t65.5 27.5h49q39 0 66.5 -27.5t27.5 -66.5v-52h-63v52q0 13 -9 22t-22 9h-49q-13 0 -22 -9t-9 -22v-132
h-62z" />
    <glyph glyph-name="d" unicode="d" 
d="M102 426v-426h-62v426h62zM201 0h-48v62h48q13 0 22.5 9t9.5 22v353q0 13 -9.5 22t-22.5 9h-161v63h161q39 0 66.5 -27.5t27.5 -66.5v-353q0 -38 -27.5 -65.5t-66.5 -27.5z" />
    <glyph glyph-name="e" unicode="e" horiz-adv-x="264" 
d="M40 207h62v-145h132v-62h-194v207zM40 426h62v-106h117v-62h-179v168zM40 477v63h194v-63h-194z" />
    <glyph glyph-name="f" unicode="f" horiz-adv-x="245" 
d="M235 477h-195v63h195v-63zM219 258h-179v168h63v-106h116v-62zM40 207h63v-207h-63v207z" />
    <glyph glyph-name="g" unicode="g" horiz-adv-x="316" 
d="M276 258v-62h-111v62h111zM103 446v-132h-63v132q0 39 27.5 66.5t66.5 27.5h49q38 0 65.5 -27.5t27.5 -66.5v-52h-62v52q0 13 -9 22t-22 9h-49q-13 0 -22 -9t-9 -22zM40 263h63v-170q0 -13 9 -22t22 -9h49q13 0 22 9t9 22v52h62v-52q0 -38 -27.5 -65.5t-65.5 -27.5h-49
q-39 0 -66.5 27.5t-27.5 65.5v170z" />
    <glyph glyph-name="h" unicode="h" horiz-adv-x="341" 
d="M102 540v-169h-62v169h62zM301 258h-199v-258h-62v320h199v220h62v-282zM239 0v207h62v-207h-62z" />
    <glyph glyph-name="i" unicode="i" horiz-adv-x="264" 
d="M163 263v-201h61v-62h-184v62h61v201h62zM163 314h-62v163h-61v63h184v-63h-61v-163z" />
    <glyph glyph-name="j" unicode="j" horiz-adv-x="301" 
d="M261 540v-226h-62v163h-96v63h158zM199 263h62v-170q0 -38 -27.5 -65.5t-65.5 -27.5h-49q-39 0 -66.5 27.5t-27.5 65.5v85h63v-85q0 -13 9 -22t22 -9h49q13 0 22 9t9 22v170z" />
    <glyph glyph-name="k" unicode="k" horiz-adv-x="312" 
d="M102 371h-62v169h62v-169zM196 258h-94v-258h-62v320h90l100 220h67l-113 -252zM230 0l-82 207h67l81 -207h-66z" />
    <glyph glyph-name="l" unicode="l" horiz-adv-x="265" 
d="M103 540v-427h-63v427h63zM40 62h195v-62h-195v62z" />
    <glyph glyph-name="m" unicode="m" horiz-adv-x="465" 
d="M40 0v426h21l42 -192v-234h-63zM425 540v-63h-50l-104 -477h-77l-104 477h-50v63h94l98 -430l99 430h94zM403 426h22v-426h-63v238z" />
    <glyph glyph-name="n" unicode="n" horiz-adv-x="368" 
d="M283 63h45v-63h-88l-155 477h-45v63h87zM328 114h-18l-44 141v285h62v-426zM40 426h16l46 -143v-283h-62v426z" />
    <glyph glyph-name="o" unicode="o" horiz-adv-x="340" 
d="M206 477h-10v63h10q38 0 66 -27.5t28 -66.5v-353q0 -38 -27.5 -65.5t-66.5 -27.5h-10v62h10q13 0 22 9t9 22v353q0 13 -9 22t-22 9zM145 540v-63h-11q-13 0 -22 -9t-9 -22v-353q0 -13 9 -22t22 -9h11v-62h-11q-39 0 -66.5 27.5t-27.5 65.5v353q0 38 27.5 66t66.5 28h11z
" />
    <glyph glyph-name="p" unicode="p" horiz-adv-x="320" 
d="M191 196h-38v62h38q13 0 22 9t9 22v157q0 13 -9 22t-22 9h-151v63h151q39 0 66.5 -27.5t27.5 -66.5v-157q0 -38 -27.5 -65.5t-66.5 -27.5zM102 426v-426h-62v426h62z" />
    <glyph glyph-name="q" unicode="q" horiz-adv-x="344" 
d="M71 -84v62q67 0 133 -41q51 -30 100 -30v-62q-66 0 -132 39q-51 32 -101 32zM71 -84v62q67 0 133 -41q51 -30 100 -30v-62q-66 0 -132 39q-51 32 -101 32zM206 477h-10v63h10q38 0 66 -27.5t28 -66.5v-353q0 -38 -27.5 -65.5t-66.5 -27.5h-10v62h10q13 0 22 9t9 22v353
q0 13 -9 22t-22 9zM145 540v-63h-11q-13 0 -22 -9t-9 -22v-353q0 -13 9 -22t22 -9h11v-62h-11q-39 0 -66.5 27.5t-27.5 65.5v353q0 38 27.5 66t66.5 28h11z" />
    <glyph glyph-name="r" unicode="r" horiz-adv-x="328" 
d="M182 258h-35v62h32q19 0 33 14.5t14 32.5v79q0 13 -9.5 22t-21.5 9h-155v63h155q38 0 65.5 -27.5t27.5 -66.5v-81q0 -22 -13.5 -43t-35.5 -33q22 -8 35.5 -28t13.5 -43v-218h-62v212q0 20 -12.5 33t-31.5 13zM103 426v-426h-63v426h63z" />
    <glyph glyph-name="s" unicode="s" horiz-adv-x="319" 
d="M134 335v-92l-52 52q-42 41 -42 97v54q0 39 28 66.5t66 27.5h51q39 0 66.5 -27.5t27.5 -66.5v-52h-62v52q0 13 -9.5 22t-22.5 9h-51q-13 0 -22 -9t-9 -22v-49q0 -31 24 -55zM185 285l59 -58q35 -35 35 -87v-47q0 -38 -27.5 -65.5t-66.5 -27.5h-51q-38 0 -66 27.5
t-28 65.5v85h63v-85q0 -13 9 -22t22 -9h51q13 0 22.5 9t9.5 22v42q0 26 -21 47l-11 11v92z" />
    <glyph glyph-name="t" unicode="t" horiz-adv-x="283" 
d="M110 426h62v-426h-62v426zM258 477h-233v63h233v-63z" />
    <glyph glyph-name="u" unicode="u" horiz-adv-x="341" 
d="M146 0h-12q-39 0 -66.5 27.5t-27.5 65.5v447h62v-447q0 -13 9.5 -22t22.5 -9h12v-62zM197 0v62h10q13 0 22.5 9t9.5 22v447h62v-447q0 -38 -27.5 -65.5t-66.5 -27.5h-10z" />
    <glyph glyph-name="v" unicode="v" horiz-adv-x="353" 
d="M113 62h67l95 478h63l-110 -540h-103zM78 540l74 -369l-12 -58h-38l-87 427h63z" />
    <glyph glyph-name="w" unicode="w" horiz-adv-x="547" 
d="M139 113h-37l-82 427h63l68 -361zM527 540l-83 -427h-36l-13 66l68 361h64zM366 62h68l-12 -62h-105l-44 258l-44 -258h-105l-12 62h68l61 333l-28 145h119l-27 -145z" />
    <glyph glyph-name="x" unicode="x" horiz-adv-x="348" 
d="M230 289l11 -31h-75l-85 -258h-66l102 289l-11 31h74l74 220h67zM198 207h61l74 -207h-66zM93 540l57 -169h-63l-61 169h67z" />
    <glyph glyph-name="y" unicode="y" horiz-adv-x="321" 
d="M193 207v-145h61v-62h-184v62h60v145h63zM204 258h-85l-109 282h67l81 -220h7l79 220h67z" />
    <glyph glyph-name="z" unicode="z" horiz-adv-x="275" 
d="M236 477h-204v63h223zM55 113l97 313h68l-97 -313h-68zM39 62h204v-62h-223z" />
    <glyph glyph-name="braceleft" unicode="{" horiz-adv-x="213" 
d="M142 614v-248q0 -52 -38 -63q38 -9 38 -58v-313q0 -10 7.5 -17.5t17.5 -7.5h16v-61h-26q-31 0 -53.5 22.5t-22.5 53.5v326q0 10 -7.5 17.5t-17.5 7.5h-26v61h26q10 0 17.5 7t7.5 18v265q0 31 22.5 53.5t53.5 22.5h26v-61h-16q-10 0 -17.5 -7.5t-7.5 -17.5z" />
    <glyph glyph-name="bar" unicode="|" horiz-adv-x="116" 
d="M30 700h56v-854h-56v854z" />
    <glyph glyph-name="braceright" unicode="}" horiz-adv-x="213" 
d="M71 366v248q0 10 -7.5 17.5t-17.5 7.5h-16v61h26q31 0 53.5 -22.5t22.5 -53.5v-265q0 -11 7 -18t18 -7h26v-61h-26q-11 0 -18 -7.5t-7 -17.5v-326q0 -31 -22.5 -53.5t-53.5 -22.5h-26v61h16q10 0 17.5 7.5t7.5 17.5v313q0 49 38 58q-38 11 -38 63z" />
    <glyph glyph-name="asciitilde" unicode="~" horiz-adv-x="461" 
d="M70 249l-39 41q49 66 122 66q39 0 81.5 -25.5t66.5 -25.5q52 0 91 48l39 -42q-24 -30 -59.5 -48.5t-71.5 -18.5t-81 26t-67 26q-47 0 -82 -47z" />
    <glyph glyph-name="exclamdown" unicode="&#xa1;" horiz-adv-x="121" 
d="M91 469h-61v71h61v-71zM91 -160h-61v566h61v-566z" />
    <glyph glyph-name="cent" unicode="&#xa2;" horiz-adv-x="286" 
d="M91 499v-110h-61v110q0 36 26 62.5t61 28.5v110h51v-110q36 -1 62 -28t26 -63v-58h-61v58q0 13 -9.5 22t-20.5 9h-44q-12 0 -21 -9.5t-9 -21.5zM30 338h61v-138q0 -13 9 -21.5t21 -8.5h44q13 0 21.5 9t8.5 21v61h61v-61q0 -37 -26.5 -63.5t-61.5 -27.5v-109h-51v109
q-36 1 -61.5 28t-25.5 63v138z" />
    <glyph glyph-name="sterling" unicode="&#xa3;" horiz-adv-x="312" 
d="M88 271h61v-210h133v-61h-252v61h58v210zM238 322h-208v56h58v231q0 38 26.5 64.5t64.5 26.5h12q37 0 64 -27t27 -64v-69h-60v69q0 13 -9 22t-22 9h-12q-13 0 -21.5 -9t-8.5 -22v-231h89v-56z" />
    <glyph glyph-name="currency" unicode="&#xa4;" horiz-adv-x="385" 
d="M282 353h53q-6 -33 -24 -58l44 -44l-36 -36l-45 45q-36 -25 -81 -25q-46 0 -82 25l-45 -45l-36 36l45 45q-19 26 -23 57h53q8 -29 33 -48t55 -19q31 0 56 19t33 48zM335 404h-53q-8 29 -33 48t-56 19q-30 0 -55 -19t-33 -48h-53q6 30 23 55l-45 45l36 36l44 -44
q39 26 83 26q47 0 82 -26l44 44l36 -36l-44 -44q18 -24 24 -56z" />
    <glyph glyph-name="yen" unicode="&#xa5;" horiz-adv-x="353" 
d="M40 299h273v-51h-105v-187h57v-61h-180v61h57v187h-102v51zM313 364h-273v55h73l-83 281h68l77 -279l80 279h68l-85 -281h75v-55z" />
    <glyph glyph-name="brokenbar" unicode="&#xa6;" horiz-adv-x="111" 
d="M30 700h51v-337h-51v337zM30 222h51v-376h-51v376z" />
    <glyph glyph-name="section" unicode="&#xa7;" horiz-adv-x="269" 
d="M214 266l-38 44q7 14 7 27q0 31 -18 52l-94 110q-24 28 -30 50t-6 63q0 39 25.5 63.5t64.5 24.5h20q37 0 63 -24t26 -59v-56h-56v51q0 14 -9.5 23t-23.5 9h-20q-34 0 -34 -34q0 -19 1 -28t5.5 -21.5t15.5 -24.5l95 -111q31 -37 31 -88q0 -38 -25 -71zM105 315l94 -111
q23 -27 29 -50t6 -65q0 -39 -25.5 -64t-63.5 -25h-25q-36 0 -63 24t-27 59v57h56v-57q0 -11 10.5 -19t23.5 -8h25q33 0 33 33q0 20 -1 30t-6 23.5t-15 25.5l-94 110q-32 38 -32 89q0 40 25 71l38 -44q-7 -14 -7 -27q0 -30 19 -52z" />
    <glyph glyph-name="dieresis" unicode="&#xa8;" horiz-adv-x="237" 
d="M147 700h60v-71h-60v71zM30 700h61v-71h-61v71z" />
    <glyph glyph-name="copyright" unicode="&#xa9;" horiz-adv-x="495" 
d="M274 -11v51h4q56 0 96.5 41t40.5 96v346q0 56 -40.5 96.5t-96.5 40.5h-4v51h4q77 0 132 -55.5t55 -132.5v-346q0 -77 -55 -132.5t-132 -55.5h-4zM218 40h5v-51h-5q-78 0 -133 55t-55 133v346q0 78 55 133t133 55h5v-51h-5q-57 0 -97 -40t-40 -97v-346q0 -57 40 -97
t97 -40zM193 515v-126h-60v126q0 37 26.5 64t64.5 27h48q37 0 64 -27t27 -64v-50h-61v50q0 13 -9 22t-21 9h-48q-13 0 -22 -9t-9 -22zM133 338h60v-148q0 -13 9 -22t22 -9h48q12 0 21 9t9 22v95h61v-95q0 -38 -26.5 -65t-64.5 -27h-48q-38 0 -64.5 27t-26.5 65v148z" />
    <glyph glyph-name="guillemotleft" unicode="&#xab;" horiz-adv-x="295" 
d="M122 472h45l-67 -202l67 -203h-45l-92 203zM220 472h45l-46 -202l46 -203h-45l-67 203z" />
    <glyph glyph-name="logicalnot" unicode="&#xac;" horiz-adv-x="468" 
d="M375 270v147h-345v63h408v-210h-63z" />
    <glyph glyph-name="uni00AD" unicode="&#xad;" horiz-adv-x="247" 
d="M30 249v51h187v-51h-187z" />
    <glyph glyph-name="registered" unicode="&#xae;" horiz-adv-x="496" 
d="M260 341v61q39 0 39 43v70q0 12 -9 21.5t-22 9.5h-120v60h120q38 0 64.5 -27t26.5 -64v-67q0 -22 -13 -43.5t-34 -33.5q21 -8 34 -26t13 -40v-207h-60v203q0 40 -39 40zM209 495v-397h-61v397h61zM274 -11v51h4q56 0 96.5 41t40.5 96v346q0 56 -40.5 96.5t-96.5 40.5h-4
v51h4q77 0 132 -55.5t55 -132.5v-346q0 -77 -55 -132.5t-132 -55.5h-4zM218 40h5v-51h-5q-78 0 -133 55t-55 133v346q0 78 55 133t133 55h5v-51h-5q-57 0 -97 -40t-40 -97v-346q0 -57 40 -97t97 -40z" />
    <glyph glyph-name="macron" unicode="&#xaf;" horiz-adv-x="281" 
d="M45 700h191v-51h-191v51z" />
    <glyph glyph-name="degree" unicode="&#xb0;" horiz-adv-x="284" 
d="M118 536v-46q-38 8 -63 38.5t-25 70.5q0 46 33 79t80 33q46 0 78.5 -33.5t32.5 -78.5q0 -39 -24 -69.5t-61 -39.5v47q41 17 41 62q0 27 -20 47t-47 20q-28 0 -48 -19.5t-20 -47.5q0 -22 12 -39t31 -24z" />
    <glyph glyph-name="plusminus" unicode="&#xb1;" horiz-adv-x="389" 
d="M169 540h51v-139h139v-51h-139v-139h-51v139h-139v51h139v139zM30 131h329v-51h-329v51z" />
    <glyph glyph-name="twosuperior" unicode="&#xb2;" horiz-adv-x="171" 
d="M69 615h-39v43q0 18 13 30t31 12h23q19 0 31.5 -12t12.5 -30v-37q0 -25 -7 -39q-7 -15 -25 -40t-29 -46.5t-11 -44.5v-8h72v-39h-111v47q0 26 11 50t30.5 53t26.5 43q4 9 4 25v35q0 6 -5 6h-23q-5 0 -5 -6v-42z" />
    <glyph glyph-name="threesuperior" unicode="&#xb3;" horiz-adv-x="168" 
d="M30 661v39h108v-36l-46 -75q5 3 13 3q15 0 24 -9.5t9 -23.5v-111q0 -19 -13 -31.5t-31 -12.5h-19q-19 0 -32 12.5t-13 31.5v46h39v-46q0 -5 6 -5h19q5 0 5 5v99q0 11 -12 11q-11 0 -20 -17l-34 16l61 104h-64z" />
    <glyph glyph-name="acute" unicode="&#xb4;" horiz-adv-x="209" 
d="M134 700l30 -38l-89 -66l-30 38z" />
    <glyph glyph-name="paragraph" unicode="&#xb6;" horiz-adv-x="269" 
d="M239 0h-54v646h-28v-277h-37q-39 0 -64.5 28t-25.5 68v139q0 40 28.5 68t68.5 28h112v-700z" />
    <glyph glyph-name="periodcentered" unicode="&#xb7;" horiz-adv-x="131" 
d="M30 410h71v-71h-71v71z" />
    <glyph glyph-name="cedilla" unicode="&#xb8;" horiz-adv-x="166" 
d="M74 20v-53h4q23 0 40.5 -16.5t17.5 -40.5v-6q0 -23 -17 -41t-41 -18h-48v45h48q4 0 8 4t4 9v8q0 12 -12 12h-41v97h37z" />
    <glyph glyph-name="guillemotright" unicode="&#xbb;" horiz-adv-x="295" 
d="M128 472h45l92 -202l-92 -203h-45l67 203zM30 472h45l67 -202l-67 -203h-45l46 203z" />
    <glyph glyph-name="onequarter" unicode="&#xbc;" horiz-adv-x="460" 
d="M308 124h122v-43h-33v-81h-44v81h-89v40l73 284h60v-256h-44v73l6 110zM32 342h38v312h-40v46h88v-358h37v-46h-123v46zM328 700h53l-231 -700h-53z" />
    <glyph glyph-name="onehalf" unicode="&#xbd;" horiz-adv-x="483" 
d="M353 296h-45v53q0 23 16.5 39t38.5 16h36q23 0 38.5 -16t15.5 -39v-55q0 -26 -8 -46l-78 -137q-11 -22 -11 -45v-20h97v-46h-145v59q0 44 18 76l76 130q7 15 7 39v40q0 6 -5 10.5t-10 4.5h-26q-6 0 -10.5 -5t-4.5 -10v-48zM32 342h38v312h-40v46h88v-358h37v-46h-123v46z
M328 700h53l-231 -700h-53z" />
    <glyph glyph-name="threequarters" unicode="&#xbe;" horiz-adv-x="461" 
d="M31 653v47h134v-43l-64 -107q7 5 19 5q20 0 32.5 -12.5t12.5 -35.5v-156q0 -23 -16.5 -39t-39.5 -16h-24q-22 0 -38 16t-16 39v64h47v-59q0 -6 4 -10.5t9 -4.5h12q6 0 10.5 4.5t4.5 10.5v137q0 6 -4.5 10.5t-11.5 4.5q-18 0 -27 -20l-45 24l82 141h-81zM329 700h53
l-231 -700h-53zM309 124h122v-43h-33v-81h-44v81h-89v40l73 284h60v-256h-44v73l6 110z" />
    <glyph glyph-name="questiondown" unicode="&#xbf;" horiz-adv-x="282" 
d="M171 469h-61v71h61v-71zM181 11h61v-80q0 -37 -27 -64t-64 -27h-20q-38 0 -64.5 26.5t-26.5 64.5v80q0 51 35 157t35 158v80h61v-80q0 -56 -35 -162.5t-35 -152.5v-80q0 -13 8.5 -21.5t21.5 -8.5h20q13 0 21.5 8.5t8.5 21.5v80z" />
    <glyph glyph-name="Agrave" unicode="&#xc0;" horiz-adv-x="349" 
d="M240 155h67l22 -155h-66zM301 206h-185l-29 -206h-67l37 267h169l-49 368h-5l-42 -317h-66l51 382h119zM115 816l30 38l89 -66l-30 -38z" />
    <glyph glyph-name="Aacute" unicode="&#xc1;" horiz-adv-x="349" 
d="M240 155h67l22 -155h-66zM301 206h-185l-29 -206h-67l37 267h169l-49 368h-5l-42 -317h-66l51 382h119zM204 854l30 -38l-89 -66l-30 38z" />
    <glyph glyph-name="Acircumflex" unicode="&#xc2;" horiz-adv-x="349" 
d="M240 155h67l22 -155h-66zM301 206h-185l-29 -206h-67l37 267h169l-49 368h-5l-42 -317h-66l51 382h119zM108 750l-30 38l90 56h13l89 -56l-30 -38l-66 42z" />
    <glyph glyph-name="Atilde" unicode="&#xc3;" horiz-adv-x="349" 
d="M240 155h67l22 -155h-66zM301 206h-185l-29 -206h-67l37 267h169l-49 368h-5l-42 -317h-66l51 382h119zM111 750h-42q0 31 18 51.5t48 20.5q21 0 43 -13.5t35 -13.5q25 0 25 27h42q0 -31 -18 -51.5t-47 -20.5q-21 0 -43 14t-33 14q-28 0 -28 -28z" />
    <glyph glyph-name="Adieresis" unicode="&#xc4;" horiz-adv-x="349" 
d="M240 155h67l22 -155h-66zM301 206h-185l-29 -206h-67l37 267h169l-49 368h-5l-42 -317h-66l51 382h119zM203 821h60v-71h-60v71zM86 821h61v-71h-61v71z" />
    <glyph glyph-name="Aring" unicode="&#xc5;" horiz-adv-x="349" 
d="M240 155h67l22 -155h-66zM301 206h-185l-29 -206h-67l37 267h169l-49 368h-5l-42 -317h-66l51 382h119zM196 836v41q22 -7 35.5 -25.5t13.5 -42.5q0 -30 -20.5 -50.5t-50.5 -20.5t-50.5 20.5t-20.5 50.5q0 25 13.5 43t36.5 25v-40q-14 -11 -14 -28q0 -14 10.5 -24.5
t24.5 -10.5t24.5 10.5t10.5 24.5q0 17 -13 27z" />
    <glyph glyph-name="AE" unicode="&#xc6;" horiz-adv-x="479" 
d="M325 150v-84h124v-66h-191v150h67zM325 201h-194l-44 -201h-67l56 262h182v321h67v-175h109v-61h-109v-146zM449 634h-227l-68 -321h-67l83 387h279v-66z" />
    <glyph glyph-name="Ccedilla" unicode="&#xc7;" horiz-adv-x="311" 
d="M134 66h43q11 0 19.5 8t8.5 20v107h66v-107q0 -39 -27.5 -66.5t-66.5 -27.5h-9v-33h4q23 0 40.5 -16.5t17.5 -40.5v-6q0 -23 -17 -41t-41 -18h-48v45h48q4 0 8 4t4 9v8q0 12 -12 12h-41v77q-38 1 -64.5 28.5t-26.5 65.5v253h66v-253q0 -12 8.5 -20t19.5 -8zM205 528v78
q0 11 -8 19.5t-20 8.5h-43q-11 0 -19.5 -8.5t-8.5 -19.5v-208h-66v208q0 39 28 66.5t66 27.5h43q39 0 66.5 -27.5t27.5 -66.5v-78h-66z" />
    <glyph glyph-name="Egrave" unicode="&#xc8;" horiz-adv-x="261" 
d="M40 66h190v-66h-190v66zM106 117h-66v466h66v-175h109v-61h-109v-230zM40 634v66h191v-66h-191zM76 816l30 38l89 -66l-30 -38z" />
    <glyph glyph-name="Eacute" unicode="&#xc9;" horiz-adv-x="261" 
d="M40 66h190v-66h-190v66zM106 117h-66v466h66v-175h109v-61h-109v-230zM40 634v66h191v-66h-191zM165 854l30 -38l-89 -66l-30 38z" />
    <glyph glyph-name="Ecircumflex" unicode="&#xca;" horiz-adv-x="262" 
d="M41 66h190v-66h-190v66zM107 117h-66v466h66v-175h109v-61h-109v-230zM41 634v66h191v-66h-191zM70 750l-30 38l90 56h13l89 -56l-30 -38l-66 42z" />
    <glyph glyph-name="Edieresis" unicode="&#xcb;" horiz-adv-x="261" 
d="M40 66h190v-66h-190v66zM106 117h-66v466h66v-175h109v-61h-109v-230zM40 634v66h191v-66h-191zM164 821h60v-71h-60v71zM47 821h61v-71h-61v71z" />
    <glyph glyph-name="Igrave" unicode="&#xcc;" horiz-adv-x="260" 
d="M97 347h66v-281h57v-66h-180v66h57v281zM163 398h-66v236h-57v66h180v-66h-57v-236zM71 816l30 38l89 -66l-30 -38z" />
    <glyph glyph-name="Iacute" unicode="&#xcd;" horiz-adv-x="260" 
d="M97 347h66v-281h57v-66h-180v66h57v281zM163 398h-66v236h-57v66h180v-66h-57v-236zM160 854l30 -38l-89 -66l-30 38z" />
    <glyph glyph-name="Icircumflex" unicode="&#xce;" horiz-adv-x="272" 
d="M103 347h66v-281h57v-66h-180v66h57v281zM169 398h-66v236h-57v66h180v-66h-57v-236zM70 750l-30 38l90 56h13l89 -56l-30 -38l-66 42z" />
    <glyph glyph-name="Idieresis" unicode="&#xcf;" horiz-adv-x="260" 
d="M97 347h66v-281h57v-66h-180v66h57v281zM163 398h-66v236h-57v66h180v-66h-57v-236zM159 821h60v-71h-60v71zM42 821h61v-71h-61v71z" />
    <glyph glyph-name="Eth" unicode="&#xd0;" horiz-adv-x="329" 
d="M157 0v66h39q11 0 19 8.5t8 19.5v512q0 12 -8 20t-19 8h-156v66h156q38 0 65.5 -27.5t27.5 -66.5v-512q0 -39 -27.5 -66.5t-65.5 -27.5h-39zM106 0v352h74v51h-74v180h-66v-180h-57v-51h57v-352h66z" />
    <glyph glyph-name="Ntilde" unicode="&#xd1;" horiz-adv-x="362" 
d="M123 750h-42q0 31 18 51.5t48 20.5q21 0 43 -13.5t35 -13.5q25 0 25 27h42q0 -31 -18 -51.5t-47 -20.5q-21 0 -43 14t-33 14q-28 0 -28 -28zM106 360v-360h-66v573h15zM283 66h39v-66h-85l-158 634h-39v66h85zM256 340v360h66v-573h-15z" />
    <glyph glyph-name="Ograve" unicode="&#xd2;" horiz-adv-x="334" 
d="M142 634h-8q-11 0 -19.5 -8.5t-8.5 -19.5v-512q0 -12 8.5 -20t19.5 -8h8v-66h-8q-38 0 -66 27.5t-28 66.5v512q0 39 28 66.5t66 27.5h8v-66zM193 634v66h7q39 0 66.5 -27.5t27.5 -66.5v-512q0 -39 -27.5 -66.5t-66.5 -27.5h-7v66h7q11 0 19.5 8t8.5 20v512
q0 11 -8.5 19.5t-19.5 8.5h-7zM108 816l30 38l89 -66l-30 -38z" />
    <glyph glyph-name="Oacute" unicode="&#xd3;" horiz-adv-x="334" 
d="M142 634h-8q-11 0 -19.5 -8.5t-8.5 -19.5v-512q0 -12 8.5 -20t19.5 -8h8v-66h-8q-38 0 -66 27.5t-28 66.5v512q0 39 28 66.5t66 27.5h8v-66zM193 634v66h7q39 0 66.5 -27.5t27.5 -66.5v-512q0 -39 -27.5 -66.5t-66.5 -27.5h-7v66h7q11 0 19.5 8t8.5 20v512
q0 11 -8.5 19.5t-19.5 8.5h-7zM197 854l30 -38l-89 -66l-30 38z" />
    <glyph glyph-name="Ocircumflex" unicode="&#xd4;" horiz-adv-x="334" 
d="M142 634h-8q-11 0 -19.5 -8.5t-8.5 -19.5v-512q0 -12 8.5 -20t19.5 -8h8v-66h-8q-38 0 -66 27.5t-28 66.5v512q0 39 28 66.5t66 27.5h8v-66zM193 634v66h7q39 0 66.5 -27.5t27.5 -66.5v-512q0 -39 -27.5 -66.5t-66.5 -27.5h-7v66h7q11 0 19.5 8t8.5 20v512
q0 11 -8.5 19.5t-19.5 8.5h-7zM101 750l-30 38l90 56h13l89 -56l-30 -38l-66 42z" />
    <glyph glyph-name="Otilde" unicode="&#xd5;" horiz-adv-x="334" 
d="M142 634h-8q-11 0 -19.5 -8.5t-8.5 -19.5v-512q0 -12 8.5 -20t19.5 -8h8v-66h-8q-38 0 -66 27.5t-28 66.5v512q0 39 28 66.5t66 27.5h8v-66zM193 634v66h7q39 0 66.5 -27.5t27.5 -66.5v-512q0 -39 -27.5 -66.5t-66.5 -27.5h-7v66h7q11 0 19.5 8t8.5 20v512
q0 11 -8.5 19.5t-19.5 8.5h-7zM104 750h-42q0 31 18 51.5t48 20.5q21 0 43 -13.5t35 -13.5q25 0 25 27h42q0 -31 -18 -51.5t-47 -20.5q-21 0 -43 14t-33 14q-28 0 -28 -28z" />
    <glyph glyph-name="Odieresis" unicode="&#xd6;" horiz-adv-x="334" 
d="M142 634h-8q-11 0 -19.5 -8.5t-8.5 -19.5v-512q0 -12 8.5 -20t19.5 -8h8v-66h-8q-38 0 -66 27.5t-28 66.5v512q0 39 28 66.5t66 27.5h8v-66zM193 634v66h7q39 0 66.5 -27.5t27.5 -66.5v-512q0 -39 -27.5 -66.5t-66.5 -27.5h-7v66h7q11 0 19.5 8t8.5 20v512
q0 11 -8.5 19.5t-19.5 8.5h-7zM196 821h60v-71h-60v71zM79 821h61v-71h-61v71z" />
    <glyph glyph-name="multiply" unicode="&#xd7;" horiz-adv-x="329" 
d="M263 510l36 -36l-98 -98l98 -99l-36 -36l-98 99l-99 -99l-36 36l98 99l-98 98l36 36l99 -98z" />
    <glyph glyph-name="Oslash" unicode="&#xd8;" horiz-adv-x="423" 
d="M237 0v66h6q11 0 19.5 8t8.5 20v209l18 171l-140 -333v-47q0 -12 8.5 -20t19.5 -8h9v-66h-9q-44 0 -73 34l-23 -53l-41 19l43 102v504q0 39 28 66.5t66 27.5h9v-66h-9q-11 0 -19.5 -8.5t-8.5 -19.5v-202l-14 -178l136 325v55q0 11 -8.5 19.5t-19.5 8.5h-6v66h6
q45 0 74 -37l26 56l40 -19l-46 -110v-496q0 -39 -27.5 -66.5t-66.5 -27.5h-6z" />
    <glyph glyph-name="Ugrave" unicode="&#xd9;" 
d="M193 66h8q11 0 19.5 8t8.5 20v606h66v-606q0 -39 -28 -66.5t-66 -27.5h-8v66zM142 66v-66h-8q-39 0 -66.5 27.5t-27.5 66.5v606h66v-606q0 -12 8 -20t20 -8h8zM108 816l30 38l89 -66l-30 -38z" />
    <glyph glyph-name="Uacute" unicode="&#xda;" 
d="M193 66h8q11 0 19.5 8t8.5 20v606h66v-606q0 -39 -28 -66.5t-66 -27.5h-8v66zM142 66v-66h-8q-39 0 -66.5 27.5t-27.5 66.5v606h66v-606q0 -12 8 -20t20 -8h8zM197 854l30 -38l-89 -66l-30 38z" />
    <glyph glyph-name="Ucircumflex" unicode="&#xdb;" 
d="M193 66h8q11 0 19.5 8t8.5 20v606h66v-606q0 -39 -28 -66.5t-66 -27.5h-8v66zM142 66v-66h-8q-39 0 -66.5 27.5t-27.5 66.5v606h66v-606q0 -12 8 -20t20 -8h8zM101 750l-30 38l90 56h13l89 -56l-30 -38l-66 42z" />
    <glyph glyph-name="Udieresis" unicode="&#xdc;" 
d="M193 66h8q11 0 19.5 8t8.5 20v606h66v-606q0 -39 -28 -66.5t-66 -27.5h-8v66zM142 66v-66h-8q-39 0 -66.5 27.5t-27.5 66.5v606h66v-606q0 -12 8 -20t20 -8h8zM196 821h60v-71h-60v71zM79 821h61v-71h-61v71z" />
    <glyph glyph-name="Yacute" unicode="&#xdd;" horiz-adv-x="313" 
d="M122 306l113 394h68l-115 -380v-254h57v-66h-180v66h57v240zM130 513l-32 -111l-88 298h68zM186 854l30 -38l-89 -66l-30 38z" />
    <glyph glyph-name="Thorn" unicode="&#xde;" horiz-adv-x="320" 
d="M106 423v-423h-66v423h66zM157 139v62h25q14 0 23 11t9 25v209q0 11 -8.5 19.5t-19.5 8.5h-146v226h66v-160h80q38 0 66 -27.5t28 -66.5v-214q0 -39 -24.5 -66t-63.5 -27h-35z" />
    <glyph glyph-name="germandbls" unicode="&#xdf;" horiz-adv-x="425" 
d="M355 477h-221q-13 0 -22 -9t-9 -22v-446h-63v446q0 38 27.5 66t66.5 28h221v-63zM385 178v-87q0 -37 -26.5 -64t-64.5 -27h-45q-37 0 -64 27t-27 64v87h61v-87q0 -13 9 -21.5t21 -8.5h43q13 0 21.5 8.5t8.5 21.5v87h63zM385 229h-63v30q0 13 -8.5 21.5t-21.5 8.5h-27
q-30 0 -51 -31l-49 38l85 130h77l-45 -73h9q38 0 66 -27.5t28 -66.5v-30z" />
    <glyph glyph-name="agrave" unicode="&#xe0;" horiz-adv-x="348" 
d="M241 128h63l24 -128h-64zM295 179h-178l-34 -179h-63l45 241h155l-44 237h-4l-34 -186h-63l46 248h106zM115 662l30 38l89 -66l-30 -38z" />
    <glyph glyph-name="aacute" unicode="&#xe1;" horiz-adv-x="348" 
d="M241 128h63l24 -128h-64zM295 179h-178l-34 -179h-63l45 241h155l-44 237h-4l-34 -186h-63l46 248h106zM204 700l30 -38l-89 -66l-30 38z" />
    <glyph glyph-name="acircumflex" unicode="&#xe2;" horiz-adv-x="348" 
d="M241 128h63l24 -128h-64zM295 179h-178l-34 -179h-63l45 241h155l-44 237h-4l-34 -186h-63l46 248h106zM108 606l-30 38l90 56h13l89 -56l-30 -38l-66 42z" />
    <glyph glyph-name="atilde" unicode="&#xe3;" horiz-adv-x="348" 
d="M241 128h63l24 -128h-64zM295 179h-178l-34 -179h-63l45 241h155l-44 237h-4l-34 -186h-63l46 248h106zM111 628h-42q0 31 18 51.5t48 20.5q21 0 43 -13.5t35 -13.5q25 0 25 27h42q0 -31 -18 -51.5t-47 -20.5q-21 0 -43 14t-33 14q-28 0 -28 -28z" />
    <glyph glyph-name="adieresis" unicode="&#xe4;" horiz-adv-x="348" 
d="M241 128h63l24 -128h-64zM295 179h-178l-34 -179h-63l45 241h155l-44 237h-4l-34 -186h-63l46 248h106zM203 700h60v-71h-60v71zM86 700h61v-71h-61v71z" />
    <glyph glyph-name="aring" unicode="&#xe5;" horiz-adv-x="348" 
d="M241 128h63l24 -128h-64zM295 179h-178l-34 -179h-63l45 241h155l-44 237h-4l-34 -186h-63l46 248h106zM196 676v41q22 -7 35.5 -25.5t13.5 -42.5q0 -30 -20.5 -50.5t-50.5 -20.5t-50.5 20.5t-20.5 50.5q0 25 13.5 43t36.5 25v-40q-14 -11 -14 -28q0 -14 10.5 -24.5
t24.5 -10.5t24.5 10.5t10.5 24.5q0 17 -13 27z" />
    <glyph glyph-name="ae" unicode="&#xe6;" horiz-adv-x="484" 
d="M454 477h-232l-54 -186h-63l72 249h277v-63zM260 426h62v-106h117v-62h-117v-80h-185l-52 -178h-65l70 240h170v186zM260 127h62v-65h132v-62h-194v127z" />
    <glyph glyph-name="ccedilla" unicode="&#xe7;" horiz-adv-x="316" 
d="M40 263h62v-170q0 -13 9 -22t22 -9h49q13 0 22 9t9 22v85h63v-85q0 -38 -27.5 -65.5t-66.5 -27.5h-16v-33h4q23 0 40.5 -16.5t17.5 -40.5v-6q0 -23 -17 -41t-41 -18h-48v45h48q4 0 8 4t4 9v8q0 12 -12 12h-41v77q-37 1 -63 28t-26 65v170zM40 314v132q0 39 27.5 66.5
t65.5 27.5h49q39 0 66.5 -27.5t27.5 -66.5v-52h-63v52q0 13 -9 22t-22 9h-49q-13 0 -22 -9t-9 -22v-132h-62z" />
    <glyph glyph-name="egrave" unicode="&#xe8;" horiz-adv-x="264" 
d="M40 207h62v-145h132v-62h-194v207zM40 426h62v-106h117v-62h-179v168zM40 477v63h194v-63h-194zM78 662l30 38l89 -66l-30 -38z" />
    <glyph glyph-name="eacute" unicode="&#xe9;" horiz-adv-x="264" 
d="M40 207h62v-145h132v-62h-194v207zM40 426h62v-106h117v-62h-179v168zM40 477v63h194v-63h-194zM167 700l30 -38l-89 -66l-30 38z" />
    <glyph glyph-name="ecircumflex" unicode="&#xea;" horiz-adv-x="264" 
d="M40 207h62v-145h132v-62h-194v207zM40 426h62v-106h117v-62h-179v168zM40 477v63h194v-63h-194zM71 606l-30 38l90 56h13l89 -56l-30 -38l-66 42z" />
    <glyph glyph-name="edieresis" unicode="&#xeb;" horiz-adv-x="264" 
d="M40 207h62v-145h132v-62h-194v207zM40 426h62v-106h117v-62h-179v168zM40 477v63h194v-63h-194zM166 700h60v-71h-60v71zM49 700h61v-71h-61v71z" />
    <glyph glyph-name="igrave" unicode="&#xec;" horiz-adv-x="264" 
d="M163 263v-201h61v-62h-184v62h61v201h62zM163 314h-62v163h-61v63h184v-63h-61v-163zM73 662l30 38l89 -66l-30 -38z" />
    <glyph glyph-name="iacute" unicode="&#xed;" horiz-adv-x="264" 
d="M163 263v-201h61v-62h-184v62h61v201h62zM163 314h-62v163h-61v63h184v-63h-61v-163zM162 700l30 -38l-89 -66l-30 38z" />
    <glyph glyph-name="icircumflex" unicode="&#xee;" horiz-adv-x="272" 
d="M167 263v-201h61v-62h-184v62h61v201h62zM167 314h-62v163h-61v63h184v-63h-61v-163zM70 606l-30 38l90 56h13l89 -56l-30 -38l-66 42z" />
    <glyph glyph-name="idieresis" unicode="&#xef;" horiz-adv-x="264" 
d="M163 263v-201h61v-62h-184v62h61v201h62zM163 314h-62v163h-61v63h184v-63h-61v-163zM161 700h60v-71h-60v71zM44 700h61v-71h-61v71z" />
    <glyph glyph-name="eth" unicode="&#xf0;" 
d="M201 0h-48v62h48q13 0 22.5 9t9.5 22v353q0 13 -9.5 22t-22.5 9h-161v63h161q39 0 66.5 -27.5t27.5 -66.5v-353q0 -38 -27.5 -65.5t-66.5 -27.5zM102 264v-264h-62v264h-50v51h50v111h62v-111h85v-51h-85z" />
    <glyph glyph-name="ntilde" unicode="&#xf1;" horiz-adv-x="368" 
d="M131 628h-42q0 31 18 51.5t48 20.5q21 0 43 -13.5t35 -13.5q25 0 25 27h42q0 -31 -18 -51.5t-47 -20.5q-21 0 -43 14t-33 14q-28 0 -28 -28zM284 63h44v-63h-89l-155 477h-44v63h88zM328 114h-17l-46 141v285h63v-426zM40 426h17l46 -143v-283h-63v426z" />
    <glyph glyph-name="ograve" unicode="&#xf2;" horiz-adv-x="340" 
d="M206 477h-10v63h10q38 0 66 -27.5t28 -66.5v-353q0 -38 -27.5 -65.5t-66.5 -27.5h-10v62h10q13 0 22 9t9 22v353q0 13 -9 22t-22 9zM145 540v-63h-11q-13 0 -22 -9t-9 -22v-353q0 -13 9 -22t22 -9h11v-62h-11q-39 0 -66.5 27.5t-27.5 65.5v353q0 38 27.5 66t66.5 28h11z
M111 662l30 38l89 -66l-30 -38z" />
    <glyph glyph-name="oacute" unicode="&#xf3;" horiz-adv-x="340" 
d="M196 477h10q13 0 22 -9t9 -22v-353q0 -13 -9 -22t-22 -9h-10v-62h10q39 0 66.5 27.5t27.5 65.5v353q0 39 -28 66.5t-66 27.5h-10v-63zM145 477v63h-11q-39 0 -66.5 -28t-27.5 -66v-353q0 -38 27.5 -65.5t66.5 -27.5h11v62h-11q-13 0 -22 9t-9 22v353q0 13 9 22t22 9h11z
M200 700l30 -38l-89 -66l-30 38z" />
    <glyph glyph-name="ocircumflex" unicode="&#xf4;" horiz-adv-x="340" 
d="M105 606l-30 38l90 56h13l89 -56l-30 -38l-66 42zM207 477h-10v63h10q38 0 66 -27.5t28 -66.5v-353q0 -38 -27.5 -65.5t-66.5 -27.5h-10v62h10q13 0 22 9t9 22v353q0 13 -9 22t-22 9zM146 540v-63h-11q-13 0 -22 -9t-9 -22v-353q0 -13 9 -22t22 -9h11v-62h-11
q-39 0 -66.5 27.5t-27.5 65.5v353q0 38 27.5 66t66.5 28h11z" />
    <glyph glyph-name="otilde" unicode="&#xf5;" horiz-adv-x="340" 
d="M206 477h-10v63h10q38 0 66 -27.5t28 -66.5v-353q0 -38 -27.5 -65.5t-66.5 -27.5h-10v62h10q13 0 22 9t9 22v353q0 13 -9 22t-22 9zM145 540v-63h-11q-13 0 -22 -9t-9 -22v-353q0 -13 9 -22t22 -9h11v-62h-11q-39 0 -66.5 27.5t-27.5 65.5v353q0 38 27.5 66t66.5 28h11z
M107 628h-42q0 31 18 51.5t48 20.5q21 0 43 -13.5t35 -13.5q25 0 25 27h42q0 -31 -18 -51.5t-47 -20.5q-21 0 -43 14t-33 14q-28 0 -28 -28z" />
    <glyph glyph-name="odieresis" unicode="&#xf6;" horiz-adv-x="340" 
d="M206 477h-10v63h10q38 0 66 -27.5t28 -66.5v-353q0 -38 -27.5 -65.5t-66.5 -27.5h-10v62h10q13 0 22 9t9 22v353q0 13 -9 22t-22 9zM145 540v-63h-11q-13 0 -22 -9t-9 -22v-353q0 -13 9 -22t22 -9h11v-62h-11q-39 0 -66.5 27.5t-27.5 65.5v353q0 38 27.5 66t66.5 28h11z
M199 700h60v-71h-60v71zM82 700h61v-71h-61v71z" />
    <glyph glyph-name="divide" unicode="&#xf7;" horiz-adv-x="429" 
d="M399 401h-369v-54h369v54zM169 469v71h71v-71h-71zM169 211v71h71v-71h-71z" />
    <glyph glyph-name="oslash" unicode="&#xf8;" horiz-adv-x="412" 
d="M169 540h11v-63h-11q-13 0 -22 -9t-9 -22v-148l-17 -143l151 293q-1 12 -10 20.5t-21 8.5h-10v63h10q36 0 64 -26l26 49l42 -23l-40 -77q2 -12 2 -17v-353q0 -38 -27.5 -65.5t-66.5 -27.5h-10v62h10q13 0 22 9t9 22v98l17 186l-150 -292q2 -10 11 -16.5t19 -6.5h11v-62
h-11q-37 0 -62 23l-24 -46l-42 23l36 71q-2 7 -2 22v353q0 38 27.5 66t66.5 28z" />
    <glyph glyph-name="ugrave" unicode="&#xf9;" horiz-adv-x="341" 
d="M146 0h-12q-39 0 -66.5 27.5t-27.5 65.5v447h62v-447q0 -13 9.5 -22t22.5 -9h12v-62zM197 0v62h10q13 0 22.5 9t9.5 22v447h62v-447q0 -38 -27.5 -65.5t-66.5 -27.5h-10zM111 662l30 38l89 -66l-30 -38z" />
    <glyph glyph-name="uacute" unicode="&#xfa;" horiz-adv-x="341" 
d="M146 0h-12q-39 0 -66.5 27.5t-27.5 65.5v447h62v-447q0 -13 9.5 -22t22.5 -9h12v-62zM197 0v62h10q13 0 22.5 9t9.5 22v447h62v-447q0 -38 -27.5 -65.5t-66.5 -27.5h-10zM200 700l30 -38l-89 -66l-30 38z" />
    <glyph glyph-name="ucircumflex" unicode="&#xfb;" horiz-adv-x="341" 
d="M146 0h-12q-39 0 -66.5 27.5t-27.5 65.5v447h62v-447q0 -13 9.5 -22t22.5 -9h12v-62zM197 0v62h10q13 0 22.5 9t9.5 22v447h62v-447q0 -38 -27.5 -65.5t-66.5 -27.5h-10zM104 606l-30 38l90 56h13l89 -56l-30 -38l-66 42z" />
    <glyph glyph-name="udieresis" unicode="&#xfc;" horiz-adv-x="341" 
d="M146 0h-12q-39 0 -66.5 27.5t-27.5 65.5v447h62v-447q0 -13 9.5 -22t22.5 -9h12v-62zM197 0v62h10q13 0 22.5 9t9.5 22v447h62v-447q0 -38 -27.5 -65.5t-66.5 -27.5h-10zM199 700h60v-71h-60v71zM82 700h61v-71h-61v71z" />
    <glyph glyph-name="yacute" unicode="&#xfd;" horiz-adv-x="321" 
d="M193 207v-145h61v-62h-184v62h60v145h63zM204 258h-85l-109 282h67l81 -220h7l79 220h67zM190 700l30 -38l-89 -66l-30 38z" />
    <glyph glyph-name="thorn" unicode="&#xfe;" horiz-adv-x="325" 
d="M102 343v-343h-62v343h62zM153 116v62h38q13 0 22 9t9 22v154q0 13 -9 22t-22 9h-151v146h62v-83h89q39 0 66.5 -27.5t27.5 -66.5v-154q0 -38 -27.5 -65.5t-66.5 -27.5h-38z" />
    <glyph glyph-name="ydieresis" unicode="&#xff;" horiz-adv-x="321" 
d="M193 207v-145h61v-62h-184v62h60v145h63zM204 258h-85l-109 282h67l81 -220h7l79 220h67zM189 700h60v-71h-60v71zM72 700h61v-71h-61v71z" />
    <glyph glyph-name="Amacron" unicode="&#x100;" horiz-adv-x="349" 
d="M240 155h67l22 -155h-66zM301 206h-185l-29 -206h-67l37 267h169l-49 368h-5l-42 -317h-66l51 382h119zM79 814h191v-51h-191v51z" />
    <glyph glyph-name="amacron" unicode="&#x101;" horiz-adv-x="348" 
d="M241 128h63l24 -128h-64zM295 179h-178l-34 -179h-63l45 241h155l-44 237h-4l-34 -186h-63l46 248h106zM79 700h191v-51h-191v51z" />
    <glyph glyph-name="Abreve" unicode="&#x102;" horiz-adv-x="349" 
d="M240 155h67l22 -155h-66zM301 206h-185l-29 -206h-67l37 267h169l-49 368h-5l-42 -317h-66l51 382h119zM74 828h49v-11q0 -8 6 -14.5t14 -6.5h62q8 0 14 6.5t6 14.5v11h49v-8q0 -30 -19 -50t-49 -20h-64q-30 0 -49 20t-19 50v8z" />
    <glyph glyph-name="abreve" unicode="&#x103;" horiz-adv-x="348" 
d="M241 128h63l24 -128h-64zM295 179h-178l-34 -179h-63l45 241h155l-44 237h-4l-34 -186h-63l46 248h106zM74 700h49v-11q0 -8 6 -14.5t14 -6.5h62q8 0 14 6.5t6 14.5v11h49v-8q0 -30 -19 -50t-49 -20h-64q-30 0 -49 20t-19 50v8z" />
    <glyph glyph-name="Aogonek" unicode="&#x104;" horiz-adv-x="350" 
d="M301 206h-185l-29 -206h-67l37 267h169l-49 368h-5l-42 -317h-66l51 382h119zM292 -80q0 -15 15 -15h23v-44h-39q-23 0 -35.5 15t-12.5 36q0 42 39 88h-19l-23 155h67l20 -144h7q-1 -1 -3 -3.5t-3 -3.5l1 -4h-4q-33 -41 -33 -80z" />
    <glyph glyph-name="aogonek" unicode="&#x105;" horiz-adv-x="349" 
d="M241 128h63l24 -128q-37 -45 -37 -80q0 -15 15 -15h23v-44h-39q-23 0 -35.5 15t-12.5 36q0 42 39 88h-17zM294 179h-177l-34 -179h-63l45 241h155l-44 237h-4l-34 -186h-64l47 248h106z" />
    <glyph glyph-name="Cacute" unicode="&#x106;" horiz-adv-x="311" 
d="M134 66h43q11 0 19.5 8t8.5 20v107h66v-107q0 -39 -27.5 -66.5t-66.5 -27.5h-43q-38 0 -66 27.5t-28 66.5v253h66v-253q0 -12 8.5 -20t19.5 -8zM205 528v78q0 11 -8 19.5t-20 8.5h-43q-11 0 -19.5 -8.5t-8.5 -19.5v-208h-66v208q0 39 28 66.5t66 27.5h43q39 0 66.5 -27.5
t27.5 -66.5v-78h-66zM185 854l30 -38l-89 -66l-30 38z" />
    <glyph glyph-name="cacute" unicode="&#x107;" horiz-adv-x="316" 
d="M40 263h62v-170q0 -13 9 -22t22 -9h49q13 0 22 9t9 22v85h63v-85q0 -38 -27.5 -65.5t-66.5 -27.5h-49q-38 0 -65.5 27.5t-27.5 65.5v170zM40 314v132q0 39 27.5 66.5t65.5 27.5h49q39 0 66.5 -27.5t27.5 -66.5v-52h-63v52q0 13 -9 22t-22 9h-49q-13 0 -22 -9t-9 -22v-132
h-62zM188 700l30 -38l-89 -66l-30 38z" />
    <glyph glyph-name="Ccircumflex" unicode="&#x108;" horiz-adv-x="311" 
d="M134 66h43q11 0 19.5 8t8.5 20v107h66v-107q0 -39 -27.5 -66.5t-66.5 -27.5h-43q-38 0 -66 27.5t-28 66.5v253h66v-253q0 -12 8.5 -20t19.5 -8zM205 528v78q0 11 -8 19.5t-20 8.5h-43q-11 0 -19.5 -8.5t-8.5 -19.5v-208h-66v208q0 39 28 66.5t66 27.5h43q39 0 66.5 -27.5
t27.5 -66.5v-78h-66zM89 750l-30 38l90 56h13l89 -56l-30 -38l-66 42z" />
    <glyph glyph-name="ccircumflex" unicode="&#x109;" horiz-adv-x="316" 
d="M40 263h62v-170q0 -13 9 -22t22 -9h49q13 0 22 9t9 22v85h63v-85q0 -38 -27.5 -65.5t-66.5 -27.5h-49q-38 0 -65.5 27.5t-27.5 65.5v170zM40 314v132q0 39 27.5 66.5t65.5 27.5h49q39 0 66.5 -27.5t27.5 -66.5v-52h-63v52q0 13 -9 22t-22 9h-49q-13 0 -22 -9t-9 -22v-132
h-62zM93 606l-30 38l90 56h13l89 -56l-30 -38l-66 42z" />
    <glyph glyph-name="Cdotaccent" unicode="&#x10a;" horiz-adv-x="311" 
d="M134 66h43q11 0 19.5 8t8.5 20v107h66v-107q0 -39 -27.5 -66.5t-66.5 -27.5h-43q-38 0 -66 27.5t-28 66.5v253h66v-253q0 -12 8.5 -20t19.5 -8zM205 528v78q0 11 -8 19.5t-20 8.5h-43q-11 0 -19.5 -8.5t-8.5 -19.5v-208h-66v208q0 39 28 66.5t66 27.5h43q39 0 66.5 -27.5
t27.5 -66.5v-78h-66zM125 821h61v-71h-61v71z" />
    <glyph glyph-name="cdotaccent" unicode="&#x10b;" horiz-adv-x="316" 
d="M40 263h62v-170q0 -13 9 -22t22 -9h49q13 0 22 9t9 22v85h63v-85q0 -38 -27.5 -65.5t-66.5 -27.5h-49q-38 0 -65.5 27.5t-27.5 65.5v170zM40 314v132q0 39 27.5 66.5t65.5 27.5h49q39 0 66.5 -27.5t27.5 -66.5v-52h-63v52q0 13 -9 22t-22 9h-49q-13 0 -22 -9t-9 -22v-132
h-62zM128 700h61v-71h-61v71z" />
    <glyph glyph-name="Ccaron" unicode="&#x10c;" horiz-adv-x="311" 
d="M134 66h43q11 0 19.5 8t8.5 20v107h66v-107q0 -39 -27.5 -66.5t-66.5 -27.5h-43q-38 0 -66 27.5t-28 66.5v253h66v-253q0 -12 8.5 -20t19.5 -8zM205 528v78q0 11 -8 19.5t-20 8.5h-43q-11 0 -19.5 -8.5t-8.5 -19.5v-208h-66v208q0 39 28 66.5t66 27.5h43q39 0 66.5 -27.5
t27.5 -66.5v-78h-66zM59 806l30 38l66 -42l66 42l30 -38l-89 -56h-13z" />
    <glyph glyph-name="ccaron" unicode="&#x10d;" horiz-adv-x="316" 
d="M40 263h62v-170q0 -13 9 -22t22 -9h49q13 0 22 9t9 22v85h63v-85q0 -38 -27.5 -65.5t-66.5 -27.5h-49q-38 0 -65.5 27.5t-27.5 65.5v170zM40 314v132q0 39 27.5 66.5t65.5 27.5h49q39 0 66.5 -27.5t27.5 -66.5v-52h-63v52q0 13 -9 22t-22 9h-49q-13 0 -22 -9t-9 -22v-132
h-62zM62 662l30 38l66 -42l66 42l30 -38l-89 -56h-13z" />
    <glyph glyph-name="Dcaron" unicode="&#x10e;" horiz-adv-x="329" 
d="M157 0v66h39q11 0 19 8.5t8 19.5v512q0 12 -8 20t-19 8h-156v66h156q38 0 65.5 -27.5t27.5 -66.5v-512q0 -39 -27.5 -66.5t-65.5 -27.5h-39zM106 0v583h-66v-583h66zM48 806l30 38l66 -42l66 42l30 -38l-89 -56h-13z" />
    <glyph glyph-name="dcaron" unicode="&#x10f;" 
d="M102 0v426h-62v-426h62zM153 0h48q39 0 66.5 27.5t27.5 65.5v353q0 39 -27.5 66.5t-66.5 27.5h-161v-63h161q13 0 22.5 -9t9.5 -22v-353q0 -13 -9.5 -22t-22.5 -9h-48v-62zM55 662l30 38l66 -42l66 42l30 -38l-89 -56h-13z" />
    <glyph glyph-name="Dcroat" unicode="&#x110;" horiz-adv-x="359" 
d="M187 0v66h39q11 0 19 8.5t8 19.5v512q0 12 -8 20t-19 8h-156v66h156q38 0 65.5 -27.5t27.5 -66.5v-512q0 -39 -27.5 -66.5t-65.5 -27.5h-39zM136 0v352h81v51h-81v180h-66v-180h-50v-51h50v-352h66z" />
    <glyph glyph-name="dcroat" unicode="&#x111;" horiz-adv-x="365" 
d="M231 0h-48v62h48q13 0 22.5 9t9.5 22v353q0 13 -9.5 22t-22.5 9h-161v63h161q39 0 66.5 -27.5t27.5 -66.5v-353q0 -38 -27.5 -65.5t-66.5 -27.5zM132 264v-264h-62v264h-50v51h50v111h62v-111h85v-51h-85z" />
    <glyph glyph-name="Emacron" unicode="&#x112;" horiz-adv-x="261" 
d="M40 66h190v-66h-190v66zM106 117h-66v466h66v-175h109v-61h-109v-230zM40 634v66h191v-66h-191zM40 814h191v-51h-191v51z" />
    <glyph glyph-name="emacron" unicode="&#x113;" horiz-adv-x="264" 
d="M40 207h62v-145h132v-62h-194v207zM40 426h62v-106h117v-62h-179v168zM40 477v63h194v-63h-194zM42 700h191v-51h-191v51z" />
    <glyph glyph-name="Ebreve" unicode="&#x114;" horiz-adv-x="270" 
d="M45 66h190v-66h-190v66zM111 117h-66v466h66v-175h109v-61h-109v-230zM45 634v66h191v-66h-191zM40 828h49v-11q0 -8 6 -14.5t14 -6.5h62q8 0 14 6.5t6 14.5v11h49v-8q0 -30 -19 -50t-49 -20h-64q-30 0 -49 20t-19 50v8z" />
    <glyph glyph-name="ebreve" unicode="&#x115;" horiz-adv-x="270" 
d="M44 207h62v-145h132v-62h-194v207zM44 426h62v-106h117v-62h-179v168zM44 477v63h194v-63h-194zM40 700h49v-11q0 -8 6 -14.5t14 -6.5h62q8 0 14 6.5t6 14.5v11h49v-8q0 -30 -19 -50t-49 -20h-64q-30 0 -49 20t-19 50v8z" />
    <glyph glyph-name="Edotaccent" unicode="&#x116;" horiz-adv-x="261" 
d="M40 66h190v-66h-190v66zM106 117h-66v466h66v-175h109v-61h-109v-230zM40 634v66h191v-66h-191zM105 821h61v-71h-61v71z" />
    <glyph glyph-name="edotaccent" unicode="&#x117;" horiz-adv-x="264" 
d="M40 207h62v-145h132v-62h-194v207zM40 426h62v-106h117v-62h-179v168zM40 477v63h194v-63h-194zM107 700h61v-71h-61v71z" />
    <glyph glyph-name="Eogonek" unicode="&#x118;" horiz-adv-x="262" 
d="M40 66h190v-66q-36 -45 -36 -80q0 -15 15 -15h23v-44h-39q-23 0 -35.5 15t-12.5 36q0 42 39 88h-144v66zM40 634v66h191v-66h-191zM40 583h66v-175h109v-61h-109v-230h-66v466z" />
    <glyph glyph-name="eogonek" unicode="&#x119;" horiz-adv-x="265" 
d="M234 62v-62q-33 -41 -33 -80q0 -15 15 -15h23v-44h-39q-23 0 -35.5 15t-12.5 36q0 42 39 88h-151v207h62v-145h132zM40 426h62v-106h117v-62h-179v168zM40 477v63h194v-63h-194z" />
    <glyph glyph-name="Ecaron" unicode="&#x11a;" horiz-adv-x="266" 
d="M40 66h190v-66h-190v66zM106 117h-66v466h66v-175h109v-61h-109v-230zM40 634v66h191v-66h-191zM44 806l30 38l66 -42l66 42l30 -38l-89 -56h-13z" />
    <glyph glyph-name="ecaron" unicode="&#x11b;" horiz-adv-x="264" 
d="M40 207h62v-145h132v-62h-194v207zM40 426h62v-106h117v-62h-179v168zM40 477v63h194v-63h-194zM41 662l30 38l66 -42l66 42l30 -38l-89 -56h-13z" />
    <glyph glyph-name="Gcircumflex" unicode="&#x11c;" horiz-adv-x="311" 
d="M271 347v-61h-109v61h109zM205 235h66v-141q0 -39 -27.5 -66.5t-66.5 -27.5h-43q-39 0 -66.5 27.5t-27.5 66.5v253h66v-253q0 -12 8.5 -20t19.5 -8h43q11 0 19.5 8t8.5 20v141zM106 398h-66v208q0 38 28 66t66 28h43q39 0 66.5 -27.5t27.5 -66.5v-78h-66v78q0 11 -8 19.5
t-20 8.5h-43q-11 0 -19.5 -8.5t-8.5 -19.5v-208zM89 750l-30 38l90 56h13l89 -56l-30 -38l-66 42z" />
    <glyph glyph-name="gcircumflex" unicode="&#x11d;" horiz-adv-x="316" 
d="M276 258v-62h-111v62h111zM103 446v-132h-63v132q0 39 27.5 66.5t66.5 27.5h49q38 0 65.5 -27.5t27.5 -66.5v-52h-62v52q0 13 -9 22t-22 9h-49q-13 0 -22 -9t-9 -22zM40 263h63v-170q0 -13 9 -22t22 -9h49q13 0 22 9t9 22v52h62v-52q0 -38 -27.5 -65.5t-65.5 -27.5h-49
q-39 0 -66.5 27.5t-27.5 65.5v170zM92 606l-30 38l90 56h13l89 -56l-30 -38l-66 42z" />
    <glyph glyph-name="Gbreve" unicode="&#x11e;" horiz-adv-x="311" 
d="M271 347v-61h-109v61h109zM205 235h66v-141q0 -39 -27.5 -66.5t-66.5 -27.5h-43q-39 0 -66.5 27.5t-27.5 66.5v253h66v-253q0 -12 8.5 -20t19.5 -8h43q11 0 19.5 8t8.5 20v141zM106 398h-66v208q0 38 28 66t66 28h43q39 0 66.5 -27.5t27.5 -66.5v-78h-66v78q0 11 -8 19.5
t-20 8.5h-43q-11 0 -19.5 -8.5t-8.5 -19.5v-208zM55 828h49v-11q0 -8 6 -14.5t14 -6.5h62q8 0 14 6.5t6 14.5v11h49v-8q0 -30 -19 -50t-49 -20h-64q-30 0 -49 20t-19 50v8z" />
    <glyph glyph-name="gbreve" unicode="&#x11f;" horiz-adv-x="316" 
d="M276 258v-62h-111v62h111zM103 446v-132h-63v132q0 39 27.5 66.5t66.5 27.5h49q38 0 65.5 -27.5t27.5 -66.5v-52h-62v52q0 13 -9 22t-22 9h-49q-13 0 -22 -9t-9 -22zM40 263h63v-170q0 -13 9 -22t22 -9h49q13 0 22 9t9 22v52h62v-52q0 -38 -27.5 -65.5t-65.5 -27.5h-49
q-39 0 -66.5 27.5t-27.5 65.5v170zM58 700h49v-11q0 -8 6 -14.5t14 -6.5h62q8 0 14 6.5t6 14.5v11h49v-8q0 -30 -19 -50t-49 -20h-64q-30 0 -49 20t-19 50v8z" />
    <glyph glyph-name="Gdotaccent" unicode="&#x120;" horiz-adv-x="311" 
d="M271 347v-61h-109v61h109zM205 235h66v-141q0 -39 -27.5 -66.5t-66.5 -27.5h-43q-39 0 -66.5 27.5t-27.5 66.5v253h66v-253q0 -12 8.5 -20t19.5 -8h43q11 0 19.5 8t8.5 20v141zM106 398h-66v208q0 38 28 66t66 28h43q39 0 66.5 -27.5t27.5 -66.5v-78h-66v78q0 11 -8 19.5
t-20 8.5h-43q-11 0 -19.5 -8.5t-8.5 -19.5v-208zM125 821h61v-71h-61v71z" />
    <glyph glyph-name="gdotaccent" unicode="&#x121;" horiz-adv-x="316" 
d="M276 258v-62h-111v62h111zM103 446v-132h-63v132q0 39 27.5 66.5t66.5 27.5h49q38 0 65.5 -27.5t27.5 -66.5v-52h-62v52q0 13 -9 22t-22 9h-49q-13 0 -22 -9t-9 -22zM40 263h63v-170q0 -13 9 -22t22 -9h49q13 0 22 9t9 22v52h62v-52q0 -38 -27.5 -65.5t-65.5 -27.5h-49
q-39 0 -66.5 27.5t-27.5 65.5v170zM128 700h61v-71h-61v71z" />
    <glyph glyph-name="Gcommaaccent" unicode="&#x122;" horiz-adv-x="311" 
d="M271 286v61h-109v-61h109zM271 235h-66v-141q0 -12 -8.5 -20t-19.5 -8h-43q-11 0 -19.5 8t-8.5 20v253h-66v-253q0 -39 27.5 -66.5t66.5 -27.5h43q39 0 66.5 27.5t27.5 66.5v141zM106 398h-66v208q0 38 28 66t66 28h43q39 0 66.5 -27.5t27.5 -66.5v-78h-66v78
q0 11 -8 19.5t-20 8.5h-43q-11 0 -19.5 -8.5t-8.5 -19.5v-208zM185 -32h-60v-61h22l-22 -62h23l37 62v61z" />
    <glyph glyph-name="gcommaaccent" unicode="&#x123;" horiz-adv-x="316" 
d="M276 258v-62h-111v62h111zM103 446v-132h-63v132q0 39 27.5 66.5t66.5 27.5h49q38 0 65.5 -27.5t27.5 -66.5v-52h-62v52q0 13 -9 22t-22 9h-49q-13 0 -22 -9t-9 -22zM40 263h63v-170q0 -13 9 -22t22 -9h49q13 0 22 9t9 22v52h62v-52q0 -38 -27.5 -65.5t-65.5 -27.5h-49
q-39 0 -66.5 27.5t-27.5 65.5v170zM128 -32h60v-61l-37 -62h-23l22 62h-22v61z" />
    <glyph glyph-name="Hcircumflex" unicode="&#x124;" 
d="M229 296h66v-296h-66v296zM295 347h-189v-347h-66v408h189v292h66v-353zM106 459h-66v241h66v-241zM101 750l-30 38l90 56h13l89 -56l-30 -38l-66 42z" />
    <glyph glyph-name="hcircumflex" unicode="&#x125;" horiz-adv-x="341" 
d="M102 540v-169h-62v169h62zM301 258h-199v-258h-62v320h199v220h62v-282zM239 0v207h62v-207h-62zM104 606l-30 38l90 56h13l89 -56l-30 -38l-66 42z" />
    <glyph glyph-name="Hbar" unicode="&#x126;" 
d="M229 245h66v-245h-66v245zM295 296h-189v-296h-66v408h66v-51h123v102h-189v241h66v-180h123v180h66v-404z" />
    <glyph glyph-name="hbar" unicode="&#x127;" horiz-adv-x="341" 
d="M301 540v-334h-199v-206h-62v299h62v-31h137v82h-199v190h62v-128h137v128h62zM239 155h62v-155h-62v155z" />
    <glyph glyph-name="Itilde" unicode="&#x128;" horiz-adv-x="291" 
d="M112 347h66v-281h57v-66h-180v66h57v281zM178 398h-66v236h-57v66h180v-66h-57v-236zM82 750h-42q0 31 18 51.5t48 20.5q21 0 43 -13.5t35 -13.5q25 0 25 27h42q0 -31 -18 -51.5t-47 -20.5q-21 0 -43 14t-33 14q-28 0 -28 -28z" />
    <glyph glyph-name="itilde" unicode="&#x129;" horiz-adv-x="291" 
d="M176 263v-201h61v-62h-184v62h61v201h62zM176 314h-62v163h-61v63h184v-63h-61v-163zM82 628h-42q0 31 18 51.5t48 20.5q21 0 43 -13.5t35 -13.5q25 0 25 27h42q0 -31 -18 -51.5t-47 -20.5q-21 0 -43 14t-33 14q-28 0 -28 -28z" />
    <glyph glyph-name="Imacron" unicode="&#x12a;" horiz-adv-x="271" 
d="M102 347h66v-281h57v-66h-180v66h57v281zM168 398h-66v236h-57v66h180v-66h-57v-236zM40 814h191v-51h-191v51z" />
    <glyph glyph-name="imacron" unicode="&#x12b;" horiz-adv-x="271" 
d="M166 263v-201h61v-62h-184v62h61v201h62zM166 314h-62v163h-61v63h184v-63h-61v-163zM40 700h191v-51h-191v51z" />
    <glyph glyph-name="Ibreve" unicode="&#x12c;" horiz-adv-x="280" 
d="M107 347h66v-281h57v-66h-180v66h57v281zM173 398h-66v236h-57v66h180v-66h-57v-236zM40 828h49v-11q0 -8 6 -14.5t14 -6.5h62q8 0 14 6.5t6 14.5v11h49v-8q0 -30 -19 -50t-49 -20h-64q-30 0 -49 20t-19 50v8z" />
    <glyph glyph-name="ibreve" unicode="&#x12d;" horiz-adv-x="280" 
d="M171 263v-201h61v-62h-184v62h61v201h62zM171 314h-62v163h-61v63h184v-63h-61v-163zM40 700h49v-11q0 -8 6 -14.5t14 -6.5h62q8 0 14 6.5t6 14.5v11h49v-8q0 -30 -19 -50t-49 -20h-64q-30 0 -49 20t-19 50v8z" />
    <glyph glyph-name="Iogonek" unicode="&#x12e;" horiz-adv-x="260" 
d="M126 -80q0 -15 15 -15h23v-44h-39q-23 0 -35.5 15t-12.5 36q0 42 39 88h-76v66h57v281h66v-281h57v-66h-61q-33 -41 -33 -80zM163 398h-66v236h-57v66h180v-66h-57v-236z" />
    <glyph glyph-name="iogonek" unicode="&#x12f;" horiz-adv-x="264" 
d="M131 -80q0 -15 15 -15h23v-44h-39q-23 0 -35.5 15t-12.5 36q0 43 38 88h-80v62h61v201h62v-201h61v-62h-60q-33 -41 -33 -80zM163 314h-62v163h-61v63h184v-63h-61v-163z" />
    <glyph glyph-name="Idotaccent" unicode="&#x130;" horiz-adv-x="260" 
d="M97 347h66v-281h57v-66h-180v66h57v281zM163 398h-66v236h-57v66h180v-66h-57v-236zM100 821h61v-71h-61v71z" />
    <glyph glyph-name="dotlessi" unicode="&#x131;" horiz-adv-x="264" 
d="M102 700h61v-71h-61v71zM163 263v-201h61v-62h-184v62h61v201h62zM163 314h-62v163h-61v63h184v-63h-61v-163z" />
    <glyph glyph-name="Jcircumflex" unicode="&#x134;" horiz-adv-x="318" 
d="M190 347h66v-253q0 -39 -27.5 -66.5t-66.5 -27.5h-43q-38 0 -66 27.5t-28 66.5v107h66v-107q0 -12 8.5 -20t19.5 -8h43q12 0 20 8t8 20v253zM190 398v236h-94v66h160v-302h-66zM116 750l-30 38l90 56h13l89 -56l-30 -38l-66 42z" />
    <glyph glyph-name="jcircumflex" unicode="&#x135;" horiz-adv-x="323" 
d="M261 540v-226h-62v163h-96v63h158zM199 263h62v-170q0 -38 -27.5 -65.5t-65.5 -27.5h-49q-39 0 -66.5 27.5t-27.5 65.5v85h63v-85q0 -13 9 -22t22 -9h49q13 0 22 9t9 22v170zM121 606l-30 38l90 56h13l89 -56l-30 -38l-66 42z" />
    <glyph glyph-name="Kcommaaccent" unicode="&#x136;" horiz-adv-x="304" 
d="M142 296h68l78 -296h-68zM197 347h-91v-347h-66v408h91l90 292h68l-103 -312zM40 459v241h66v-241h-66zM187 -32h-60v-61h22l-22 -62h23l37 62v61z" />
    <glyph glyph-name="kcommaaccent" unicode="&#x137;" horiz-adv-x="312" 
d="M102 371h-62v169h62v-169zM196 258h-94v-258h-62v320h90l100 220h67l-113 -252zM230 0l-82 207h67l81 -207h-66zM132 -32h60v-61l-37 -62h-23l22 62h-22v61z" />
    <glyph glyph-name="kgreenlandic" unicode="&#x138;" horiz-adv-x="312" 
d="M102 371h-62v169h62v-169zM196 258h-94v-258h-62v320h90l100 220h67l-113 -252zM230 0l-82 207h67l81 -207h-66z" />
    <glyph glyph-name="Lacute" unicode="&#x139;" horiz-adv-x="260" 
d="M40 66h190v-66h-190v66zM40 117v583h66v-583h-66zM136 854l30 -38l-89 -66l-30 38z" />
    <glyph glyph-name="lacute" unicode="&#x13a;" horiz-adv-x="265" 
d="M103 113v427h-63v-427h63zM235 62h-195v-62h195v62zM133 700l30 -38l-89 -66l-30 38z" />
    <glyph glyph-name="Lcommaaccent" unicode="&#x13b;" horiz-adv-x="260" 
d="M40 66h190v-66h-190v66zM40 117v583h66v-583h-66zM172 -32h-60v-61h22l-22 -62h23l37 62v61z" />
    <glyph glyph-name="lcommaaccent" unicode="&#x13c;" horiz-adv-x="265" 
d="M103 540v-427h-63v427h63zM40 62h195v-62h-195v62zM113 -32h60v-61l-37 -62h-23l22 62h-22v61z" />
    <glyph glyph-name="Lcaron" unicode="&#x13d;" horiz-adv-x="260" 
d="M40 66h190v-66h-190v66zM40 117v583h66v-583h-66zM230 700h-60v-61h22l-22 -62h23l37 62v61z" />
    <glyph glyph-name="lcaron" unicode="&#x13e;" horiz-adv-x="265" 
d="M103 540v-427h-63v427h63zM40 62h195v-62h-195v62zM175 540h60v-61l-37 -62h-23l22 62h-22v61z" />
    <glyph glyph-name="Ldot" unicode="&#x13f;" horiz-adv-x="260" 
d="M40 66h190v-66h-190v66zM40 117v583h66v-583h-66zM230 540h-60v-71h60v71z" />
    <glyph glyph-name="ldot" unicode="&#x140;" horiz-adv-x="265" 
d="M103 540v-427h-63v427h63zM40 62h195v-62h-195v62zM175 410h60v-71h-60v71z" />
    <glyph glyph-name="Lslash" unicode="&#x141;" horiz-adv-x="303" 
d="M42 326l-22 46l63 30v298h66v-266l48 23l22 -46l-70 -34v-260h-66v228zM83 66h190v-66h-190v66z" />
    <glyph glyph-name="lslash" unicode="&#x142;" horiz-adv-x="310" 
d="M148 276v-163h-63v132l-43 -20l-22 46l65 31v238h63v-208l49 24l22 -46zM85 62h195v-62h-195v62z" />
    <glyph glyph-name="Nacute" unicode="&#x143;" horiz-adv-x="362" 
d="M216 854l30 -38l-89 -66l-30 38zM106 360v-360h-66v573h15zM283 66h39v-66h-85l-158 634h-39v66h85zM256 340v360h66v-573h-15z" />
    <glyph glyph-name="nacute" unicode="&#x144;" horiz-adv-x="368" 
d="M224 700l30 -38l-89 -66l-30 38zM328 63h-44l-156 477h-88v-63h44l155 -477h89v63zM328 114h-17l-46 141v285h63v-426zM57 426h-17v-426h63v283z" />
    <glyph glyph-name="Ncommaaccent" unicode="&#x145;" horiz-adv-x="362" 
d="M216 -32h-60v-61h22l-22 -62h23l37 62v61zM106 360v-360h-66v573h15zM283 66h39v-66h-85l-158 634h-39v66h85zM256 340v360h66v-573h-15z" />
    <glyph glyph-name="ncommaaccent" unicode="&#x146;" horiz-adv-x="368" 
d="M164 -32h60v-61l-37 -62h-23l22 62h-22v61zM284 63h44v-63h-89l-155 477h-44v63h88zM328 114h-17l-46 141v285h63v-426zM40 426h17l46 -143v-283h-63v426z" />
    <glyph glyph-name="Ncaron" unicode="&#x147;" horiz-adv-x="362" 
d="M90 806l30 38l66 -42l66 42l30 -38l-89 -56h-13zM106 360v-360h-66v573h15zM283 66h39v-66h-85l-158 634h-39v66h85zM256 340v360h66v-573h-15z" />
    <glyph glyph-name="ncaron" unicode="&#x148;" horiz-adv-x="368" 
d="M98 662l30 38l66 -42l66 42l30 -38l-89 -56h-13zM328 63h-44l-156 477h-88v-63h44l155 -477h89v63zM328 114h-17l-46 141v285h63v-426zM57 426h-17v-426h63v283z" />
    <glyph glyph-name="napostrophe" unicode="&#x149;" horiz-adv-x="408" 
d="M40 700h60v-61l-37 -62h-23l22 62h-22v61zM324 63h44v-63h-89l-155 477h-44v63h88zM368 114h-17l-46 141v285h63v-426zM80 426h17l46 -143v-283h-63v426z" />
    <glyph glyph-name="Eng" unicode="&#x14a;" horiz-adv-x="362" 
d="M51 573l55 -183v-390h-66v573h11zM322 160v-221q0 -39 -27.5 -66.5t-66.5 -27.5h-43v66h43q12 0 20 8t8 20v61l-182 634h-34v66h83l154 -540h45zM322 221h-17l-49 173v306h66v-479z" />
    <glyph glyph-name="eng" unicode="&#x14b;" horiz-adv-x="368" 
d="M328 217h-20l-42 98v225h62v-323zM282 166h46v-174q0 -38 -27.5 -65.5t-65.5 -27.5h-49v62h49q13 0 22 9t9 22v33l-187 452h-39v63h82zM40 426h15l48 -108v-318h-63v426z" />
    <glyph glyph-name="Omacron" unicode="&#x14c;" horiz-adv-x="334" 
d="M142 634h-8q-11 0 -19.5 -8.5t-8.5 -19.5v-512q0 -12 8.5 -20t19.5 -8h8v-66h-8q-38 0 -66 27.5t-28 66.5v512q0 39 28 66.5t66 27.5h8v-66zM193 634v66h7q39 0 66.5 -27.5t27.5 -66.5v-512q0 -39 -27.5 -66.5t-66.5 -27.5h-7v66h7q11 0 19.5 8t8.5 20v512
q0 11 -8.5 19.5t-19.5 8.5h-7zM72 814h191v-51h-191v51z" />
    <glyph glyph-name="omacron" unicode="&#x14d;" horiz-adv-x="340" 
d="M206 477h-10v63h10q38 0 66 -27.5t28 -66.5v-353q0 -38 -27.5 -65.5t-66.5 -27.5h-10v62h10q13 0 22 9t9 22v353q0 13 -9 22t-22 9zM145 540v-63h-11q-13 0 -22 -9t-9 -22v-353q0 -13 9 -22t22 -9h11v-62h-11q-39 0 -66.5 27.5t-27.5 65.5v353q0 38 27.5 66t66.5 28h11z
M75 700h191v-51h-191v51z" />
    <glyph glyph-name="Obreve" unicode="&#x14e;" horiz-adv-x="334" 
d="M142 634h-8q-11 0 -19.5 -8.5t-8.5 -19.5v-512q0 -12 8.5 -20t19.5 -8h8v-66h-8q-38 0 -66 27.5t-28 66.5v512q0 39 28 66.5t66 27.5h8v-66zM193 634v66h7q39 0 66.5 -27.5t27.5 -66.5v-512q0 -39 -27.5 -66.5t-66.5 -27.5h-7v66h7q11 0 19.5 8t8.5 20v512
q0 11 -8.5 19.5t-19.5 8.5h-7zM67 828h49v-11q0 -8 6 -14.5t14 -6.5h62q8 0 14 6.5t6 14.5v11h49v-8q0 -30 -19 -50t-49 -20h-64q-30 0 -49 20t-19 50v8z" />
    <glyph glyph-name="obreve" unicode="&#x14f;" horiz-adv-x="340" 
d="M206 477h-10v63h10q38 0 66 -27.5t28 -66.5v-353q0 -38 -27.5 -65.5t-66.5 -27.5h-10v62h10q13 0 22 9t9 22v353q0 13 -9 22t-22 9zM145 540v-63h-11q-13 0 -22 -9t-9 -22v-353q0 -13 9 -22t22 -9h11v-62h-11q-39 0 -66.5 27.5t-27.5 65.5v353q0 38 27.5 66t66.5 28h11z
M70 700h49v-11q0 -8 6 -14.5t14 -6.5h62q8 0 14 6.5t6 14.5v11h49v-8q0 -30 -19 -50t-49 -20h-64q-30 0 -49 20t-19 50v8z" />
    <glyph glyph-name="Ohungarumlaut" unicode="&#x150;" horiz-adv-x="334" 
d="M142 634h-8q-11 0 -19.5 -8.5t-8.5 -19.5v-512q0 -12 8.5 -20t19.5 -8h8v-66h-8q-38 0 -66 27.5t-28 66.5v512q0 39 28 66.5t66 27.5h8v-66zM193 634v66h7q39 0 66.5 -27.5t27.5 -66.5v-512q0 -39 -27.5 -66.5t-66.5 -27.5h-7v66h7q11 0 19.5 8t8.5 20v512
q0 11 -8.5 19.5t-19.5 8.5h-7zM138 854l30 -38l-89 -66l-30 38zM256 854l30 -38l-89 -66l-30 38z" />
    <glyph glyph-name="ohungarumlaut" unicode="&#x151;" horiz-adv-x="340" 
d="M196 477h10q13 0 22 -9t9 -22v-353q0 -13 -9 -22t-22 -9h-10v-62h10q39 0 66.5 27.5t27.5 65.5v353q0 39 -28 66.5t-66 27.5h-10v-63zM145 477v63h-11q-39 0 -66.5 -28t-27.5 -66v-353q0 -38 27.5 -65.5t66.5 -27.5h11v62h-11q-13 0 -22 9t-9 22v353q0 13 9 22t22 9h11z
M141 700l30 -38l-89 -66l-30 38zM259 700l30 -38l-89 -66l-30 38z" />
    <glyph glyph-name="OE" unicode="&#x152;" horiz-adv-x="449" 
d="M295 296v-230h124v-66h-285q-38 0 -66 27.5t-28 66.5v512q0 39 28 66.5t66 27.5h285v-66h-285q-11 0 -19.5 -8.5t-8.5 -19.5v-512q0 -12 8.5 -20t19.5 -8h94v230h67zM404 347h-176v236h67v-175h109v-61z" />
    <glyph glyph-name="oe" unicode="&#x153;" horiz-adv-x="461" 
d="M299 258v-145h-62v313h62v-106h117v-62h-117zM134 62h297v-62h-297q-39 0 -66.5 27.5t-27.5 65.5v353q0 38 27.5 66t66.5 28h297v-63h-297q-13 0 -22 -9t-9 -22v-353q0 -13 9 -22t22 -9z" />
    <glyph glyph-name="Racute" unicode="&#x154;" horiz-adv-x="323" 
d="M157 408h4q56 0 56 61v137q0 11 -8.5 19.5t-19.5 8.5h-149v66h149q38 0 66 -28t28 -66v-138q0 -62 -59 -90q29 -7 44 -27.5t15 -48.5v-302h-66v297q0 50 -50 50h-10v61zM106 583v-583h-66v583h66zM190 854l30 -38l-89 -66l-30 38z" />
    <glyph glyph-name="racute" unicode="&#x155;" horiz-adv-x="328" 
d="M147 258h35q19 0 31.5 -13t12.5 -33v-212h62v218q0 23 -13.5 43t-35.5 28q22 12 35.5 33t13.5 43v81q0 39 -27.5 66.5t-65.5 27.5h-155v-63h155q12 0 21.5 -9t9.5 -22v-79q0 -18 -14 -32.5t-33 -14.5h-32v-62zM103 0v426h-63v-426h63zM194 700l30 -38l-89 -66l-30 38z
" />
    <glyph glyph-name="Rcommaaccent" unicode="&#x156;" horiz-adv-x="323" 
d="M157 408h4q56 0 56 61v137q0 11 -8.5 19.5t-19.5 8.5h-149v66h149q38 0 66 -28t28 -66v-138q0 -62 -59 -90q29 -7 44 -27.5t15 -48.5v-302h-66v297q0 50 -50 50h-10v61zM106 583v-583h-66v583h66zM191 -32h-60v-61h22l-22 -62h23l37 62v61z" />
    <glyph glyph-name="rcommaaccent" unicode="&#x157;" horiz-adv-x="328" 
d="M182 258h-35v62h32q19 0 33 14.5t14 32.5v79q0 13 -9.5 22t-21.5 9h-155v63h155q38 0 65.5 -27.5t27.5 -66.5v-81q0 -22 -13.5 -43t-35.5 -33q22 -8 35.5 -28t13.5 -43v-218h-62v212q0 20 -12.5 33t-31.5 13zM103 426v-426h-63v426h63zM134 -32h60v-61l-37 -62h-23l22 62
h-22v61z" />
    <glyph glyph-name="Rcaron" unicode="&#x158;" horiz-adv-x="323" 
d="M157 408h4q56 0 56 61v137q0 11 -8.5 19.5t-19.5 8.5h-149v66h149q38 0 66 -28t28 -66v-138q0 -62 -59 -90q29 -7 44 -27.5t15 -48.5v-302h-66v297q0 50 -50 50h-10v61zM106 583v-583h-66v583h66zM45 806l30 38l66 -42l66 42l30 -38l-89 -56h-13z" />
    <glyph glyph-name="rcaron" unicode="&#x159;" horiz-adv-x="328" 
d="M147 258h35q19 0 31.5 -13t12.5 -33v-212h62v218q0 23 -13.5 43t-35.5 28q22 12 35.5 33t13.5 43v81q0 39 -27.5 66.5t-65.5 27.5h-155v-63h155q12 0 21.5 -9t9.5 -22v-79q0 -18 -14 -32.5t-33 -14.5h-32v-62zM103 0v426h-63v-426h63zM58 662l30 38l66 -42l66 42l30 -38
l-89 -56h-13z" />
    <glyph glyph-name="Sacute" unicode="&#x15a;" horiz-adv-x="314" 
d="M132 452v-105l-59 72q-33 41 -33 106v81q0 38 28 66t66 28h46q38 0 66 -27.5t28 -66.5v-78h-66v78q0 11 -8.5 19.5t-19.5 8.5h-46q-11 0 -19.5 -8.5t-8.5 -19.5v-81q0 -41 21 -67zM183 388l57 -69q34 -41 34 -106v-119q0 -39 -28 -66.5t-66 -27.5h-46q-39 0 -66.5 27.5
t-27.5 66.5v107h66v-107q0 -12 8.5 -20t19.5 -8h46q11 0 19.5 8t8.5 20v119q0 42 -21 67l-4 5v103zM187 854l30 -38l-89 -66l-30 38z" />
    <glyph glyph-name="sacute" unicode="&#x15b;" horiz-adv-x="319" 
d="M134 335v-92l-52 52q-42 41 -42 97v54q0 39 28 66.5t66 27.5h51q39 0 66.5 -27.5t27.5 -66.5v-52h-62v52q0 13 -9.5 22t-22.5 9h-51q-13 0 -22 -9t-9 -22v-49q0 -31 24 -55zM185 285l59 -58q35 -35 35 -87v-47q0 -38 -27.5 -65.5t-66.5 -27.5h-51q-38 0 -66 27.5
t-28 65.5v85h63v-85q0 -13 9 -22t22 -9h51q13 0 22.5 9t9.5 22v42q0 26 -21 47l-11 11v92zM189 700l30 -38l-89 -66l-30 38z" />
    <glyph glyph-name="Scircumflex" unicode="&#x15c;" horiz-adv-x="314" 
d="M132 452v-105l-59 72q-33 41 -33 106v81q0 38 28 66t66 28h46q38 0 66 -27.5t28 -66.5v-78h-66v78q0 11 -8.5 19.5t-19.5 8.5h-46q-11 0 -19.5 -8.5t-8.5 -19.5v-81q0 -41 21 -67zM183 388l57 -69q34 -41 34 -106v-119q0 -39 -28 -66.5t-66 -27.5h-46q-39 0 -66.5 27.5
t-27.5 66.5v107h66v-107q0 -12 8.5 -20t19.5 -8h46q11 0 19.5 8t8.5 20v119q0 42 -21 67l-4 5v103zM91 750l-30 38l90 56h13l89 -56l-30 -38l-66 42z" />
    <glyph glyph-name="scircumflex" unicode="&#x15d;" horiz-adv-x="319" 
d="M134 335v-92l-52 52q-42 41 -42 97v54q0 39 28 66.5t66 27.5h51q39 0 66.5 -27.5t27.5 -66.5v-52h-62v52q0 13 -9.5 22t-22.5 9h-51q-13 0 -22 -9t-9 -22v-49q0 -31 24 -55zM185 285l59 -58q35 -35 35 -87v-47q0 -38 -27.5 -65.5t-66.5 -27.5h-51q-38 0 -66 27.5
t-28 65.5v85h63v-85q0 -13 9 -22t22 -9h51q13 0 22.5 9t9.5 22v42q0 26 -21 47l-11 11v92zM93 606l-30 38l90 56h13l89 -56l-30 -38l-66 42z" />
    <glyph glyph-name="Scedilla" unicode="&#x15e;" horiz-adv-x="314" 
d="M183 388l57 -69q34 -41 34 -106v-119q0 -39 -28 -66.5t-66 -27.5h-13v-33h4q23 0 40.5 -16.5t17.5 -40.5v-6q0 -23 -17 -41t-41 -18h-48v45h48q4 0 8 4t4 9v8q0 12 -12 12h-41v77q-38 2 -64 29t-26 65v107h66v-107q0 -12 8.5 -20t19.5 -8h46q11 0 19.5 8t8.5 20v119
q0 42 -21 67l-4 5v103zM132 452v-105l-59 72q-33 41 -33 106v81q0 38 28 66t66 28h46q38 0 66 -27.5t28 -66.5v-78h-66v78q0 11 -8.5 19.5t-19.5 8.5h-46q-11 0 -19.5 -8.5t-8.5 -19.5v-81q0 -41 21 -67z" />
    <glyph glyph-name="scedilla" unicode="&#x15f;" horiz-adv-x="319" 
d="M185 285l59 -58q35 -35 35 -87v-47q0 -38 -27.5 -65.5t-66.5 -27.5h-16v-33h4q23 0 40.5 -16.5t17.5 -40.5v-6q0 -23 -17 -41t-41 -18h-48v45h48q4 0 8 4t4 9v8q0 12 -12 12h-41v77q-38 1 -65 28t-27 65v85h63v-85q0 -13 9 -22t22 -9h51q13 0 22.5 9t9.5 22v42
q0 26 -21 47l-11 11v92zM134 335v-92l-52 52q-42 41 -42 97v54q0 39 28 66.5t66 27.5h51q39 0 66.5 -27.5t27.5 -66.5v-52h-62v52q0 13 -9.5 22t-22.5 9h-51q-13 0 -22 -9t-9 -22v-49q0 -31 24 -55z" />
    <glyph glyph-name="Scaron" unicode="&#x160;" horiz-adv-x="314" 
d="M132 452v-105l-59 72q-33 41 -33 106v81q0 38 28 66t66 28h46q38 0 66 -27.5t28 -66.5v-78h-66v78q0 11 -8.5 19.5t-19.5 8.5h-46q-11 0 -19.5 -8.5t-8.5 -19.5v-81q0 -41 21 -67zM183 388l57 -69q34 -41 34 -106v-119q0 -39 -28 -66.5t-66 -27.5h-46q-39 0 -66.5 27.5
t-27.5 66.5v107h66v-107q0 -12 8.5 -20t19.5 -8h46q11 0 19.5 8t8.5 20v119q0 42 -21 67l-4 5v103zM61 806l30 38l66 -42l66 42l30 -38l-89 -56h-13z" />
    <glyph glyph-name="scaron" unicode="&#x161;" horiz-adv-x="319" 
d="M134 335v-92l-52 52q-42 41 -42 97v54q0 39 28 66.5t66 27.5h51q39 0 66.5 -27.5t27.5 -66.5v-52h-62v52q0 13 -9.5 22t-22.5 9h-51q-13 0 -22 -9t-9 -22v-49q0 -31 24 -55zM185 285l59 -58q35 -35 35 -87v-47q0 -38 -27.5 -65.5t-66.5 -27.5h-51q-38 0 -66 27.5
t-28 65.5v85h63v-85q0 -13 9 -22t22 -9h51q13 0 22.5 9t9.5 22v42q0 26 -21 47l-11 11v92zM63 662l30 38l66 -42l66 42l30 -38l-89 -56h-13z" />
    <glyph glyph-name="Tcommaaccent" unicode="&#x162;" horiz-adv-x="278" 
d="M106 583h66v-583h-66v583zM253 634h-228v66h228v-66zM169 -32h-60v-61h22l-22 -62h23l37 62v61z" />
    <glyph glyph-name="tcommaaccent" unicode="&#x163;" horiz-adv-x="283" 
d="M110 426h62v-426h-62v426zM258 477h-233v63h233v-63zM111 -32h60v-61l-37 -62h-23l22 62h-22v61z" />
    <glyph glyph-name="Tcaron" unicode="&#x164;" horiz-adv-x="278" 
d="M106 583h66v-583h-66v583zM253 634h-228v66h228v-66zM43 806l30 38l66 -42l66 42l30 -38l-89 -56h-13z" />
    <glyph glyph-name="tcaron" unicode="&#x165;" horiz-adv-x="283" 
d="M172 426h-62v-426h62v426zM25 477h233v63h-233v-63zM45 662l30 38l66 -42l66 42l30 -38l-89 -56h-13z" />
    <glyph glyph-name="Tbar" unicode="&#x166;" horiz-adv-x="278" 
d="M106 583h66v-583h-66v583zM253 634h-228v66h228v-66zM44 814h191v-51h-191v51z" />
    <glyph glyph-name="tbar" unicode="&#x167;" horiz-adv-x="283" 
d="M110 426h62v-426h-62v426zM258 477h-233v63h233v-63zM46 700h191v-51h-191v51z" />
    <glyph glyph-name="Utilde" unicode="&#x168;" 
d="M193 66h8q11 0 19.5 8t8.5 20v606h66v-606q0 -39 -28 -66.5t-66 -27.5h-8v66zM142 66v-66h-8q-39 0 -66.5 27.5t-27.5 66.5v606h66v-606q0 -12 8 -20t20 -8h8zM104 750h-42q0 31 18 51.5t48 20.5q21 0 43 -13.5t35 -13.5q25 0 25 27h42q0 -31 -18 -51.5t-47 -20.5
q-21 0 -43 14t-33 14q-28 0 -28 -28z" />
    <glyph glyph-name="utilde" unicode="&#x169;" horiz-adv-x="341" 
d="M146 0h-12q-39 0 -66.5 27.5t-27.5 65.5v447h62v-447q0 -13 9.5 -22t22.5 -9h12v-62zM197 0v62h10q13 0 22.5 9t9.5 22v447h62v-447q0 -38 -27.5 -65.5t-66.5 -27.5h-10zM107 628h-42q0 31 18 51.5t48 20.5q21 0 43 -13.5t35 -13.5q25 0 25 27h42q0 -31 -18 -51.5
t-47 -20.5q-21 0 -43 14t-33 14q-28 0 -28 -28z" />
    <glyph glyph-name="Umacron" unicode="&#x16a;" 
d="M193 66h8q11 0 19.5 8t8.5 20v606h66v-606q0 -39 -28 -66.5t-66 -27.5h-8v66zM142 66v-66h-8q-39 0 -66.5 27.5t-27.5 66.5v606h66v-606q0 -12 8 -20t20 -8h8zM72 814h191v-51h-191v51z" />
    <glyph glyph-name="umacron" unicode="&#x16b;" horiz-adv-x="341" 
d="M146 0h-12q-39 0 -66.5 27.5t-27.5 65.5v447h62v-447q0 -13 9.5 -22t22.5 -9h12v-62zM197 0v62h10q13 0 22.5 9t9.5 22v447h62v-447q0 -38 -27.5 -65.5t-66.5 -27.5h-10zM75 700h191v-51h-191v51z" />
    <glyph glyph-name="Ubreve" unicode="&#x16c;" 
d="M193 66h8q11 0 19.5 8t8.5 20v606h66v-606q0 -39 -28 -66.5t-66 -27.5h-8v66zM142 66v-66h-8q-39 0 -66.5 27.5t-27.5 66.5v606h66v-606q0 -12 8 -20t20 -8h8zM67 828h49v-11q0 -8 6 -14.5t14 -6.5h62q8 0 14 6.5t6 14.5v11h49v-8q0 -30 -19 -50t-49 -20h-64
q-30 0 -49 20t-19 50v8z" />
    <glyph glyph-name="ubreve" unicode="&#x16d;" horiz-adv-x="341" 
d="M146 0h-12q-39 0 -66.5 27.5t-27.5 65.5v447h62v-447q0 -13 9.5 -22t22.5 -9h12v-62zM197 0v62h10q13 0 22.5 9t9.5 22v447h62v-447q0 -38 -27.5 -65.5t-66.5 -27.5h-10zM70 700h49v-11q0 -8 6 -14.5t14 -6.5h62q8 0 14 6.5t6 14.5v11h49v-8q0 -30 -19 -50t-49 -20h-64
q-30 0 -49 20t-19 50v8z" />
    <glyph glyph-name="Uring" unicode="&#x16e;" 
d="M193 66h8q11 0 19.5 8t8.5 20v606h66v-606q0 -39 -28 -66.5t-66 -27.5h-8v66zM142 66v-66h-8q-39 0 -66.5 27.5t-27.5 66.5v606h66v-606q0 -12 8 -20t20 -8h8zM189 836v41q22 -7 35.5 -25.5t13.5 -42.5q0 -30 -20.5 -50.5t-50.5 -20.5t-50.5 20.5t-20.5 50.5
q0 25 13.5 43t36.5 25v-40q-14 -11 -14 -28q0 -14 10.5 -24.5t24.5 -10.5t24.5 10.5t10.5 24.5q0 17 -13 27z" />
    <glyph glyph-name="uring" unicode="&#x16f;" horiz-adv-x="341" 
d="M146 0h-12q-39 0 -66.5 27.5t-27.5 65.5v447h62v-447q0 -13 9.5 -22t22.5 -9h12v-62zM197 0v62h10q13 0 22.5 9t9.5 22v447h62v-447q0 -38 -27.5 -65.5t-66.5 -27.5h-10zM192 676v41q22 -7 35.5 -25.5t13.5 -42.5q0 -30 -20.5 -50.5t-50.5 -20.5t-50.5 20.5t-20.5 50.5
q0 25 13.5 43t36.5 25v-40q-14 -11 -14 -28q0 -14 10.5 -24.5t24.5 -10.5t24.5 10.5t10.5 24.5q0 17 -13 27z" />
    <glyph glyph-name="Uhungarumlaut" unicode="&#x170;" 
d="M193 66h8q11 0 19.5 8t8.5 20v606h66v-606q0 -39 -28 -66.5t-66 -27.5h-8v66zM142 66v-66h-8q-39 0 -66.5 27.5t-27.5 66.5v606h66v-606q0 -12 8 -20t20 -8h8zM138 854l30 -38l-89 -66l-30 38zM256 854l30 -38l-89 -66l-30 38z" />
    <glyph glyph-name="uhungarumlaut" unicode="&#x171;" horiz-adv-x="341" 
d="M146 0h-12q-39 0 -66.5 27.5t-27.5 65.5v447h62v-447q0 -13 9.5 -22t22.5 -9h12v-62zM197 0v62h10q13 0 22.5 9t9.5 22v447h62v-447q0 -38 -27.5 -65.5t-66.5 -27.5h-10zM141 700l30 -38l-89 -66l-30 38zM259 700l30 -38l-89 -66l-30 38z" />
    <glyph glyph-name="Uogonek" unicode="&#x172;" 
d="M203 -80q0 -15 15 -15h23v-44h-39q-23 0 -35.5 15t-12.5 36q0 42 39 88v66h8q11 0 19.5 8t8.5 20v606h66v-606q0 -55 -50 -83q-42 -51 -42 -91zM142 66v-66h-8q-39 0 -66.5 27.5t-27.5 66.5v606h66v-606q0 -12 8 -20t20 -8h8z" />
    <glyph glyph-name="uogonek" unicode="&#x173;" horiz-adv-x="341" 
d="M207 -80q0 -15 15 -15h23v-44h-39q-23 0 -35.5 15t-12.5 36q0 42 39 88v62h10q13 0 22.5 9t9.5 22v447h62v-447q0 -27 -15 -50t-39 -34q-40 -49 -40 -89zM146 0h-12q-39 0 -66.5 27.5t-27.5 65.5v447h62v-447q0 -13 9.5 -22t22.5 -9h12v-62z" />
    <glyph glyph-name="Wcircumflex" unicode="&#x174;" horiz-adv-x="536" 
d="M366 66h58l-10 -66h-96l-48 411h-4l-49 -411h-96l-10 66h58l38 331l28 165l-19 138h105l-20 -138l28 -165zM412 117l-18 167l55 416h67l-85 -583h-19zM142 282l-19 -165h-19l-84 583h66zM202 750l-30 38l90 56h13l89 -56l-30 -38l-66 42z" />
    <glyph glyph-name="wcircumflex" unicode="&#x175;" horiz-adv-x="547" 
d="M139 113h-37l-82 427h63l68 -361zM527 540l-83 -427h-36l-13 66l68 361h64zM366 62h68l-12 -62h-105l-44 258l-44 -258h-105l-12 62h68l61 333l-28 145h119l-27 -145zM207 606l-30 38l90 56h13l89 -56l-30 -38l-66 42z" />
    <glyph glyph-name="Ycircumflex" unicode="&#x176;" horiz-adv-x="313" 
d="M122 306l113 394h68l-115 -380v-254h57v-66h-180v66h57v240zM130 513l-32 -111l-88 298h68zM90 750l-30 38l90 56h13l89 -56l-30 -38l-66 42z" />
    <glyph glyph-name="ycircumflex" unicode="&#x177;" horiz-adv-x="321" 
d="M193 207v-145h61v-62h-184v62h60v145h63zM204 258h-85l-109 282h67l81 -220h7l79 220h67zM94 606l-30 38l90 56h13l89 -56l-30 -38l-66 42z" />
    <glyph glyph-name="Ydieresis" unicode="&#x178;" horiz-adv-x="313" 
d="M122 306l113 394h68l-115 -380v-254h57v-66h-180v66h57v240zM130 513l-32 -111l-88 298h68zM183 821h60v-71h-60v71zM66 821h61v-71h-61v71z" />
    <glyph glyph-name="Zacute" unicode="&#x179;" horiz-adv-x="288" 
d="M37 66h210v-66h-227zM50 117l117 466h71l-117 -466h-71zM251 634h-209v66h226zM174 854l30 -38l-89 -66l-30 38z" />
    <glyph glyph-name="zacute" unicode="&#x17a;" horiz-adv-x="275" 
d="M32 477h204l19 63h-223v-63zM152 426l-97 -313h68l97 313h-68zM243 62h-204l-19 -62h223v62zM187 700l30 -38l-89 -66l-30 38z" />
    <glyph glyph-name="Zdotaccent" unicode="&#x17b;" horiz-adv-x="288" 
d="M37 66h210v-66h-227zM50 117l117 466h71l-117 -466h-71zM251 634h-209v66h226zM124 821h61v-71h-61v71z" />
    <glyph glyph-name="zdotaccent" unicode="&#x17c;" horiz-adv-x="275" 
d="M236 477h-204v63h223zM55 113l97 313h68l-97 -313h-68zM39 62h204v-62h-223zM117 700h61v-71h-61v71z" />
    <glyph glyph-name="Zcaron" unicode="&#x17d;" horiz-adv-x="288" 
d="M37 66h210v-66h-227zM50 117l117 466h71l-117 -466h-71zM251 634h-209v66h226zM48 806l30 38l66 -42l66 42l30 -38l-89 -56h-13z" />
    <glyph glyph-name="zcaron" unicode="&#x17e;" horiz-adv-x="275" 
d="M32 477h204l19 63h-223v-63zM152 426l-97 -313h68l97 313h-68zM243 62h-204l-19 -62h223v62zM41 662l30 38l66 -42l66 42l30 -38l-89 -56h-13z" />
    <glyph glyph-name="longs" unicode="&#x17f;" horiz-adv-x="319" 
d="M134 335v-92l-52 52q-42 41 -42 97v54q0 39 28 66.5t66 27.5h51q39 0 66.5 -27.5t27.5 -66.5v-52h-62v52q0 13 -9.5 22t-22.5 9h-51q-13 0 -22 -9t-9 -22v-49q0 -31 24 -55zM185 285l59 -58q35 -35 35 -87v-47q0 -38 -27.5 -65.5t-66.5 -27.5h-51q-38 0 -66 27.5
t-28 65.5v85h63v-85q0 -13 9 -22t22 -9h51q13 0 22.5 9t9.5 22v42q0 26 -21 47l-11 11v92z" />
    <glyph glyph-name="florin" unicode="&#x192;" horiz-adv-x="280" 
d="M240 487h-177l3 53h51l4 69q0 37 26.5 64t64.5 27h38l-3 -60h-35q-12 0 -21.5 -9t-9.5 -22l-4 -69h66zM111 436h60l-28 -499q-2 -38 -27.5 -64.5t-63.5 -26.5h-22l4 61h18q13 0 21.5 8.5t9.5 21.5z" />
    <glyph glyph-name="AEacute" unicode="&#x1fc;" horiz-adv-x="479" 
d="M325 150v-84h124v-66h-191v150h67zM325 201h-194l-44 -201h-67l56 262h182v321h67v-175h109v-61h-109v-146zM449 634h-227l-68 -321h-67l83 387h279v-66zM330 854l30 -38l-89 -66l-30 38z" />
    <glyph glyph-name="aeacute" unicode="&#x1fd;" horiz-adv-x="484" 
d="M222 477h232v63h-277l-72 -249h63zM322 426h-62v-186h-170l-70 -240h65l52 178h185v80h117v62h-117v106zM322 127h-62v-127h194v62h-132v65zM334 700l30 -38l-89 -66l-30 38z" />
    <glyph glyph-name="Oslashacute" unicode="&#x1fe;" horiz-adv-x="423" 
d="M241 854l30 -38l-89 -66l-30 38zM237 0v66h6q11 0 19.5 8t8.5 20v209l18 171l-140 -333v-47q0 -12 8.5 -20t19.5 -8h9v-66h-9q-44 0 -73 34l-23 -53l-41 19l43 102v504q0 39 28 66.5t66 27.5h9v-66h-9q-11 0 -19.5 -8.5t-8.5 -19.5v-202l-14 -178l136 325v55
q0 11 -8.5 19.5t-19.5 8.5h-6v66h6q45 0 74 -37l26 56l40 -19l-46 -110v-496q0 -39 -27.5 -66.5t-66.5 -27.5h-6z" />
    <glyph glyph-name="oslashacute" unicode="&#x1ff;" horiz-adv-x="412" 
d="M237 700l30 -38l-89 -66l-30 38zM179 540h-11q-39 0 -66.5 -28t-27.5 -66v-353q0 -15 2 -22l-36 -71l42 -23l24 46q25 -23 62 -23h11v62h-11q-10 0 -19 6.5t-11 16.5l150 292l-17 -186v-98q0 -13 -9 -22t-22 -9h-10v-62h10q39 0 66.5 27.5t27.5 65.5v353q0 5 -2 17l40 77
l-42 23l-26 -49q-28 26 -64 26h-10v-63h10q12 0 21 -8.5t10 -20.5l-151 -293l17 143v148q0 13 9 22t22 9h11v63z" />
    <glyph glyph-name="Adblgrave" unicode="&#x200;" horiz-adv-x="349" 
d="M164 816l30 38l89 -66l-30 -38zM46 816l30 38l89 -66l-30 -38zM240 155h67l22 -155h-66zM301 206h-185l-29 -206h-67l37 267h169l-49 368h-5l-42 -317h-66l51 382h119z" />
    <glyph glyph-name="adblgrave" unicode="&#x201;" horiz-adv-x="348" 
d="M241 128h63l24 -128h-64zM295 179h-178l-34 -179h-63l45 241h155l-44 237h-4l-34 -186h-63l46 248h106zM174 662l30 38l89 -66l-30 -38zM56 662l30 38l89 -66l-30 -38z" />
    <glyph glyph-name="uni0202" unicode="&#x202;" horiz-adv-x="349" 
d="M241 155h67l22 -155h-66zM302 206h-185l-29 -206h-67l37 267h169l-49 368h-5l-42 -317h-66l51 382h119zM109 750l-30 38l90 56h13l89 -56l-30 -38l-66 42z" />
    <glyph glyph-name="uni0203" unicode="&#x203;" horiz-adv-x="348" 
d="M241 128h63l24 -128h-64zM295 179h-178l-34 -179h-63l45 241h155l-44 237h-4l-34 -186h-63l46 248h106zM108 606l-30 38l90 56h13l89 -56l-30 -38l-66 42z" />
    <glyph glyph-name="uni0204" unicode="&#x204;" horiz-adv-x="307" 
d="M73 66h190v-66h-190v66zM139 117h-66v466h66v-175h109v-61h-109v-230zM73 634v66h191v-66h-191zM158 816l30 38l89 -66l-30 -38zM40 816l30 38l89 -66l-30 -38z" />
    <glyph glyph-name="uni0205" unicode="&#x205;" horiz-adv-x="307" 
d="M71 207h62v-145h132v-62h-194v207zM71 426h62v-106h117v-62h-179v168zM71 477v63h194v-63h-194zM158 662l30 38l89 -66l-30 -38zM40 662l30 38l89 -66l-30 -38z" />
    <glyph glyph-name="uni0206" unicode="&#x206;" horiz-adv-x="262" 
d="M41 66h190v-66h-190v66zM107 117h-66v466h66v-175h109v-61h-109v-230zM41 634v66h191v-66h-191zM70 750l-30 38l90 56h13l89 -56l-30 -38l-66 42z" />
    <glyph glyph-name="uni0207" unicode="&#x207;" horiz-adv-x="264" 
d="M40 207h62v-145h132v-62h-194v207zM40 426h62v-106h117v-62h-179v168zM40 477v63h194v-63h-194zM71 606l-30 38l90 56h13l89 -56l-30 -38l-66 42z" />
    <glyph glyph-name="uni0208" unicode="&#x208;" horiz-adv-x="317" 
d="M135 347h66v-281h57v-66h-180v66h57v281zM201 398h-66v236h-57v66h180v-66h-57v-236zM158 816l30 38l89 -66l-30 -38zM40 816l30 38l89 -66l-30 -38z" />
    <glyph glyph-name="uni0209" unicode="&#x209;" horiz-adv-x="317" 
d="M189 263v-201h61v-62h-184v62h61v201h62zM189 314h-62v163h-61v63h184v-63h-61v-163zM158 662l30 38l89 -66l-30 -38zM40 662l30 38l89 -66l-30 -38z" />
    <glyph glyph-name="uni020A" unicode="&#x20a;" horiz-adv-x="272" 
d="M103 347h66v-281h57v-66h-180v66h57v281zM169 398h-66v236h-57v66h180v-66h-57v-236zM70 750l-30 38l90 56h13l89 -56l-30 -38l-66 42z" />
    <glyph glyph-name="uni020B" unicode="&#x20b;" horiz-adv-x="272" 
d="M167 263v-201h61v-62h-184v62h61v201h62zM167 314h-62v163h-61v63h184v-63h-61v-163zM70 606l-30 38l90 56h13l89 -56l-30 -38l-66 42z" />
    <glyph glyph-name="uni020C" unicode="&#x20c;" horiz-adv-x="334" 
d="M142 634h-8q-11 0 -19.5 -8.5t-8.5 -19.5v-512q0 -12 8.5 -20t19.5 -8h8v-66h-8q-38 0 -66 27.5t-28 66.5v512q0 39 28 66.5t66 27.5h8v-66zM193 634v66h7q39 0 66.5 -27.5t27.5 -66.5v-512q0 -39 -27.5 -66.5t-66.5 -27.5h-7v66h7q11 0 19.5 8t8.5 20v512
q0 11 -8.5 19.5t-19.5 8.5h-7zM167 816l30 38l89 -66l-30 -38zM49 816l30 38l89 -66l-30 -38z" />
    <glyph glyph-name="uni020D" unicode="&#x20d;" horiz-adv-x="340" 
d="M206 477h-10v63h10q38 0 66 -27.5t28 -66.5v-353q0 -38 -27.5 -65.5t-66.5 -27.5h-10v62h10q13 0 22 9t9 22v353q0 13 -9 22t-22 9zM145 540v-63h-11q-13 0 -22 -9t-9 -22v-353q0 -13 9 -22t22 -9h11v-62h-11q-39 0 -66.5 27.5t-27.5 65.5v353q0 38 27.5 66t66.5 28h11z
M170 662l30 38l89 -66l-30 -38zM52 662l30 38l89 -66l-30 -38z" />
    <glyph glyph-name="uni020E" unicode="&#x20e;" horiz-adv-x="334" 
d="M142 634h-8q-11 0 -19.5 -8.5t-8.5 -19.5v-512q0 -12 8.5 -20t19.5 -8h8v-66h-8q-38 0 -66 27.5t-28 66.5v512q0 39 28 66.5t66 27.5h8v-66zM193 634v66h7q39 0 66.5 -27.5t27.5 -66.5v-512q0 -39 -27.5 -66.5t-66.5 -27.5h-7v66h7q11 0 19.5 8t8.5 20v512
q0 11 -8.5 19.5t-19.5 8.5h-7zM101 750l-30 38l90 56h13l89 -56l-30 -38l-66 42z" />
    <glyph glyph-name="uni020F" unicode="&#x20f;" horiz-adv-x="340" 
d="M206 477h-10v63h10q38 0 66 -27.5t28 -66.5v-353q0 -38 -27.5 -65.5t-66.5 -27.5h-10v62h10q13 0 22 9t9 22v353q0 13 -9 22t-22 9zM145 540v-63h-11q-13 0 -22 -9t-9 -22v-353q0 -13 9 -22t22 -9h11v-62h-11q-39 0 -66.5 27.5t-27.5 65.5v353q0 38 27.5 66t66.5 28h11z
M104 606l-30 38l90 56h13l89 -56l-30 -38l-66 42z" />
    <glyph glyph-name="uni0210" unicode="&#x210;" horiz-adv-x="340" 
d="M174 408h4q56 0 56 61v137q0 11 -8.5 19.5t-19.5 8.5h-149v66h149q38 0 66 -28t28 -66v-138q0 -62 -59 -90q29 -7 44 -27.5t15 -48.5v-302h-66v297q0 50 -50 50h-10v61zM123 583v-583h-66v583h66zM158 816l30 38l89 -66l-30 -38zM40 816l30 38l89 -66l-30 -38z" />
    <glyph glyph-name="uni0211" unicode="&#x211;" horiz-adv-x="342" 
d="M196 258h-35v62h32q19 0 33 14.5t14 32.5v79q0 13 -9.5 22t-21.5 9h-155v63h155q38 0 65.5 -27.5t27.5 -66.5v-81q0 -22 -13.5 -43t-35.5 -33q22 -8 35.5 -28t13.5 -43v-218h-62v212q0 20 -12.5 33t-31.5 13zM117 426v-426h-63v426h63zM158 662l30 38l89 -66l-30 -38z
M40 662l30 38l89 -66l-30 -38z" />
    <glyph glyph-name="uni0212" unicode="&#x212;" horiz-adv-x="323" 
d="M157 408h4q56 0 56 61v137q0 11 -8.5 19.5t-19.5 8.5h-149v66h149q38 0 66 -28t28 -66v-138q0 -62 -59 -90q29 -7 44 -27.5t15 -48.5v-302h-66v297q0 50 -50 50h-10v61zM106 583v-583h-66v583h66zM73 750l-30 38l90 56h13l89 -56l-30 -38l-66 42z" />
    <glyph glyph-name="uni0213" unicode="&#x213;" horiz-adv-x="328" 
d="M182 258h-35v62h32q19 0 33 14.5t14 32.5v79q0 13 -9.5 22t-21.5 9h-155v63h155q38 0 65.5 -27.5t27.5 -66.5v-81q0 -22 -13.5 -43t-35.5 -33q22 -8 35.5 -28t13.5 -43v-218h-62v212q0 20 -12.5 33t-31.5 13zM103 426v-426h-63v426h63zM78 606l-30 38l90 56h13l89 -56
l-30 -38l-66 42z" />
    <glyph glyph-name="uni0214" unicode="&#x214;" horiz-adv-x="336" 
d="M194 66h8q11 0 19.5 8t8.5 20v606h66v-606q0 -39 -28 -66.5t-66 -27.5h-8v66zM143 66v-66h-8q-39 0 -66.5 27.5t-27.5 66.5v606h66v-606q0 -12 8 -20t20 -8h8zM158 816l30 38l89 -66l-30 -38zM40 816l30 38l89 -66l-30 -38z" />
    <glyph glyph-name="uni0215" unicode="&#x215;" horiz-adv-x="341" 
d="M146 0h-12q-39 0 -66.5 27.5t-27.5 65.5v447h62v-447q0 -13 9.5 -22t22.5 -9h12v-62zM197 0v62h10q13 0 22.5 9t9.5 22v447h62v-447q0 -38 -27.5 -65.5t-66.5 -27.5h-10zM170 662l30 38l89 -66l-30 -38zM52 662l30 38l89 -66l-30 -38z" />
    <glyph glyph-name="uni0216" unicode="&#x216;" 
d="M193 66h8q11 0 19.5 8t8.5 20v606h66v-606q0 -39 -28 -66.5t-66 -27.5h-8v66zM142 66v-66h-8q-39 0 -66.5 27.5t-27.5 66.5v606h66v-606q0 -12 8 -20t20 -8h8zM101 750l-30 38l90 56h13l89 -56l-30 -38l-66 42z" />
    <glyph glyph-name="uni0217" unicode="&#x217;" horiz-adv-x="341" 
d="M146 0h-12q-39 0 -66.5 27.5t-27.5 65.5v447h62v-447q0 -13 9.5 -22t22.5 -9h12v-62zM197 0v62h10q13 0 22.5 9t9.5 22v447h62v-447q0 -38 -27.5 -65.5t-66.5 -27.5h-10zM104 606l-30 38l90 56h13l89 -56l-30 -38l-66 42z" />
    <glyph glyph-name="Scommaaccent" unicode="&#x218;" horiz-adv-x="314" 
d="M132 452v-105l-59 72q-33 41 -33 106v81q0 38 28 66t66 28h46q38 0 66 -27.5t28 -66.5v-78h-66v78q0 11 -8.5 19.5t-19.5 8.5h-46q-11 0 -19.5 -8.5t-8.5 -19.5v-81q0 -41 21 -67zM183 388l57 -69q34 -41 34 -106v-119q0 -39 -28 -66.5t-66 -27.5h-46q-39 0 -66.5 27.5
t-27.5 66.5v107h66v-107q0 -12 8.5 -20t19.5 -8h46q11 0 19.5 8t8.5 20v119q0 42 -21 67l-4 5v103zM187 -32h-60v-61h22l-22 -62h23l37 62v61z" />
    <glyph glyph-name="scommaaccent" unicode="&#x219;" horiz-adv-x="319" 
d="M134 335v-92l-52 52q-42 41 -42 97v54q0 39 28 66.5t66 27.5h51q39 0 66.5 -27.5t27.5 -66.5v-52h-62v52q0 13 -9.5 22t-22.5 9h-51q-13 0 -22 -9t-9 -22v-49q0 -31 24 -55zM185 285l59 -58q35 -35 35 -87v-47q0 -38 -27.5 -65.5t-66.5 -27.5h-51q-38 0 -66 27.5
t-28 65.5v85h63v-85q0 -13 9 -22t22 -9h51q13 0 22.5 9t9.5 22v42q0 26 -21 47l-11 11v92zM189 -32h-60v-61h22l-22 -62h23l37 62v61z" />
    <glyph glyph-name="uni021A" unicode="&#x21a;" horiz-adv-x="278" 
d="M106 583h66v-583h-66v583zM253 634h-228v66h228v-66zM169 -32h-60v-61h22l-22 -62h23l37 62v61z" />
    <glyph glyph-name="uni021B" unicode="&#x21b;" horiz-adv-x="283" 
d="M110 426h62v-426h-62v426zM258 477h-233v63h233v-63zM111 -32h60v-61l-37 -62h-23l22 62h-22v61z" />
    <glyph glyph-name="dotlessj" unicode="&#x237;" horiz-adv-x="301" 
d="M261 540v-226h-62v226h62zM199 263h62v-170q0 -38 -27.5 -65.5t-65.5 -27.5h-49q-39 0 -66.5 27.5t-27.5 65.5v85h63v-85q0 -13 9 -22t22 -9h49q13 0 22 9t9 22v170z" />
    <glyph glyph-name="circumflex" unicode="&#x2c6;" horiz-adv-x="282" 
d="M75 606l-30 38l90 56h13l89 -56l-30 -38l-66 42z" />
    <glyph glyph-name="caron" unicode="&#x2c7;" horiz-adv-x="252" 
d="M30 662l30 38l66 -42l66 42l30 -38l-89 -56h-13z" />
    <glyph glyph-name="breve" unicode="&#x2d8;" horiz-adv-x="260" 
d="M30 700h49v-11q0 -8 6 -14.5t14 -6.5h62q8 0 14 6.5t6 14.5v11h49v-8q0 -30 -19 -50t-49 -20h-64q-30 0 -49 20t-19 50v8z" />
    <glyph glyph-name="dotaccent" unicode="&#x2d9;" horiz-adv-x="121" 
d="M30 700h61v-71h-61v71z" />
    <glyph glyph-name="ring" unicode="&#x2da;" horiz-adv-x="202" 
d="M30 649q0 30 20.5 50.5t50.5 20.5t50.5 -20.5t20.5 -50.5t-20.5 -50.5t-50.5 -20.5t-50.5 20.5t-20.5 50.5zM66 649q0 -14 10.5 -24.5t24.5 -10.5t24.5 10.5t10.5 24.5t-10.5 24.5t-24.5 10.5t-24.5 -10.5t-10.5 -24.5z" />
    <glyph glyph-name="ogonek" unicode="&#x2db;" horiz-adv-x="147" 
d="M79 -80q0 -15 15 -15h23v-44h-39q-23 0 -35.5 15t-12.5 36q0 42 39 88l18 5l29 -5q-37 -45 -37 -80z" />
    <glyph glyph-name="tilde" unicode="&#x2dc;" horiz-adv-x="301" 
d="M87 628h-42q0 31 18 51.5t48 20.5q21 0 43 -13.5t35 -13.5q25 0 25 27h42q0 -31 -18 -51.5t-47 -20.5q-21 0 -43 14t-33 14q-28 0 -28 -28z" />
    <glyph glyph-name="hungarumlaut" unicode="&#x2dd;" horiz-adv-x="297" 
d="M119 700l30 -38l-89 -66l-30 38zM237 700l30 -38l-89 -66l-30 38z" />
    <glyph glyph-name="dblgrave" unicode="&#x30f;" horiz-adv-x="297" 
d="M148 662l30 38l89 -66l-30 -38zM30 662l30 38l89 -66l-30 -38z" />
    <glyph glyph-name="uni0400" unicode="&#x400;" horiz-adv-x="261" 
d="M40 66h190v-66h-190v66zM106 117h-66v466h66v-175h109v-61h-109v-230zM40 634v66h191v-66h-191zM81 796l30 38l89 -66l-30 -38z" />
    <glyph glyph-name="afii10023" unicode="&#x401;" horiz-adv-x="261" 
d="M40 66h190v-66h-190v66zM106 117h-66v466h66v-175h109v-61h-109v-230zM40 634v66h191v-66h-191zM164 821h60v-71h-60v71zM47 821h61v-71h-61v71z" />
    <glyph glyph-name="afii10051" unicode="&#x402;" horiz-adv-x="351" 
d="M253 634h-228v66h228v-66zM223 408h93v-470q0 -38 -27.5 -65.5t-65.5 -27.5h-49v62h49q13 0 22 9t9 22v409h-31v61zM172 583v-583h-66v583h66z" />
    <glyph glyph-name="afii10052" unicode="&#x403;" horiz-adv-x="251" 
d="M241 634h-201v66h201v-66zM106 583v-583h-66v583h66zM170 854l30 -38l-89 -66l-30 38z" />
    <glyph glyph-name="afii10053" unicode="&#x404;" horiz-adv-x="297" 
d="M40 408h146v-61h-80v-253q0 -11 8.5 -19.5t19.5 -8.5h29q11 0 19.5 8.5t8.5 19.5v107h66v-107q0 -39 -27.5 -66.5t-66.5 -27.5h-29q-38 0 -66 27.5t-28 66.5v314zM106 606v-147h-66v147q0 39 28 66.5t66 27.5h29q39 0 66.5 -27.5t27.5 -66.5v-78h-66v78q0 12 -8.5 20
t-19.5 8h-29q-11 0 -19.5 -8t-8.5 -20z" />
    <glyph glyph-name="afii10054" unicode="&#x405;" horiz-adv-x="314" 
d="M133 452v-105l-59 72q-33 41 -33 106v81q0 38 28 66t66 28h46q38 0 66 -27.5t28 -66.5v-78h-66v78q0 11 -8.5 19.5t-19.5 8.5h-46q-11 0 -19.5 -8.5t-8.5 -19.5v-81q0 -41 21 -67zM184 388l57 -69q34 -41 34 -106v-119q0 -39 -28 -66.5t-66 -27.5h-46q-39 0 -66.5 27.5
t-27.5 66.5v107h66v-107q0 -12 8.5 -20t19.5 -8h46q11 0 19.5 8t8.5 20v119q0 42 -21 67l-4 5v103z" />
    <glyph glyph-name="afii10055" unicode="&#x406;" horiz-adv-x="260" 
d="M97 347h66v-281h57v-66h-180v66h57v281zM163 398h-66v236h-57v66h180v-66h-57v-236z" />
    <glyph glyph-name="afii10056" unicode="&#x407;" horiz-adv-x="260" 
d="M159 821h60v-71h-60v71zM42 821h61v-71h-61v71zM97 347h66v-281h57v-66h-180v66h57v281zM163 398h-66v236h-57v66h180v-66h-57v-236z" />
    <glyph glyph-name="afii10057" unicode="&#x408;" horiz-adv-x="296" 
d="M190 347h66v-253q0 -39 -27.5 -66.5t-66.5 -27.5h-43q-38 0 -66 27.5t-28 66.5v107h66v-107q0 -12 8.5 -20t19.5 -8h43q12 0 20 8t8 20v253zM190 398v302h66v-302h-66z" />
    <glyph glyph-name="afii10058" unicode="&#x409;" horiz-adv-x="527" 
d="M141 583v-300q0 -36 -0.5 -55.5t-2.5 -55.5t-6.5 -57t-13 -48t-21.5 -42t-32.5 -25.5t-44.5 -10.5v66q55 0 55 203v325h66zM311 357v-357h-66v357h66zM362 66h41q11 0 19.5 8.5t8.5 19.5v286q0 11 -8.5 19.5t-19.5 8.5h-158v226h-170v66h236v-231h92q39 0 66.5 -28
t27.5 -66v-281q0 -39 -27.5 -66.5t-66.5 -27.5h-41v66z" />
    <glyph glyph-name="afii10059" unicode="&#x40a;" horiz-adv-x="511" 
d="M106 459h-66v241h66v-241zM295 296v-296h-66v296h66zM346 66h41q11 0 19.5 8.5t8.5 19.5v225q0 11 -8.5 19.5t-19.5 8.5h-281v-347h-66v408h189v292h66v-292h92q39 0 66.5 -28t27.5 -66v-220q0 -39 -27.5 -66.5t-66.5 -27.5h-41v66z" />
    <glyph glyph-name="afii10060" unicode="&#x40b;" horiz-adv-x="425" 
d="M385 296v-296h-66v296h66zM385 347h-213v-347h-66v583h66v-175h147v292h66v-353zM249 634h-224v66h224v-66z" />
    <glyph glyph-name="afii10061" unicode="&#x40c;" horiz-adv-x="305" 
d="M206 854l30 -38l-89 -66l-30 38zM214 296l76 -296h-68l-77 296h69zM40 408h96q23 0 36.5 14.5t13.5 37.5v139q0 41 29 71t70 30h5v-65h-5q-14 -2 -23.5 -12t-9.5 -24v-135q0 -43 -27 -80t-77 -37h-42v-347h-66v408zM106 459h-66v241h66v-241z" />
    <glyph glyph-name="uni040D" unicode="&#x40d;" horiz-adv-x="362" 
d="M106 700v-360l-51 -213h-15v573h66zM322 634h-39l-158 -634h-85v66h39l158 634h85v-66zM256 0v360l51 213h15v-573h-66zM119 816l30 38l89 -66l-30 -38z" />
    <glyph glyph-name="afii10062" unicode="&#x40e;" horiz-adv-x="297" 
d="M86 267h79l50 433h67l-81 -700h-67l24 201h-61zM78 318l-63 382h67l62 -382h-66zM52 828h49v-11q0 -8 6 -14.5t14 -6.5h62q8 0 14 6.5t6 14.5v11h49v-8q0 -30 -19 -50t-49 -20h-64q-30 0 -49 20t-19 50v8z" />
    <glyph glyph-name="afii10145" unicode="&#x40f;" 
d="M40 66h189v634h66v-700h-95v-155h-66v155h-94v66zM106 117h-66v583h66v-583z" />
    <glyph glyph-name="afii10017" unicode="&#x410;" horiz-adv-x="349" 
d="M239 155h67l22 -155h-66zM300 206h-185l-29 -206h-67l37 267h169l-49 368h-5l-42 -317h-66l51 382h119z" />
    <glyph glyph-name="afii10018" unicode="&#x411;" horiz-adv-x="328" 
d="M273 634h-233v66h233v-66zM106 583v-175h88q39 0 66.5 -27t27.5 -66v-221q0 -39 -27.5 -66.5t-66.5 -27.5h-37v66h37q11 0 19.5 8.5t8.5 19.5v225q0 12 -8.5 20t-19.5 8h-88v-347h-66v583h66z" />
    <glyph glyph-name="afii10019" unicode="&#x412;" horiz-adv-x="332" 
d="M157 634v66h41q39 0 66.5 -27.5t27.5 -66.5v-133q0 -28 -15 -56.5t-42 -39.5q28 -10 42.5 -34.5t14.5 -52.5v-196q0 -39 -27.5 -66.5t-66.5 -27.5h-158v66h158q12 0 20 8t8 20v199q0 54 -51 54h-69v-230h-66v583h66v-292h69q51 0 51 68v130q0 11 -8 19.5t-20 8.5h-41z
" />
    <glyph glyph-name="afii10020" unicode="&#x413;" horiz-adv-x="251" 
d="M241 634h-201v66h201v-66zM106 583v-583h-66v583h66z" />
    <glyph glyph-name="afii10021" unicode="&#x414;" horiz-adv-x="414" 
d="M231 66v-66h-155v-155h-66v221h55q51 89 51 309l-10 208h66l10 -208q0 -201 -44 -309h93zM282 0v634h-176v66h242v-634h56v-221h-66v155h-56z" />
    <glyph glyph-name="afii10022" unicode="&#x415;" horiz-adv-x="261" 
d="M40 66h190v-66h-190v66zM106 117h-66v466h66v-175h109v-61h-109v-230zM40 634v66h191v-66h-191z" />
    <glyph glyph-name="afii10024" unicode="&#x416;" horiz-adv-x="460" 
d="M197 278h66v-278h-66v278zM178 390h104q23 0 37.5 15t14.5 38v156q0 41 29.5 71t70.5 30h11v-66h-11q-14 -1 -24 -11.5t-10 -23.5v-162q0 -29 -15 -54t-41 -35l101 -348h-73l-91 329h-102l-92 -329h-72l100 348q-26 11 -41 35.5t-15 53.5v162q0 14 -9.5 24t-23.5 11h-11
v66h11q42 0 70.5 -29.5t28.5 -71.5v-155q0 -23 15 -38.5t38 -15.5zM197 441v259h66v-259h-66z" />
    <glyph glyph-name="afii10025" unicode="&#x417;" horiz-adv-x="291" 
d="M185 201h66v-107q0 -38 -27.5 -66t-66.5 -28h-38q-38 0 -66 27.5t-28 66.5v107h66v-107q0 -11 8.5 -19.5t19.5 -8.5h38q12 0 20 8.5t8 19.5v107zM185 477h66v-4q0 -67 -53 -89q53 -19 53 -77v-55h-66v44q0 28 -13.5 39.5t-41.5 11.5h-33v61h33q26 0 40.5 18.5t14.5 46.5
v4zM185 528v78q0 12 -8.5 20t-19.5 8h-38q-11 0 -19.5 -8t-8.5 -20v-78h-66v78q0 39 28 66.5t66 27.5h38q39 0 66.5 -27.5t27.5 -66.5v-78h-66z" />
    <glyph glyph-name="afii10026" unicode="&#x418;" horiz-adv-x="362" 
d="M106 700v-360l-51 -213h-15v573h66zM322 634h-39l-158 -634h-85v66h39l158 634h85v-66zM256 0v360l51 213h15v-573h-66z" />
    <glyph glyph-name="afii10027" unicode="&#x419;" horiz-adv-x="362" 
d="M78 828h49v-11q0 -8 6 -14.5t14 -6.5h62q8 0 14 6.5t6 14.5v11h49v-8q0 -30 -19 -50t-49 -20h-64q-30 0 -49 20t-19 50v8zM106 700v-360l-51 -213h-15v573h66zM322 634h-39l-158 -634h-85v66h39l158 634h85v-66zM256 0v360l51 213h15v-573h-66z" />
    <glyph glyph-name="afii10028" unicode="&#x41a;" horiz-adv-x="305" 
d="M214 296l76 -296h-68l-77 296h69zM40 408h96q23 0 36.5 14.5t13.5 37.5v139q0 41 29 71t70 30h5v-65h-5q-14 -2 -23.5 -12t-9.5 -24v-135q0 -43 -27 -80t-77 -37h-42v-347h-66v408zM106 459h-66v241h66v-241z" />
    <glyph glyph-name="afii10029" unicode="&#x41b;" horiz-adv-x="351" 
d="M75 583h66v-300q0 -36 -0.5 -55.5t-2.5 -55.5t-6.5 -57t-13 -48t-21.5 -42t-32.5 -25.5t-44.5 -10.5v66q55 0 55 203v325zM75 634v66h236v-700h-66v634h-170z" />
    <glyph glyph-name="afii10030" unicode="&#x41c;" horiz-adv-x="476" 
d="M201 0l-124 634h-37v66h92l105 -553l107 553h92v-66h-37l-125 -634h-73zM370 240l57 333h9v-573h-66v240zM106 236l-57 337h-9v-573h66v236z" />
    <glyph glyph-name="afii10031" unicode="&#x41d;" 
d="M229 296h66v-296h-66v296zM295 347h-189v-347h-66v408h189v292h66v-353zM106 459h-66v241h66v-241z" />
    <glyph glyph-name="afii10032" unicode="&#x41e;" horiz-adv-x="334" 
d="M142 634h-8q-11 0 -19.5 -8.5t-8.5 -19.5v-512q0 -12 8.5 -20t19.5 -8h8v-66h-8q-38 0 -66 27.5t-28 66.5v512q0 39 28 66.5t66 27.5h8v-66zM193 634v66h7q39 0 66.5 -27.5t27.5 -66.5v-512q0 -39 -27.5 -66.5t-66.5 -27.5h-7v66h7q11 0 19.5 8t8.5 20v512
q0 11 -8.5 19.5t-19.5 8.5h-7z" />
    <glyph glyph-name="afii10033" unicode="&#x41f;" horiz-adv-x="331" 
d="M40 583h66v-583h-66v583zM40 634v66h251v-700h-66v634h-185z" />
    <glyph glyph-name="afii10034" unicode="&#x420;" horiz-adv-x="315" 
d="M106 583v-583h-66v583h66zM157 285v62h25q14 0 23 11t9 25v223q0 11 -8.5 19.5t-19.5 8.5h-146v66h146q38 0 66 -27.5t28 -66.5v-228q0 -39 -24.5 -66t-63.5 -27h-35z" />
    <glyph glyph-name="afii10035" unicode="&#x421;" horiz-adv-x="311" 
d="M134 66h43q11 0 19.5 8t8.5 20v107h66v-107q0 -39 -27.5 -66.5t-66.5 -27.5h-43q-38 0 -66 27.5t-28 66.5v253h66v-253q0 -12 8.5 -20t19.5 -8zM205 528v78q0 11 -8 19.5t-20 8.5h-43q-11 0 -19.5 -8.5t-8.5 -19.5v-208h-66v208q0 39 28 66.5t66 27.5h43q39 0 66.5 -27.5
t27.5 -66.5v-78h-66z" />
    <glyph glyph-name="afii10036" unicode="&#x422;" horiz-adv-x="278" 
d="M106 583h66v-583h-66v583zM253 634h-228v66h228v-66z" />
    <glyph glyph-name="afii10037" unicode="&#x423;" horiz-adv-x="297" 
d="M86 267h79l50 433h67l-81 -700h-67l24 201h-61zM78 318l-63 382h67l62 -382h-66z" />
    <glyph glyph-name="afii10038" unicode="&#x424;" horiz-adv-x="420" 
d="M314 347h66v-187q0 -39 -27.5 -66.5t-66.5 -27.5h-43v-66h-66v66h-43q-39 0 -66.5 27.5t-27.5 66.5v187h66v-187q0 -12 8 -20t20 -8h43v436h-43q-12 0 -20 -8.5t-8 -19.5v-142h-66v142q0 39 27.5 66.5t66.5 27.5h43v76h66v-76h43q39 0 66.5 -27.5t27.5 -66.5v-142h-66
v142q0 11 -8.5 19.5t-19.5 8.5h-43v-436h43q11 0 19.5 8t8.5 20v187z" />
    <glyph glyph-name="afii10039" unicode="&#x425;" horiz-adv-x="358" 
d="M179 416l85 284h69l-98 -325l12 -41h-68l-95 -334h-69l107 375l-12 41h69zM164 467h-69l-69 233h68zM261 283l82 -283h-68l-81 283h67z" />
    <glyph glyph-name="afii10040" unicode="&#x426;" horiz-adv-x="357" 
d="M292 117h-66v583h66v-583zM106 66h241v-221h-66v155h-241v700h66v-634z" />
    <glyph glyph-name="afii10041" unicode="&#x427;" horiz-adv-x="333" 
d="M293 347v-347h-66v285h-93q-39 0 -66.5 27.5t-27.5 66.5v321h66v-325q0 -11 8.5 -19.5t19.5 -8.5h159zM293 409h-66v291h66v-291z" />
    <glyph glyph-name="afii10042" unicode="&#x428;" horiz-adv-x="518" 
d="M292 117h-66v583h66v-583zM106 66h306v634h66v-700h-438v700h66v-634z" />
    <glyph glyph-name="afii10043" unicode="&#x429;" horiz-adv-x="543" 
d="M226 117v583h66v-583h-66zM106 66h306v634h66v-634h55v-221h-66v155h-427v700h66v-634z" />
    <glyph glyph-name="afii10044" unicode="&#x42a;" horiz-adv-x="398" 
d="M223 0v66h41q11 0 19.5 8.5t8.5 19.5v286q0 11 -8 19.5t-20 8.5h-158v231h-86v61h152v-231h92q39 0 66.5 -28t27.5 -66v-281q0 -39 -27.5 -66.5t-66.5 -27.5h-41zM172 0h-66v357h66v-357z" />
    <glyph glyph-name="afii10045" unicode="&#x42b;" horiz-adv-x="464" 
d="M358 0v700h66v-700h-66zM106 0h-66v357h66v-357zM106 0h-66v357h66v-357zM106 700v-231h92q39 0 66.5 -28t27.5 -66v-281q0 -39 -27.5 -66.5t-66.5 -27.5h-41v66h41q11 0 19.5 8.5t8.5 19.5v286q0 11 -8 19.5t-20 8.5h-158v292h66z" />
    <glyph glyph-name="afii10046" unicode="&#x42c;" horiz-adv-x="332" 
d="M40 700h66v-231h92q39 0 66.5 -28t27.5 -66v-281q0 -39 -27.5 -66.5t-66.5 -27.5h-41v66h41q11 0 19.5 8.5t8.5 19.5v286q0 11 -8 19.5t-20 8.5h-158v292zM106 0h-66v357h66v-357z" />
    <glyph glyph-name="afii10047" unicode="&#x42d;" horiz-adv-x="277" 
d="M91 408h146v-314q0 -39 -28 -66.5t-66 -27.5h-29q-39 0 -66.5 27.5t-27.5 66.5v107h66v-107q0 -11 8.5 -19.5t19.5 -8.5h29q11 0 19.5 8.5t8.5 19.5v253h-80v61zM171 459v147q0 12 -8.5 20t-19.5 8h-29q-11 0 -19.5 -8t-8.5 -20v-78h-66v78q0 39 27.5 66.5t66.5 27.5h29
q38 0 66 -27.5t28 -66.5v-147h-66z" />
    <glyph glyph-name="afii10048" unicode="&#x42e;" horiz-adv-x="468" 
d="M106 408h140v-314q0 -11 8.5 -19.5t19.5 -8.5h60q11 0 19.5 8.5t8.5 19.5v512q0 12 -8.5 20t-19.5 8h-60q-11 0 -19.5 -8t-8.5 -20v-147h-66v147q0 39 27.5 66.5t66.5 27.5h60q39 0 66.5 -27.5t27.5 -66.5v-512q0 -39 -27.5 -66.5t-66.5 -27.5h-60q-39 0 -66.5 27.5
t-27.5 66.5v253h-140v353h66v-292zM106 296v-296h-66v296h66z" />
    <glyph glyph-name="afii10049" unicode="&#x42f;" horiz-adv-x="320" 
d="M98 296h69l-78 -296h-69zM213 347h-69q-58 0 -85 36.5t-27 83.5v139q0 39 28 66.5t66 27.5h154v-66h-154q-11 0 -19.5 -8t-8.5 -20v-139q0 -31 12.5 -45t42.5 -14h60v175h67v-583h-67v347z" />
    <glyph glyph-name="afii10065" unicode="&#x430;" horiz-adv-x="348" 
d="M241 128h63l24 -128h-64zM295 179h-178l-34 -179h-63l45 241h155l-44 237h-4l-34 -186h-63l46 248h106z" />
    <glyph glyph-name="afii10066" unicode="&#x431;" horiz-adv-x="332" 
d="M277 477h-237v63h237v-63zM102 258v-258h-62v426h62v-106h81q46 0 77.5 -31.5t31.5 -76.5v-119q0 -38 -27.5 -65.5t-65.5 -27.5h-46v62h46q13 0 22 9t9 22v119q0 19 -13.5 32.5t-33.5 13.5h-81z" />
    <glyph glyph-name="afii10067" unicode="&#x432;" horiz-adv-x="337" 
d="M204 477h-164v63h164q38 0 65.5 -27.5t27.5 -66.5v-84q0 -25 -15 -45t-38 -28q24 -7 38.5 -28t14.5 -45v-123q0 -38 -27 -65.5t-66 -27.5h-51v62h51q13 0 22 9t9 22v118q0 19 -13.5 33t-33.5 14h-86v-258h-62v426h62v-106h86q20 0 33.5 14t13.5 33v79q0 13 -9 22t-22 9z
" />
    <glyph glyph-name="afii10068" unicode="&#x433;" horiz-adv-x="256" 
d="M246 478h-206v62h206v-62zM40 426h62v-426h-62v426z" />
    <glyph glyph-name="afii10069" unicode="&#x434;" horiz-adv-x="409" 
d="M112 62h117v-62h-161v-101h-63v163h39q22 46 33.5 106t13.5 102t2 112v44h63v-44q0 -68 -2 -111t-12 -102.5t-30 -106.5zM280 0v477h-187v63h250v-478h47v-163h-62v101h-48z" />
    <glyph glyph-name="afii10070" unicode="&#x435;" horiz-adv-x="264" 
d="M40 207h62v-145h132v-62h-194v207zM40 426h62v-106h117v-62h-179v168zM40 477v63h194v-63h-194z" />
    <glyph glyph-name="afii10072" unicode="&#x436;" horiz-adv-x="471" 
d="M267 540v-183h-63v183h63zM169 306h133q17 0 29.5 12.5t12.5 29.5v93q0 41 29 70t70 29h13v-63h-13q-15 0 -26 -10.5t-11 -25.5v-94q0 -31 -16.5 -56t-43.5 -38l110 -253h-66l-107 244h-95l-107 -244h-66l111 253q-28 12 -44.5 37t-16.5 57v94q0 15 -11 25.5t-26 10.5
h-12v63h12q40 0 69.5 -29t29.5 -70v-93q0 -17 12.5 -29.5t29.5 -12.5zM204 193h63v-193h-63v193z" />
    <glyph glyph-name="afii10073" unicode="&#x437;" horiz-adv-x="296" 
d="M256 127v-34q0 -38 -27.5 -65.5t-65.5 -27.5h-44q-39 0 -66.5 27.5t-27.5 65.5v85h63v-85q0 -13 9 -22t22 -9h44q13 0 22 9t9 22v34h62zM256 394v-17q0 -61 -52 -88q52 -16 52 -68v-43h-62v23q0 57 -59 57h-47v62h41q29 0 47 20.5t18 49.5v4h62zM256 444h-62v4
q0 13 -9 21t-22 8h-44q-13 0 -22 -9t-9 -22v-52h-63v53q0 38 27.5 65.5t66.5 27.5h44q38 0 65.5 -26.5t27.5 -64.5v-5z" />
    <glyph glyph-name="afii10074" unicode="&#x438;" horiz-adv-x="368" 
d="M328 477h-44l-156 -477h-88v63h44l155 477h89v-63zM328 426h-17l-46 -141v-285h63v426zM57 114h-17v426h63v-283z" />
    <glyph glyph-name="afii10075" unicode="&#x439;" horiz-adv-x="368" 
d="M328 477h-44l-156 -477h-88v63h44l155 477h89v-63zM311 426h17v-426h-63v285zM57 114h-17v426h63v-283zM87 700h49v-11q0 -8 6 -14.5t14 -6.5h62q8 0 14 6.5t6 14.5v11h49v-8q0 -30 -19 -50t-49 -20h-64q-30 0 -49 20t-19 50v8z" />
    <glyph glyph-name="afii10076" unicode="&#x43a;" horiz-adv-x="310" 
d="M102 540v-169h-62v169h62zM165 258h-63v-258h-62v320h113q17 0 29 13t12 30v78q0 41 28.5 70t68.5 29h4v-63h-4q-15 0 -24.5 -10.5t-9.5 -25.5v-80q0 -36 -24.5 -69.5t-67.5 -33.5zM229 0l-77 207h67l76 -207h-66z" />
    <glyph glyph-name="afii10077" unicode="&#x43b;" horiz-adv-x="358" 
d="M256 477h-180v63h242v-540h-62v477zM76 426h63v-149q0 -53 -1.5 -86.5t-8 -74.5t-18.5 -64.5t-35 -40t-56 -16.5v62q13 0 22.5 7.5t15.5 23.5t10 33.5t5.5 44.5t2 49t0.5 55v156z" />
    <glyph glyph-name="afii10078" unicode="&#x43c;" horiz-adv-x="465" 
d="M40 0v426h21l42 -192v-234h-63zM425 540v-63h-50l-104 -477h-77l-104 477h-50v63h94l98 -430l99 430h94zM403 426h22v-426h-63v238z" />
    <glyph glyph-name="afii10079" unicode="&#x43d;" horiz-adv-x="341" 
d="M102 540v-169h-62v169h62zM301 258h-199v-258h-62v320h199v220h62v-282zM239 0v207h62v-207h-62z" />
    <glyph glyph-name="afii10080" unicode="&#x43e;" horiz-adv-x="340" 
d="M206 477h-10v63h10q38 0 66 -27.5t28 -66.5v-353q0 -38 -27.5 -65.5t-66.5 -27.5h-10v62h10q13 0 22 9t9 22v353q0 13 -9 22t-22 9zM145 540v-63h-11q-13 0 -22 -9t-9 -22v-353q0 -13 9 -22t22 -9h11v-62h-11q-39 0 -66.5 27.5t-27.5 65.5v353q0 38 27.5 66t66.5 28h11z
" />
    <glyph glyph-name="afii10081" unicode="&#x43f;" 
d="M233 477h-193v63h255v-540h-62v477zM40 426h62v-426h-62v426z" />
    <glyph glyph-name="afii10082" unicode="&#x440;" horiz-adv-x="320" 
d="M191 196h-38v62h38q13 0 22 9t9 22v157q0 13 -9 22t-22 9h-151v63h151q39 0 66.5 -27.5t27.5 -66.5v-157q0 -38 -27.5 -65.5t-66.5 -27.5zM102 426v-426h-62v426h62z" />
    <glyph glyph-name="afii10083" unicode="&#x441;" horiz-adv-x="316" 
d="M40 263h62v-170q0 -13 9 -22t22 -9h49q13 0 22 9t9 22v85h63v-85q0 -38 -27.5 -65.5t-66.5 -27.5h-49q-38 0 -65.5 27.5t-27.5 65.5v170zM40 314v132q0 39 27.5 66.5t65.5 27.5h49q39 0 66.5 -27.5t27.5 -66.5v-52h-63v52q0 13 -9 22t-22 9h-49q-13 0 -22 -9t-9 -22v-132
h-62z" />
    <glyph glyph-name="afii10084" unicode="&#x442;" horiz-adv-x="283" 
d="M110 426h62v-426h-62v426zM258 477h-233v63h233v-63z" />
    <glyph glyph-name="afii10085" unicode="&#x443;" horiz-adv-x="297" 
d="M89 241h70l60 299h63l-110 -540h-63l37 178h-40zM74 540l65 -248h-63l-66 248h64z" />
    <glyph glyph-name="afii10086" unicode="&#x444;" horiz-adv-x="434" 
d="M332 263h62v-112q0 -41 -29 -70t-70 -29h-47v-52h-62v52h-47q-41 0 -70 29t-29 70v112h62v-123q0 -10 8 -18t18 -8h58v320h-58q-10 0 -18 -8t-8 -18v-94h-62v84q0 41 29 70t70 29h47v58h62v-58h47q41 0 70 -29.5t29 -69.5v-84h-62v94q0 10 -8 18t-18 8h-58v-320h58
q10 0 18 8t8 18v123z" />
    <glyph glyph-name="afii10087" unicode="&#x445;" horiz-adv-x="348" 
d="M117 289l-11 31h74l74 220h67l-91 -251l11 -31h-75l-85 -258h-66zM198 207h61l74 -207h-66zM150 371h-63l-61 169h67z" />
    <glyph glyph-name="afii10088" unicode="&#x446;" horiz-adv-x="363" 
d="M308 113h-63v427h63v-427zM102 62h251v-162h-62v100h-251v540h62v-478z" />
    <glyph glyph-name="afii10089" unicode="&#x447;" horiz-adv-x="323" 
d="M288 540v-231h-63v231h63zM118 258h170v-258h-63v196h-96q-41 0 -70 29t-29 70v245h62v-256q0 -10 8 -18t18 -8z" />
    <glyph glyph-name="afii10090" unicode="&#x448;" horiz-adv-x="529" 
d="M296 540v-427h-63v427h63zM103 62h323v478h63v-540h-449v540h63v-478z" />
    <glyph glyph-name="afii10091" unicode="&#x449;" horiz-adv-x="554" 
d="M295 540v-427h-62v427h62zM102 62h324v478h62v-478h56v-162h-62v100h-442v540h62v-478z" />
    <glyph glyph-name="afii10092" unicode="&#x44a;" horiz-adv-x="406" 
d="M267 0h-43v62h54q10 0 18 8t8 18v206q0 10 -8 18t-18 8h-168v158h-90v62h153v-158h94q41 0 70 -29t29 -70v-184q0 -41 -29 -70t-70 -29zM173 269v-269h-63v269h63z" />
    <glyph glyph-name="afii10093" unicode="&#x44b;" horiz-adv-x="449" 
d="M409 0h-63v540h63v-540zM187 0h-33v62h44q10 0 18 8t8 18v206q0 10 -8 18t-18 8h-158v220h63v-158h84q41 0 70 -29t29 -70v-184q0 -41 -29 -70t-70 -29zM103 269v-269h-63v269h63z" />
    <glyph glyph-name="afii10094" unicode="&#x44c;" horiz-adv-x="328" 
d="M189 0h-35v62h46q10 0 18 8t8 18v206q0 10 -8 18t-18 8h-160v220h63v-158h86q41 0 70 -29t29 -70v-184q0 -41 -29 -70t-70 -29zM103 269v-269h-63v269h63z" />
    <glyph glyph-name="afii10095" unicode="&#x44d;" horiz-adv-x="281" 
d="M241 320v-227q0 -38 -27.5 -65.5t-66.5 -27.5h-34q-38 0 -65.5 27.5t-27.5 65.5v85h62v-85q0 -13 9 -22t22 -9h34q13 0 22.5 9t9.5 22v165h-97v62h159zM241 371h-62v75q0 13 -9.5 22t-22.5 9h-34q-13 0 -22 -9t-9 -22v-52h-62v53q0 38 27.5 65.5t65.5 27.5h34
q39 0 66.5 -27.5t27.5 -65.5v-76z" />
    <glyph glyph-name="afii10096" unicode="&#x44e;" horiz-adv-x="476" 
d="M176 207h63v-114q0 -13 9 -22t22 -9h72q13 0 22 9t9 22v353q0 13 -9 22t-22 9h-72q-13 0 -22 -9t-9 -22v-188h-137v-258h-62v320h136v127q0 38 28 65.5t66 27.5h72q39 0 66.5 -27.5t27.5 -65.5v-354q0 -38 -27.5 -65.5t-66.5 -27.5h-72q-38 0 -66 27.5t-28 65.5v114z
M102 540v-169h-62v169h62z" />
    <glyph glyph-name="afii10097" unicode="&#x44f;" horiz-adv-x="317" 
d="M215 258h-79q-52 0 -81.5 34t-29.5 75v80q0 38 27.5 65.5t65.5 27.5h159v-63h-159q-13 0 -22 -9t-9 -22v-80q0 -19 14 -32.5t33 -13.5h81v106h62v-426h-62v258zM86 207h65l-64 -207h-67z" />
    <glyph glyph-name="uni0450" unicode="&#x450;" horiz-adv-x="264" 
d="M40 207h62v-145h132v-62h-194v207zM40 426h62v-106h117v-62h-179v168zM40 477v63h194v-63h-194zM78 662l30 38l89 -66l-30 -38z" />
    <glyph glyph-name="afii10071" unicode="&#x451;" horiz-adv-x="264" 
d="M40 207h62v-145h132v-62h-194v207zM40 426h62v-106h117v-62h-179v168zM40 477v63h194v-63h-194zM166 700h60v-71h-60v71zM49 700h61v-71h-61v71z" />
    <glyph glyph-name="afii10099" unicode="&#x452;" horiz-adv-x="360" 
d="M257 477h-232v63h232v-63zM258 258h-35v62h97v-328q0 -38 -27.5 -65.5t-65.5 -27.5h-49v62h49q13 0 22 9t9 22v266zM172 426v-426h-62v426h62z" />
    <glyph glyph-name="afii10100" unicode="&#x453;" horiz-adv-x="256" 
d="M40 478h206v62h-206v-62zM102 426h-62v-426h62v426zM173 700l30 -38l-89 -66l-30 38z" />
    <glyph glyph-name="afii10101" unicode="&#x454;" horiz-adv-x="301" 
d="M40 93v227h159v-62h-97v-165q0 -13 9.5 -22t22.5 -9h34q13 0 22 9t9 22v85h62v-85q0 -38 -27.5 -65.5t-65.5 -27.5h-34q-39 0 -66.5 27.5t-27.5 65.5zM102 371h-62v76q0 38 27.5 65.5t66.5 27.5h34q38 0 65.5 -27.5t27.5 -65.5v-53h-62v52q0 13 -9 22t-22 9h-34
q-13 0 -22.5 -9t-9.5 -22v-75z" />
    <glyph glyph-name="afii10102" unicode="&#x455;" horiz-adv-x="319" 
d="M134 335v-92l-52 52q-42 41 -42 97v54q0 39 28 66.5t66 27.5h51q39 0 66.5 -27.5t27.5 -66.5v-52h-62v52q0 13 -9.5 22t-22.5 9h-51q-13 0 -22 -9t-9 -22v-49q0 -31 24 -55zM185 285l59 -58q35 -35 35 -87v-47q0 -38 -27.5 -65.5t-66.5 -27.5h-51q-38 0 -66 27.5
t-28 65.5v85h63v-85q0 -13 9 -22t22 -9h51q13 0 22.5 9t9.5 22v42q0 26 -21 47l-11 11v92z" />
    <glyph glyph-name="afii10103" unicode="&#x456;" horiz-adv-x="264" 
d="M163 263v-201h61v-62h-184v62h61v201h62zM163 314h-62v163h-61v63h184v-63h-61v-163z" />
    <glyph glyph-name="afii10104" unicode="&#x457;" horiz-adv-x="264" 
d="M163 263v-201h61v-62h-184v62h61v201h62zM163 314h-62v163h-61v63h184v-63h-61v-163zM161 700h60v-71h-60v71zM44 700h61v-71h-61v71z" />
    <glyph glyph-name="afii10105" unicode="&#x458;" horiz-adv-x="301" 
d="M261 540v-226h-62v163h-96v63h158zM199 263h62v-170q0 -38 -27.5 -65.5t-65.5 -27.5h-49q-39 0 -66.5 27.5t-27.5 65.5v85h63v-85q0 -13 9 -22t22 -9h49q13 0 22 9t9 22v170z" />
    <glyph glyph-name="afii10106" unicode="&#x459;" horiz-adv-x="534" 
d="M404 0h-35v62h46q11 0 18.5 8t7.5 18v144q0 10 -7.5 18t-18.5 8h-160v219h-179v63h242v-220h86q41 0 70 -29t29 -70v-122q0 -41 -29 -70t-70 -29zM76 426h63v-149q0 -53 -1.5 -86.5t-8 -74.5t-18.5 -64.5t-35 -40t-56 -16.5v62q13 0 22.5 7.5t15.5 23.5t10 33.5t5.5 44.5
t2 49t0.5 55v156zM318 207v-207h-63v207h63z" />
    <glyph glyph-name="afii10107" unicode="&#x45a;" horiz-adv-x="517" 
d="M399 258h-297v-258h-62v320h199v220h63v-220h86q41 0 70 -29t29 -70v-122q0 -41 -29 -70t-70 -29h-35v62h46q11 0 18.5 8t7.5 18v144q0 10 -7.5 18t-18.5 8zM239 0v207h63v-207h-63zM102 540v-169h-62v169h62z" />
    <glyph glyph-name="afii10108" unicode="&#x45b;" horiz-adv-x="431" 
d="M391 258h-219v-258h-62v320h219v220h62v-282zM172 477v-106h-62v106h-85v63h233v-63h-86zM329 0v207h62v-207h-62z" />
    <glyph glyph-name="afii10109" unicode="&#x45c;" horiz-adv-x="310" 
d="M102 371v169h-62v-169h62zM102 258h63q43 0 67.5 33.5t24.5 69.5v80q0 15 9.5 25.5t24.5 10.5h4v63h-4q-40 0 -68.5 -29t-28.5 -70v-78q0 -17 -12 -30t-29 -13h-113v-320h62v258zM152 207l77 -207h66l-76 207h-67zM197 700l30 -38l-89 -66l-30 38z" />
    <glyph glyph-name="uni045D" unicode="&#x45d;" horiz-adv-x="368" 
d="M132 662l30 38l89 -66l-30 -38zM328 477h-44l-156 -477h-88v63h44l155 477h89v-63zM311 426h17v-426h-63v285zM57 114h-17v426h63v-283z" />
    <glyph glyph-name="afii10110" unicode="&#x45e;" horiz-adv-x="302" 
d="M61 700h49v-11q0 -8 6 -14.5t14 -6.5h62q8 0 14 6.5t6 14.5v11h49v-8q0 -30 -19 -50t-49 -20h-64q-30 0 -49 20t-19 50v8zM61 700h49v-11q0 -8 6 -14.5t14 -6.5h62q8 0 14 6.5t6 14.5v11h49v-8q0 -30 -19 -50t-49 -20h-64q-30 0 -49 20t-19 50v8zM94 241h70l60 299h63
l-110 -540h-63l37 178h-40zM79 540l65 -248h-63l-66 248h64z" />
    <glyph glyph-name="afii10193" unicode="&#x45f;" horiz-adv-x="341" 
d="M40 62h199v478h62v-540h-99v-101h-62v101h-100v62zM102 113h-62v427h62v-427z" />
    <glyph glyph-name="afii10146" unicode="&#x462;" horiz-adv-x="359" 
d="M20 540v51h57v109h66v-109h74v-51h-74v-71h92q39 0 66.5 -28t27.5 -66v-281q0 -39 -27.5 -66.5t-66.5 -27.5h-41v66h41q11 0 19.5 8.5t8.5 19.5v286q0 11 -8 19.5t-20 8.5h-158v132h-57zM143 0h-66v357h66v-357z" />
    <glyph glyph-name="afii10194" unicode="&#x463;" horiz-adv-x="348" 
d="M20 489v51h50v160h62v-160h85v-51h-85v-107h87q41 0 70 -29t29 -70v-184q0 -41 -29 -70t-70 -29h-35v62h46q10 0 18 8t8 18v206q0 10 -8 18t-18 8h-160v169h-50zM132 269v-269h-62v269h62z" />
    <glyph glyph-name="afii10147" unicode="&#x472;" horiz-adv-x="334" 
d="M193 634v66h7q39 0 66.5 -27.5t27.5 -66.5v-512q0 -39 -27.5 -66.5t-66.5 -27.5h-7v66h7q11 0 19.5 8t8.5 20v252q-9 -4 -23 -4q-21 0 -40.5 14t-30.5 14q-25 0 -28 -23v-253q0 -12 8.5 -20t19.5 -8h8v-66h-8q-38 0 -66 27.5t-28 66.5v512q0 39 28 66.5t66 27.5h8v-66h-8
q-11 0 -19.5 -8.5t-8.5 -19.5v-197q12 5 24 5q21 0 40.5 -13.5t32.5 -13.5q22 0 25 22v197q0 11 -8.5 19.5t-19.5 8.5h-7z" />
    <glyph glyph-name="afii10195" unicode="&#x473;" horiz-adv-x="340" 
d="M145 540v-63h-11q-13 0 -22 -9t-9 -22v-125q12 6 27 6q21 0 43.5 -13.5t35.5 -13.5q28 0 28 27v119q0 13 -9 22t-22 9h-10v63h10q38 0 66 -27.5t28 -66.5v-353q0 -38 -27.5 -65.5t-66.5 -27.5h-10v62h10q13 0 22 9t9 22v167q-13 -5 -26 -5q-21 0 -43.5 14t-33.5 14
q-28 0 -31 -24v-166q0 -13 9 -22t22 -9h11v-62h-11q-39 0 -66.5 27.5t-27.5 65.5v353q0 38 27.5 66t66.5 28h11z" />
    <glyph glyph-name="afii10148" unicode="&#x474;" horiz-adv-x="369" 
d="M112 66h57l80 544q7 44 32 72.5t68 28.5h5v-65h-5q-28 -3 -33 -36l-95 -610h-99zM104 117l-89 583h68l67 -443l-24 -140h-22z" />
    <glyph glyph-name="afii10196" unicode="&#x475;" horiz-adv-x="372" 
d="M78 540l74 -369l-12 -58h-38l-87 427h63zM112 62h68l79 398q16 85 93 85h5v-63h-4q-27 0 -34 -36l-91 -446h-103z" />
    <glyph glyph-name="afii10050" unicode="&#x490;" horiz-adv-x="251" 
d="M106 583v-583h-66v583h66zM241 634h-201v66h135v134h66v-200z" />
    <glyph glyph-name="afii10098" unicode="&#x491;" horiz-adv-x="256" 
d="M246 478h-206v62h144v160h62v-222zM40 427h62v-427h-62v427z" />
    <glyph glyph-name="uni0492" unicode="&#x492;" horiz-adv-x="301" 
d="M156 583v-180h81v-51h-81v-352h-66v352h-50v51h50v180h66zM291 634h-201v66h201v-66z" />
    <glyph glyph-name="uni0493" unicode="&#x493;" horiz-adv-x="310" 
d="M40 264v51h54v111h62v-111h81v-51h-81v-264h-62v264h-54zM300 477h-206v63h206v-63z" />
    <glyph glyph-name="uni0496" unicode="&#x496;" horiz-adv-x="492" 
d="M178 390h104q23 0 37.5 15t14.5 38v156q0 41 29.5 71t70.5 30h11v-66h-11q-14 -1 -24 -11.5t-10 -23.5v-162q0 -29 -15 -54t-41 -35l82 -283v1h55v-221h-66v155h-43l-91 329h-102l-92 -329h-72l100 348q-26 11 -41 35.5t-15 53.5v162q0 14 -9.5 24t-23.5 11h-11v66h11
q42 0 70.5 -29.5t28.5 -71.5v-155q0 -23 15 -38.5t38 -15.5zM197 278h66v-278h-66v278zM197 441v259h66v-259h-66z" />
    <glyph glyph-name="uni0497" unicode="&#x497;" horiz-adv-x="485" 
d="M169 306h133q17 0 29.5 12.5t12.5 29.5v93q0 41 29 70t70 29h13v-63h-13q-15 0 -26 -10.5t-11 -25.5v-94q0 -31 -16.5 -56t-43.5 -38l83 -191h56v-162h-62v100h-33l-107 244h-95l-107 -244h-66l111 253q-28 12 -44.5 37t-16.5 57v94q0 15 -11 25.5t-26 10.5h-12v63h12
q40 0 69.5 -29t29.5 -70v-93q0 -17 12.5 -29.5t29.5 -12.5zM204 193h63v-193h-63v193zM267 540v-183h-63v183h63z" />
    <glyph glyph-name="uni0498" unicode="&#x498;" horiz-adv-x="291" 
d="M185 201h66v-107q0 -38 -27.5 -66t-66.5 -28h-4v-33h4q23 0 40.5 -16.5t17.5 -40.5v-6q0 -23 -17 -41t-41 -18h-48v45h48q4 0 8 4t4 9v8q0 12 -12 12h-41v77q-38 1 -64.5 28.5t-26.5 65.5v107h66v-107q0 -11 8.5 -19.5t19.5 -8.5h38q12 0 20 8.5t8 19.5v107zM185 528v78
q0 12 -8.5 20t-19.5 8h-38q-11 0 -19.5 -8t-8.5 -20v-78h-66v78q0 39 28 66.5t66 27.5h38q39 0 66.5 -27.5t27.5 -66.5v-78h-66zM185 477h66v-4q0 -67 -53 -89q53 -19 53 -77v-55h-66v44q0 28 -13.5 39.5t-41.5 11.5h-33v61h33q26 0 40.5 18.5t14.5 46.5v4z" />
    <glyph glyph-name="uni0499" unicode="&#x499;" horiz-adv-x="296" 
d="M256 127v-34q0 -38 -27.5 -65.5t-65.5 -27.5h-12v-33h4q23 0 40.5 -16.5t17.5 -40.5v-6q0 -23 -17 -41t-41 -18h-48v45h48q4 0 8 4t4 9v8q0 12 -12 12h-41v77q-37 1 -63 28t-26 65v85h63v-85q0 -13 9 -22t22 -9h44q13 0 22 9t9 22v34h62zM256 394v-17q0 -61 -52 -88
q52 -16 52 -68v-43h-62v23q0 57 -59 57h-47v62h41q29 0 47 20.5t18 49.5v4h62zM256 444h-62v4q0 13 -9 21t-22 8h-44q-13 0 -22 -9t-9 -22v-52h-63v53q0 38 27.5 65.5t66.5 27.5h44q38 0 65.5 -26.5t27.5 -64.5v-5z" />
    <glyph glyph-name="uni049A" unicode="&#x49a;" horiz-adv-x="339" 
d="M40 408h96q23 0 36.5 14.5t13.5 37.5v139q0 41 29 71t70 30h5v-65h-5q-14 -2 -23.5 -12t-9.5 -24v-135q0 -43 -27 -80t-77 -37h-42v-347h-66v408zM214 296l59 -230h55v-221h-66v155h-40l-77 296h69zM106 459h-66v241h66v-241z" />
    <glyph glyph-name="uni049B" unicode="&#x49b;" horiz-adv-x="324" 
d="M160 258h-63v-258h-62v320h113q17 0 29 13t12 30v78q0 41 28.5 70t68.5 29h4v-63h-4q-15 0 -24.5 -10.5t-9.5 -25.5v-80q0 -36 -24.5 -69.5t-67.5 -33.5zM224 0l-77 207h67l53 -145h56v-162h-62v100h-37zM97 540v-169h-62v169h62z" />
    <glyph glyph-name="uni049C" unicode="&#x49c;" horiz-adv-x="367" 
d="M137 540h47v-132h10q24 0 39 14.5t15 37.5v139q0 41 29 71t70 30h5v-65h-5q-14 -2 -23.5 -12t-9.5 -24v-145q0 -28 -15 -53t-41 -36l94 -365h-68l-90 347h-10v-154h-47v347zM106 700v-700h-66v700h66z" />
    <glyph glyph-name="uni049D" unicode="&#x49d;" horiz-adv-x="367" 
d="M133 443h46v-123h31q17 0 29 13t12 30v78q0 41 28.5 70t68.5 29h4v-63h-4q-15 0 -24.5 -10.5t-9.5 -25.5v-80q0 -30 -16.5 -54.5t-44.5 -37.5l99 -269h-66l-96 258h-11v-162h-46v347zM102 540v-540h-62v540h62z" />
    <glyph glyph-name="uni04A0" unicode="&#x4a0;" horiz-adv-x="371" 
d="M280 296l76 -296h-68l-77 296h69zM106 408h96q23 0 36.5 14.5t13.5 37.5v139q0 41 29 71t70 30h5v-65h-5q-14 -2 -23.5 -12t-9.5 -24v-135q0 -43 -27 -80t-77 -37h-42v-347h-66v408zM106 459v180h-86v61h152v-241h-66z" />
    <glyph glyph-name="uni04A1" unicode="&#x4a1;" horiz-adv-x="380" 
d="M172 540v-169h-62v107h-90v62h152zM235 258h-63v-258h-62v320h113q17 0 29 13t12 30v78q0 41 28.5 70t68.5 29h4v-63h-4q-15 0 -24.5 -10.5t-9.5 -25.5v-80q0 -36 -24.5 -69.5t-67.5 -33.5zM299 0l-77 207h67l76 -207h-66z" />
    <glyph glyph-name="uni04A2" unicode="&#x4a2;" horiz-adv-x="361" 
d="M295 347h-189v-347h-66v408h189v292h66v-353zM229 296h66v-230h55v-221h-66v155h-55v296zM106 459h-66v241h66v-241z" />
    <glyph glyph-name="uni04A3" unicode="&#x4a3;" horiz-adv-x="353" 
d="M296 258h-199v-258h-62v320h199v220h62v-282zM234 0v207h62v-145h56v-162h-62v100h-56zM97 540v-169h-62v169h62z" />
    <glyph glyph-name="uni04AA" unicode="&#x4aa;" horiz-adv-x="311" 
d="M144 -80q0 -15 15 -15h23v-44h-39q-23 0 -35.5 15t-12.5 36q0 42 39 88q-38 0 -66 27.5t-28 66.5v253h66v-253q0 -12 8.5 -20t19.5 -8h43q11 0 19.5 8t8.5 20v107h66v-107q0 -39 -27.5 -66.5t-66.5 -27.5q-33 -41 -33 -80zM205 528v78q0 11 -8 19.5t-20 8.5h-43
q-11 0 -19.5 -8.5t-8.5 -19.5v-208h-66v208q0 39 28 66.5t66 27.5h43q39 0 66.5 -27.5t27.5 -66.5v-78h-66z" />
    <glyph glyph-name="uni04AB" unicode="&#x4ab;" horiz-adv-x="316" 
d="M149 -80q0 -15 15 -15h23v-44h-39q-23 0 -35.5 15t-12.5 36q0 42 39 88h-6q-38 0 -65.5 27.5t-27.5 65.5v170h62v-170q0 -13 9 -22t22 -9h49q13 0 22 9t9 22v85h63v-85q0 -38 -27.5 -65.5t-66.5 -27.5q-33 -41 -33 -80zM40 314v132q0 39 27.5 66.5t65.5 27.5h49
q39 0 66.5 -27.5t27.5 -66.5v-52h-63v52q0 13 -9 22t-22 9h-49q-13 0 -22 -9t-9 -22v-132h-62z" />
    <glyph glyph-name="uni04AE" unicode="&#x4ae;" horiz-adv-x="313" 
d="M122 306l113 394h68l-115 -380v-254h57v-66h-180v66h57v240zM130 513l-32 -111l-88 298h68z" />
    <glyph glyph-name="uni04AF" unicode="&#x4af;" horiz-adv-x="321" 
d="M193 207v-145h61v-62h-184v62h60v145h63zM204 258h-85l-109 282h67l81 -220h7l79 220h67z" />
    <glyph glyph-name="uni04B0" unicode="&#x4b0;" horiz-adv-x="313" 
d="M57 264v51h67l111 385h68l-115 -380v-5h66v-51h-66v-198h57v-66h-180v66h57v198h-65zM130 513l-32 -111l-88 298h68z" />
    <glyph glyph-name="uni04B1" unicode="&#x4b1;" horiz-adv-x="321" 
d="M261 207h-197v51h55l-109 282h67l81 -220h7l79 220h67l-107 -282h57v-51zM193 156v-94h61v-62h-184v62h60v94h63z" />
    <glyph glyph-name="uni04B2" unicode="&#x4b2;" horiz-adv-x="389" 
d="M179 416l85 284h69l-98 -325l12 -41h-68l-95 -334h-69l107 375l-12 41h69zM261 283l63 -217h55v-221h-66v155h-38l-81 283h67zM164 467h-69l-69 233h68z" />
    <glyph glyph-name="uni04B3" unicode="&#x4b3;" horiz-adv-x="363" 
d="M144 371h-62l-61 169h67zM236 258h-75l-85 -258h-66l102 289l-11 31h74l74 220h67l-91 -251zM262 0l-69 207h61l52 -145h47v-162h-62v100h-29z" />
    <glyph glyph-name="uni04B8" unicode="&#x4b8;" horiz-adv-x="333" 
d="M293 347v-347h-66v285h-33v-92h-47v92h-13q-39 0 -66.5 27.5t-27.5 66.5v321h66v-325q0 -11 8.5 -19.5t19.5 -8.5h13v193h47v-193h99zM293 409h-66v291h66v-291z" />
    <glyph glyph-name="uni04B9" unicode="&#x4b9;" horiz-adv-x="338" 
d="M194 258h104v-258h-63v196h-41v-100h-46v100h-9q-41 0 -70 29t-29 70v245h62v-256q0 -10 8 -18t18 -8h20v185h46v-185zM298 540v-231h-63v231h63z" />
    <glyph glyph-name="uni04BA" unicode="&#x4ba;" 
d="M106 286v-286h-66v286h66zM201 347h-161v353h66v-292h95q39 0 66.5 -28t27.5 -66v-314h-66v319q0 11 -8.5 19.5t-19.5 8.5z" />
    <glyph glyph-name="uni04BB" unicode="&#x4bb;" horiz-adv-x="341" 
d="M208 258h-168v282h62v-220h106q38 0 65.5 -27.5t27.5 -66.5v-226h-62v227q0 13 -9 22t-22 9zM40 197h62v-197h-62v197z" />
    <glyph glyph-name="uni04D0" unicode="&#x4d0;" horiz-adv-x="349" 
d="M240 155h67l22 -155h-66zM301 206h-185l-29 -206h-67l37 267h169l-49 368h-5l-42 -317h-66l51 382h119zM74 828h49v-11q0 -8 6 -14.5t14 -6.5h62q8 0 14 6.5t6 14.5v11h49v-8q0 -30 -19 -50t-49 -20h-64q-30 0 -49 20t-19 50v8z" />
    <glyph glyph-name="uni04D1" unicode="&#x4d1;" horiz-adv-x="348" 
d="M241 128h63l24 -128h-64zM295 179h-178l-34 -179h-63l45 241h155l-44 237h-4l-34 -186h-63l46 248h106zM74 700h49v-11q0 -8 6 -14.5t14 -6.5h62q8 0 14 6.5t6 14.5v11h49v-8q0 -30 -19 -50t-49 -20h-64q-30 0 -49 20t-19 50v8z" />
    <glyph glyph-name="uni04D2" unicode="&#x4d2;" horiz-adv-x="349" 
d="M203 821h60v-71h-60v71zM86 821h61v-71h-61v71zM240 155h67l22 -155h-66zM301 206h-185l-29 -206h-67l37 267h169l-49 368h-5l-42 -317h-66l51 382h119zM203 821h60v-71h-60v71zM86 821h61v-71h-61v71z" />
    <glyph glyph-name="uni04D3" unicode="&#x4d3;" horiz-adv-x="348" 
d="M203 700h60v-71h-60v71zM86 700h61v-71h-61v71zM241 128h63l24 -128h-64zM295 179h-178l-34 -179h-63l45 241h155l-44 237h-4l-34 -186h-63l46 248h106zM203 700h60v-71h-60v71zM86 700h61v-71h-61v71z" />
    <glyph glyph-name="uni04D4" unicode="&#x4d4;" horiz-adv-x="479" 
d="M325 150v-84h124v-66h-191v150h67zM325 201h-194l-44 -201h-67l56 262h182v321h67v-175h109v-61h-109v-146zM449 634h-227l-68 -321h-67l83 387h279v-66z" />
    <glyph glyph-name="uni04D5" unicode="&#x4d5;" horiz-adv-x="484" 
d="M454 477h-232l-54 -186h-63l72 249h277v-63zM260 426h62v-106h117v-62h-117v-80h-185l-52 -178h-65l70 240h170v186zM260 127h62v-65h132v-62h-194v127z" />
    <glyph glyph-name="uni04D6" unicode="&#x4d6;" horiz-adv-x="270" 
d="M45 66h190v-66h-190v66zM111 117h-66v466h66v-175h109v-61h-109v-230zM45 634v66h191v-66h-191zM40 828h49v-11q0 -8 6 -14.5t14 -6.5h62q8 0 14 6.5t6 14.5v11h49v-8q0 -30 -19 -50t-49 -20h-64q-30 0 -49 20t-19 50v8z" />
    <glyph glyph-name="uni04D7" unicode="&#x4d7;" horiz-adv-x="270" 
d="M43 207h62v-145h132v-62h-194v207zM43 426h62v-106h117v-62h-179v168zM43 477v63h194v-63h-194zM40 700h49v-11q0 -8 6 -14.5t14 -6.5h62q8 0 14 6.5t6 14.5v11h49v-8q0 -30 -19 -50t-49 -20h-64q-30 0 -49 20t-19 50v8z" />
    <glyph glyph-name="uni04D8" unicode="&#x4d8;" horiz-adv-x="311" 
d="M205 94v253h-165v259q0 39 27.5 66.5t66.5 27.5h43q38 0 66 -27.5t28 -66.5v-137h-66v137q0 11 -8.5 19.5t-19.5 8.5h-43q-12 0 -20 -8.5t-8 -19.5v-198h165v-314q0 -39 -28 -66.5t-66 -27.5h-43q-39 0 -66.5 27.5t-27.5 66.5v107h66v-107q0 -12 8.5 -20t19.5 -8h43
q11 0 19.5 8t8.5 20z" />
    <glyph glyph-name="afii10846" unicode="&#x4d9;" horiz-adv-x="316" 
d="M103 320h173v-227q0 -38 -27.5 -65.5t-65.5 -27.5h-49q-39 0 -66.5 27.5t-27.5 65.5v85h63v-85q0 -13 9 -22t22 -9h49q13 0 22 9t9 22v165h-174v188q0 39 27.5 66.5t66.5 27.5h49q38 0 65.5 -27.5t27.5 -66.5v-64h-62v64q0 13 -9 22t-22 9h-49q-13 0 -22 -9t-9 -22v-126z
" />
    <glyph glyph-name="uni04DA" unicode="&#x4da;" horiz-adv-x="311" 
d="M184 821h60v-71h-60v71zM67 821h61v-71h-61v71zM205 94v253h-165v259q0 39 27.5 66.5t66.5 27.5h43q38 0 66 -27.5t28 -66.5v-137h-66v137q0 11 -8.5 19.5t-19.5 8.5h-43q-12 0 -20 -8.5t-8 -19.5v-198h165v-314q0 -39 -28 -66.5t-66 -27.5h-43q-39 0 -66.5 27.5
t-27.5 66.5v107h66v-107q0 -12 8.5 -20t19.5 -8h43q11 0 19.5 8t8.5 20zM184 821h60v-71h-60v71zM67 821h61v-71h-61v71z" />
    <glyph glyph-name="uni04DB" unicode="&#x4db;" horiz-adv-x="316" 
d="M187 700h60v-71h-60v71zM70 700h61v-71h-61v71zM103 320h173v-227q0 -38 -27.5 -65.5t-65.5 -27.5h-49q-39 0 -66.5 27.5t-27.5 65.5v85h63v-85q0 -13 9 -22t22 -9h49q13 0 22 9t9 22v165h-174v188q0 39 27.5 66.5t66.5 27.5h49q38 0 65.5 -27.5t27.5 -66.5v-64h-62v64
q0 13 -9 22t-22 9h-49q-13 0 -22 -9t-9 -22v-126zM187 700h60v-71h-60v71zM70 700h61v-71h-61v71z" />
    <glyph glyph-name="uni04DC" unicode="&#x4dc;" horiz-adv-x="460" 
d="M259 821h60v-71h-60v71zM142 821h61v-71h-61v71zM197 278h66v-278h-66v278zM178 390h104q23 0 37.5 15t14.5 38v156q0 41 29.5 71t70.5 30h11v-66h-11q-14 -1 -24 -11.5t-10 -23.5v-162q0 -29 -15 -54t-41 -35l101 -348h-73l-91 329h-102l-92 -329h-72l100 348
q-26 11 -41 35.5t-15 53.5v162q0 14 -9.5 24t-23.5 11h-11v66h11q42 0 70.5 -29.5t28.5 -71.5v-155q0 -23 15 -38.5t38 -15.5zM197 441v259h66v-259h-66zM259 821h60v-71h-60v71zM142 821h61v-71h-61v71z" />
    <glyph glyph-name="uni04DD" unicode="&#x4dd;" horiz-adv-x="471" 
d="M267 540v-183h-63v183h63zM169 306h133q17 0 29.5 12.5t12.5 29.5v93q0 41 29 70t70 29h13v-63h-13q-15 0 -26 -10.5t-11 -25.5v-94q0 -31 -16.5 -56t-43.5 -38l110 -253h-66l-107 244h-95l-107 -244h-66l111 253q-28 12 -44.5 37t-16.5 57v94q0 15 -11 25.5t-26 10.5
h-12v63h12q40 0 69.5 -29t29.5 -70v-93q0 -17 12.5 -29.5t29.5 -12.5zM204 193h63v-193h-63v193zM264 700h60v-71h-60v71zM147 700h61v-71h-61v71z" />
    <glyph glyph-name="uni04DE" unicode="&#x4de;" horiz-adv-x="291" 
d="M185 201h66v-107q0 -38 -27.5 -66t-66.5 -28h-38q-38 0 -66 27.5t-28 66.5v107h66v-107q0 -11 8.5 -19.5t19.5 -8.5h38q12 0 20 8.5t8 19.5v107zM185 477h66v-4q0 -67 -53 -89q53 -19 53 -77v-55h-66v44q0 28 -13.5 39.5t-41.5 11.5h-33v61h33q26 0 40.5 18.5t14.5 46.5
v4zM185 528v78q0 12 -8.5 20t-19.5 8h-38q-11 0 -19.5 -8t-8.5 -20v-78h-66v78q0 39 28 66.5t66 27.5h38q39 0 66.5 -27.5t27.5 -66.5v-78h-66zM167 821h60v-71h-60v71zM50 821h61v-71h-61v71z" />
    <glyph glyph-name="uni04DF" unicode="&#x4df;" horiz-adv-x="296" 
d="M256 127v-34q0 -38 -27.5 -65.5t-65.5 -27.5h-44q-39 0 -66.5 27.5t-27.5 65.5v85h63v-85q0 -13 9 -22t22 -9h44q13 0 22 9t9 22v34h62zM256 394v-17q0 -61 -52 -88q52 -16 52 -68v-43h-62v23q0 57 -59 57h-47v62h41q29 0 47 20.5t18 49.5v4h62zM256 444h-62v4
q0 13 -9 21t-22 8h-44q-13 0 -22 -9t-9 -22v-52h-63v53q0 38 27.5 65.5t66.5 27.5h44q38 0 65.5 -26.5t27.5 -64.5v-5zM169 700h60v-71h-60v71zM52 700h61v-71h-61v71z" />
    <glyph glyph-name="uni04E2" unicode="&#x4e2;" horiz-adv-x="362" 
d="M83 814h191v-51h-191v51zM106 700v-360l-51 -213h-15v573h66zM322 634h-39l-158 -634h-85v66h39l158 634h85v-66zM256 0v360l51 213h15v-573h-66z" />
    <glyph glyph-name="uni04E3" unicode="&#x4e3;" horiz-adv-x="368" 
d="M328 477h-44l-156 -477h-88v63h44l155 477h89v-63zM311 426h17v-426h-63v285zM57 114h-17v426h63v-283zM92 700h191v-51h-191v51z" />
    <glyph glyph-name="uni04E4" unicode="&#x4e4;" horiz-adv-x="362" 
d="M207 821h60v-71h-60v71zM90 821h61v-71h-61v71zM106 700v-360l-51 -213h-15v573h66zM322 634h-39l-158 -634h-85v66h39l158 634h85v-66zM256 0v360l51 213h15v-573h-66z" />
    <glyph glyph-name="uni04E5" unicode="&#x4e5;" horiz-adv-x="368" 
d="M327 477h-44l-156 -477h-88v63h44l155 477h89v-63zM310 426h17v-426h-63v285zM56 114h-17v426h63v-283zM215 700h60v-71h-60v71zM98 700h61v-71h-61v71z" />
    <glyph glyph-name="uni04E6" unicode="&#x4e6;" horiz-adv-x="334" 
d="M142 634h-8q-11 0 -19.5 -8.5t-8.5 -19.5v-512q0 -12 8.5 -20t19.5 -8h8v-66h-8q-38 0 -66 27.5t-28 66.5v512q0 39 28 66.5t66 27.5h8v-66zM193 634v66h7q39 0 66.5 -27.5t27.5 -66.5v-512q0 -39 -27.5 -66.5t-66.5 -27.5h-7v66h7q11 0 19.5 8t8.5 20v512
q0 11 -8.5 19.5t-19.5 8.5h-7zM196 821h60v-71h-60v71zM79 821h61v-71h-61v71z" />
    <glyph glyph-name="uni04E7" unicode="&#x4e7;" horiz-adv-x="340" 
d="M206 477h-10v63h10q38 0 66 -27.5t28 -66.5v-353q0 -38 -27.5 -65.5t-66.5 -27.5h-10v62h10q13 0 22 9t9 22v353q0 13 -9 22t-22 9zM145 540v-63h-11q-13 0 -22 -9t-9 -22v-353q0 -13 9 -22t22 -9h11v-62h-11q-39 0 -66.5 27.5t-27.5 65.5v353q0 38 27.5 66t66.5 28h11z
M199 700h60v-71h-60v71zM82 700h61v-71h-61v71z" />
    <glyph glyph-name="uni04E8" unicode="&#x4e8;" horiz-adv-x="334" 
d="M193 634v66h7q39 0 66.5 -27.5t27.5 -66.5v-512q0 -39 -27.5 -66.5t-66.5 -27.5h-7v66h7q11 0 19.5 8t8.5 20v253h-122v-253q0 -12 8.5 -20t19.5 -8h8v-66h-8q-38 0 -66 27.5t-28 66.5v512q0 39 28 66.5t66 27.5h8v-66h-8q-11 0 -19.5 -8.5t-8.5 -19.5v-198h122v198
q0 11 -8.5 19.5t-19.5 8.5h-7z" />
    <glyph glyph-name="uni04E9" unicode="&#x4e9;" horiz-adv-x="340" 
d="M145 540v-63h-11q-13 0 -22 -9t-9 -22v-126h134v126q0 13 -9 22t-22 9h-10v63h10q38 0 66 -27.5t28 -66.5v-353q0 -38 -27.5 -65.5t-66.5 -27.5h-10v62h10q13 0 22 9t9 22v165h-134v-165q0 -13 9 -22t22 -9h11v-62h-11q-39 0 -66.5 27.5t-27.5 65.5v353q0 38 27.5 66
t66.5 28h11z" />
    <glyph glyph-name="uni04EA" unicode="&#x4ea;" horiz-adv-x="334" 
d="M193 634v66h7q39 0 66.5 -27.5t27.5 -66.5v-512q0 -39 -27.5 -66.5t-66.5 -27.5h-7v66h7q11 0 19.5 8t8.5 20v253h-122v-253q0 -12 8.5 -20t19.5 -8h8v-66h-8q-38 0 -66 27.5t-28 66.5v512q0 39 28 66.5t66 27.5h8v-66h-8q-11 0 -19.5 -8.5t-8.5 -19.5v-198h122v198
q0 11 -8.5 19.5t-19.5 8.5h-7zM196 821h60v-71h-60v71zM79 821h61v-71h-61v71z" />
    <glyph glyph-name="uni04EB" unicode="&#x4eb;" horiz-adv-x="340" 
d="M145 540v-63h-11q-13 0 -22 -9t-9 -22v-126h134v126q0 13 -9 22t-22 9h-10v63h10q38 0 66 -27.5t28 -66.5v-353q0 -38 -27.5 -65.5t-66.5 -27.5h-10v62h10q13 0 22 9t9 22v165h-134v-165q0 -13 9 -22t22 -9h11v-62h-11q-39 0 -66.5 27.5t-27.5 65.5v353q0 38 27.5 66
t66.5 28h11zM199 700h60v-71h-60v71zM82 700h61v-71h-61v71z" />
    <glyph glyph-name="uni04EC" unicode="&#x4ec;" horiz-adv-x="277" 
d="M91 408h146v-314q0 -39 -28 -66.5t-66 -27.5h-29q-39 0 -66.5 27.5t-27.5 66.5v107h66v-107q0 -11 8.5 -19.5t19.5 -8.5h29q11 0 19.5 8.5t8.5 19.5v253h-80v61zM171 459v147q0 12 -8.5 20t-19.5 8h-29q-11 0 -19.5 -8t-8.5 -20v-78h-66v78q0 39 27.5 66.5t66.5 27.5h29
q38 0 66 -27.5t28 -66.5v-147h-66zM157 821h60v-71h-60v71zM40 821h61v-71h-61v71z" />
    <glyph glyph-name="uni04ED" unicode="&#x4ed;" horiz-adv-x="281" 
d="M241 320v-227q0 -38 -27.5 -65.5t-66.5 -27.5h-34q-38 0 -65.5 27.5t-27.5 65.5v85h62v-85q0 -13 9 -22t22 -9h34q13 0 22.5 9t9.5 22v165h-97v62h159zM241 371h-62v75q0 13 -9.5 22t-22.5 9h-34q-13 0 -22 -9t-9 -22v-52h-62v53q0 38 27.5 65.5t65.5 27.5h34
q39 0 66.5 -27.5t27.5 -65.5v-76zM159 700h60v-71h-60v71zM42 700h61v-71h-61v71z" />
    <glyph glyph-name="uni04EE" unicode="&#x4ee;" horiz-adv-x="292" 
d="M81 267h79l50 433h67l-81 -700h-67l24 201h-61zM73 318l-63 382h67l62 -382h-66zM48 814h191v-51h-191v51z" />
    <glyph glyph-name="uni04EF" unicode="&#x4ef;" horiz-adv-x="302" 
d="M56 700h191v-51h-191v51zM94 241h70l60 299h63l-110 -540h-63l37 178h-40zM79 540l65 -248h-63l-66 248h64z" />
    <glyph glyph-name="uni04F0" unicode="&#x4f0;" horiz-adv-x="292" 
d="M81 267h79l50 433h67l-81 -700h-67l24 201h-61zM73 318l-63 382h67l62 -382h-66zM172 821h60v-71h-60v71zM55 821h61v-71h-61v71z" />
    <glyph glyph-name="uni04F1" unicode="&#x4f1;" horiz-adv-x="302" 
d="M180 700h60v-71h-60v71zM63 700h61v-71h-61v71zM94 241h70l60 299h63l-110 -540h-63l37 178h-40zM79 540l65 -248h-63l-66 248h64z" />
    <glyph glyph-name="uni04F2" unicode="&#x4f2;" horiz-adv-x="297" 
d="M81 267h79l50 433h67l-81 -700h-67l24 201h-61zM73 318l-63 382h67l62 -382h-66zM134 854l30 -38l-89 -66l-30 38zM252 854l30 -38l-89 -66l-30 38z" />
    <glyph glyph-name="uni04F3" unicode="&#x4f3;" horiz-adv-x="309" 
d="M146 700l30 -38l-89 -66l-30 38zM264 700l30 -38l-89 -66l-30 38zM164 241h-70l17 -63h40l-37 -178h63l110 540h-63zM144 292l-65 248h-64l66 -248h63z" />
    <glyph glyph-name="uni04F4" unicode="&#x4f4;" horiz-adv-x="333" 
d="M293 347v-347h-66v285h-93q-39 0 -66.5 27.5t-27.5 66.5v321h66v-325q0 -11 8.5 -19.5t19.5 -8.5h159zM293 409h-66v291h66v-291zM195 821h60v-71h-60v71zM78 821h61v-71h-61v71z" />
    <glyph glyph-name="uni04F5" unicode="&#x4f5;" horiz-adv-x="338" 
d="M298 540v-231h-63v231h63zM128 258h170v-258h-63v196h-96q-41 0 -70 29t-29 70v245h62v-256q0 -10 8 -18t18 -8zM198 700h60v-71h-60v71zM81 700h61v-71h-61v71z" />
    <glyph glyph-name="uni04F8" unicode="&#x4f8;" horiz-adv-x="451" 
d="M345 0v700h66v-700h-66zM106 0h-66v357h66v-357zM106 700v-231h92q39 0 66.5 -28t27.5 -66v-281q0 -39 -27.5 -66.5t-66.5 -27.5h-41v66h41q11 0 19.5 8.5t8.5 19.5v286q0 11 -8 19.5t-20 8.5h-158v292h66zM254 821h60v-71h-60v71zM137 821h61v-71h-61v71z" />
    <glyph glyph-name="uni04F9" unicode="&#x4f9;" horiz-adv-x="449" 
d="M409 0h-63v540h63v-540zM187 0h-33v62h44q10 0 18 8t8 18v206q0 10 -8 18t-18 8h-158v220h63v-158h84q41 0 70 -29t29 -70v-184q0 -41 -29 -70t-70 -29zM103 269v-269h-63v269h63zM258 700h60v-71h-60v71zM141 700h61v-71h-61v71z" />
    <glyph glyph-name="Wgrave" unicode="&#x1e80;" horiz-adv-x="536" 
d="M366 66h58l-10 -66h-96l-48 411h-4l-49 -411h-96l-10 66h58l38 331l28 165l-19 138h105l-20 -138l28 -165zM412 117l-18 167l55 416h67l-85 -583h-19zM142 282l-19 -165h-19l-84 583h66zM209 816l30 38l89 -66l-30 -38z" />
    <glyph glyph-name="wgrave" unicode="&#x1e81;" horiz-adv-x="547" 
d="M139 113h-37l-82 427h63l68 -361zM527 540l-83 -427h-36l-13 66l68 361h64zM366 62h68l-12 -62h-105l-44 258l-44 -258h-105l-12 62h68l61 333l-28 145h119l-27 -145zM214 662l30 38l89 -66l-30 -38z" />
    <glyph glyph-name="Wacute" unicode="&#x1e82;" horiz-adv-x="536" 
d="M366 66h58l-10 -66h-96l-48 411h-4l-49 -411h-96l-10 66h58l38 331l28 165l-19 138h105l-20 -138l28 -165zM412 117l-18 167l55 416h67l-85 -583h-19zM142 282l-19 -165h-19l-84 583h66zM298 854l30 -38l-89 -66l-30 38z" />
    <glyph glyph-name="wacute" unicode="&#x1e83;" horiz-adv-x="547" 
d="M102 113h37l12 66l-68 361h-63zM444 113l83 427h-64l-68 -361l13 -66h36zM434 62h-68l-61 333l27 145h-119l28 -145l-61 -333h-68l12 -62h105l44 258l44 -258h105zM303 700l30 -38l-89 -66l-30 38z" />
    <glyph glyph-name="Wdieresis" unicode="&#x1e84;" horiz-adv-x="536" 
d="M366 66h58l-10 -66h-96l-48 411h-4l-49 -411h-96l-10 66h58l38 331l28 165l-19 138h105l-20 -138l28 -165zM412 117l-18 167l55 416h67l-85 -583h-19zM142 282l-19 -165h-19l-84 583h66zM297 821h60v-71h-60v71zM180 821h61v-71h-61v71z" />
    <glyph glyph-name="wdieresis" unicode="&#x1e85;" horiz-adv-x="547" 
d="M139 113h-37l-82 427h63l68 -361zM527 540l-83 -427h-36l-13 66l68 361h64zM366 62h68l-12 -62h-105l-44 258l-44 -258h-105l-12 62h68l61 333l-28 145h119l-27 -145zM302 700h60v-71h-60v71zM185 700h61v-71h-61v71z" />
    <glyph glyph-name="germandblS" unicode="&#x1e9e;" horiz-adv-x="425" 
d="M359 634h-225q-11 0 -19.5 -8.5t-8.5 -19.5v-606h-66v606q0 39 28 66.5t66 27.5h225v-66zM385 201v-107q0 -39 -28 -66.5t-66 -27.5h-44q-39 0 -66.5 27.5t-27.5 66.5v107h66v-107q0 -12 8.5 -20t19.5 -8h44q11 0 19.5 8t8.5 20v107h66zM385 252h-66v105q0 11 -8.5 19.5
t-19.5 8.5h-27q-32 0 -50 -37l-59 29l105 206h75l-65 -132h21q38 0 66 -27.5t28 -66.5v-105z" />
    <glyph glyph-name="Ygrave" unicode="&#x1ef2;" horiz-adv-x="313" 
d="M122 306l113 394h68l-115 -380v-254h57v-66h-180v66h57v240zM130 513l-32 -111l-88 298h68zM97 816l30 38l89 -66l-30 -38z" />
    <glyph glyph-name="ygrave" unicode="&#x1ef3;" horiz-adv-x="321" 
d="M193 207v-145h61v-62h-184v62h60v145h63zM204 258h-85l-109 282h67l81 -220h7l79 220h67zM101 662l30 38l89 -66l-30 -38z" />
    <glyph glyph-name="endash" unicode="&#x2013;" horiz-adv-x="439" 
d="M30 350h379v-54h-379v54z" />
    <glyph glyph-name="emdash" unicode="&#x2014;" horiz-adv-x="519" 
d="M30 350h459v-54h-459v54z" />
    <glyph glyph-name="quoteleft" unicode="&#x2018;" horiz-adv-x="131" 
d="M101 521h-71v71l48 108h23l-26 -108h26v-71z" />
    <glyph glyph-name="quoteright" unicode="&#x2019;" horiz-adv-x="131" 
d="M30 700h71v-71l-48 -108h-23l26 108h-26v71z" />
    <glyph glyph-name="quotesinglbase" unicode="&#x201a;" horiz-adv-x="131" 
d="M30 71h71v-71l-48 -108h-23l26 108h-26v71z" />
    <glyph glyph-name="quotedblleft" unicode="&#x201c;" horiz-adv-x="250" 
d="M220 521h-71v71l48 108h23l-26 -108h26v-71zM101 521h-71v71l48 108h23l-26 -108h26v-71z" />
    <glyph glyph-name="quotedblright" unicode="&#x201d;" horiz-adv-x="250" 
d="M30 700h71v-71l-48 -108h-23l26 108h-26v71zM149 700h71v-71l-48 -108h-23l26 108h-26v71z" />
    <glyph glyph-name="quotedblbase" unicode="&#x201e;" horiz-adv-x="261" 
d="M160 71h71v-71l-48 -108h-23l26 108h-26v71zM30 71h71v-71l-48 -108h-23l26 108h-26v71z" />
    <glyph glyph-name="dagger" unicode="&#x2020;" horiz-adv-x="329" 
d="M299 489h-269v51h109v160h51v-160h109v-51zM139 438h51v-438h-51v438z" />
    <glyph glyph-name="bullet" unicode="&#x2022;" horiz-adv-x="236" 
d="M118 470q37 0 62.5 -25.5t25.5 -62.5q0 -36 -26 -61.5t-62 -25.5t-62 25.5t-26 61.5q0 37 25.5 62.5t62.5 25.5z" />
    <glyph glyph-name="ellipsis" unicode="&#x2026;" horiz-adv-x="458" 
d="M357 0v71h71v-71h-71zM30 0v71h71v-71h-71zM195 0v71h71v-71h-71z" />
    <glyph glyph-name="perthousand" unicode="&#x2030;" horiz-adv-x="636" 
d="M379 491l28 -38l-349 -247l-28 39zM199 524h48v-43q0 -38 -26 -62.5t-65 -24.5h-4q-38 0 -64.5 24.5t-26.5 62.5v43h48v-41q0 -42 45 -42t45 42v41zM247 613v-38h-48v34q0 45 -45 45t-45 -45v-34h-48v38q0 37 26 62t65 25h4q40 0 65.5 -24.5t25.5 -62.5zM560 130h48v-43
q0 -38 -26 -62.5t-65 -24.5h-4q-38 0 -64.5 24.5t-26.5 62.5v43h48v-41q0 -42 45 -42t45 42v41zM608 219v-38h-48v34q0 45 -45 45t-45 -45v-34h-48v38q0 37 26 62t65 25h4q40 0 65.5 -24.5t25.5 -62.5zM333 130h48v-43q0 -38 -26 -62.5t-65 -24.5h-4q-38 0 -64.5 24.5
t-26.5 62.5v43h48v-41q0 -42 45 -42t45 42v41zM381 219v-38h-48v34q0 45 -45 45t-45 -45v-34h-48v38q0 37 26 62t65 25h4q40 0 65.5 -24.5t25.5 -62.5z" />
    <glyph glyph-name="guilsinglleft" unicode="&#x2039;" horiz-adv-x="197" 
d="M122 472h45l-67 -202l67 -203h-45l-92 203z" />
    <glyph glyph-name="guilsinglright" unicode="&#x203a;" horiz-adv-x="197" 
d="M30 472h45l92 -202l-92 -203h-45l67 203z" />
    <glyph glyph-name="uni205E" unicode="&#x205e;" horiz-adv-x="120" 
d="M30 71h60v-71h-60v71zM30 700h60v-72h-60v72zM30 282h60v-72h-60v72zM30 491h60v-72h-60v72z" />
    <glyph glyph-name="Euro" unicode="&#x20ac;" horiz-adv-x="328" 
d="M30 329h208v-49h-89v-188q0 -13 9 -22t22 -9h27q13 0 22 9t9 22v109h60v-109q0 -38 -26.5 -65t-64.5 -27h-27q-38 0 -64.5 27t-26.5 65v188h-59v49zM238 394h-208v50h59v165q0 37 26.5 64t64.5 27h27q37 0 64 -27t27 -64v-81h-60v81q0 13 -9 22t-22 9h-27q-13 0 -22 -9
t-9 -22v-165h89v-50z" />
    <glyph glyph-name="centigrade" unicode="&#x2103;" horiz-adv-x="555" 
d="M388 66h43q11 0 19.5 8t8.5 20v107h66v-107q0 -39 -27.5 -66.5t-66.5 -27.5h-43q-38 0 -66 27.5t-28 66.5v253h66v-253q0 -12 8.5 -20t19.5 -8zM459 528v78q0 11 -8 19.5t-20 8.5h-43q-11 0 -19.5 -8.5t-8.5 -19.5v-208h-66v208q0 39 28 66.5t66 27.5h43q39 0 66.5 -27.5
t27.5 -66.5v-78h-66zM118 536v-46q-38 8 -63 38.5t-25 70.5q0 46 33 79t80 33q46 0 78.5 -33.5t32.5 -78.5q0 -39 -24 -69.5t-61 -39.5v47q41 17 41 62q0 27 -20 47t-47 20q-28 0 -48 -19.5t-20 -47.5q0 -22 12 -39t31 -24z" />
    <glyph glyph-name="fahrenheit" unicode="&#x2109;" horiz-adv-x="522" 
d="M118 536v-46q-38 8 -63 38.5t-25 70.5q0 46 33 79t80 33q46 0 78.5 -33.5t32.5 -78.5q0 -39 -24 -69.5t-61 -39.5v47q41 17 41 62q0 27 -20 47t-47 20q-28 0 -48 -19.5t-20 -47.5q0 -22 12 -39t31 -24zM301 296h66v-296h-66v296zM301 347v353h191v-66h-125v-226h110v-61
h-176z" />
    <glyph glyph-name="afii61352" unicode="&#x2116;" horiz-adv-x="583" 
d="M553 347h-55v-65q0 -16 -11.5 -25.5t-26.5 -9.5q-14 0 -26.5 10t-12.5 25v65h-55v-65q0 -37 26.5 -61.5t64.5 -24.5h5q38 0 64.5 24.5t26.5 61.5v65zM553 398v61q0 37 -26.5 61.5t-64.5 24.5h-5q-38 0 -64.5 -24.5t-26.5 -61.5v-61h55v61q0 35 39 35q15 0 26.5 -9.5
t11.5 -25.5v-61h55zM376 134v-50h167v50h-167zM96 360v-360h-66v573h15zM273 66h39v-66h-85l-158 634h-39v66h85zM246 340v360h66v-573h-15z" />
    <glyph glyph-name="trademark" unicode="&#x2122;" horiz-adv-x="355" 
d="M133 671h-36v-276h-31v276h-36v29h103v-29zM282 700h43v-305h-31v80l10 184l-45 -264h-33l-44 264l10 -184v-80h-31v305h43l39 -259z" />
    <glyph glyph-name="arrowleft" unicode="&#x2190;" horiz-adv-x="461" 
d="M431 377v-51h-309l86 -72l-33 -38l-145 124v26l145 122l33 -39l-86 -72h309z" />
    <glyph glyph-name="arrowup" unicode="&#x2191;" horiz-adv-x="332" 
d="M191 151h-51v308l-72 -85l-38 33l124 145h26l122 -145l-39 -33l-72 85v-308z" />
    <glyph glyph-name="arrowright" unicode="&#x2192;" horiz-adv-x="461" 
d="M30 326v51h309l-86 72l33 39l145 -122v-26l-145 -124l-33 38l86 72h-309z" />
    <glyph glyph-name="arrowdown" unicode="&#x2193;" horiz-adv-x="332" 
d="M140 552h51v-308l72 85l39 -33l-122 -145h-26l-124 145l38 33l72 -85v308z" />
    <glyph glyph-name="arrowboth" unicode="&#x2194;" horiz-adv-x="760" 
d="M122 325l86 -72l-33 -38l-145 124v26l145 122l33 -39l-86 -72h516l-86 72l33 39l145 -122v-26l-145 -124l-33 38l86 72h-516z" />
    <glyph glyph-name="arrowupdn" unicode="&#x2195;" horiz-adv-x="332" 
d="M140 608l-72 -86l-38 33l124 145h26l122 -145l-39 -33l-72 86v-516l72 86l39 -33l-122 -145h-26l-124 145l38 33l72 -86v516z" />
    <glyph glyph-name="arrowupleft" unicode="&#x2196;" horiz-adv-x="350" 
d="M320 218l-39 -33l-201 234v-111h-50v190l20 17l187 -30l-9 -51l-110 18z" />
    <glyph glyph-name="uni2198" unicode="&#x2198;" horiz-adv-x="350" 
d="M30 482l39 33l201 -234v111h50v-190l-20 -17l-187 30l9 51l110 -18z" />
    <glyph glyph-name="uni21A4" unicode="&#x21a4;" horiz-adv-x="493" 
d="M30 366l146 121l32 -39l-87 -72h291v63h51v-177h-51v63h-291l88 -72l-33 -38l-146 124v27z" />
    <glyph glyph-name="uni21A5" unicode="&#x21a5;" horiz-adv-x="332" 
d="M30 422l121 146h27l124 -146l-38 -33l-72 88v-291h63v-51h-177v51h63v291l-72 -87z" />
    <glyph glyph-name="uni21A6" unicode="&#x21a6;" horiz-adv-x="493" 
d="M317 487l146 -121v-27l-146 -124l-33 38l88 72h-291v-63h-51v177h51v-63h291l-87 72z" />
    <glyph glyph-name="uni21A7" unicode="&#x21a7;" horiz-adv-x="332" 
d="M151 135l-121 146l39 32l72 -87v291h-63v51h177v-51h-63v-291l72 88l38 -33l-124 -146h-27z" />
    <glyph glyph-name="minus" unicode="&#x2212;" horiz-adv-x="389" 
d="M30 401h329v-54h-329v54z" />
    <glyph glyph-name="triagup" unicode="&#x25b2;" horiz-adv-x="438" 
d="M30 0l191 268l187 -268h-378z" />
    <glyph glyph-name="uni25B6" unicode="&#x25b6;" horiz-adv-x="328" 
d="M30 481l268 -191l-268 -187v378z" />
    <glyph glyph-name="triagdn" unicode="&#x25bc;" horiz-adv-x="438" 
d="M221 272l-191 268h378z" />
    <glyph glyph-name="uni25C0" unicode="&#x25c0;" horiz-adv-x="328" 
d="M30 290l268 191v-378z" />
    <glyph glyph-name="uni2607" unicode="&#x2607;" horiz-adv-x="227" 
d="M197 420l-155 -386l48 294h-60l70 293h91l-56 -201h62z" />
    <glyph glyph-name="sun" unicode="&#x263c;" horiz-adv-x="571" 
d="M199 454l-27 -27l-57 57l27 27zM399 360h-38q-6 25 -27.5 41.5t-48.5 16.5t-47.5 -16.5t-27.5 -41.5h-38q7 41 39 68.5t74 27.5q44 0 75.5 -27.5t38.5 -68.5zM360 322h39q-6 -37 -32 -63q-31 -33 -82 -33q-43 0 -74.5 27.5t-38.5 68.5h38q6 -26 27 -42t48 -16q33 0 55 22
q14 14 20 36zM305 483h-38v128h38v-128zM305 71h-38v128h38v-128zM399 427l-27 27l58 57l27 -27zM428 322v38h113v-38h-113zM30 322v38h114v-38h-114zM372 228l27 27l58 -58l-27 -27zM172 255l27 -27l-57 -58l-27 27z" />
    <glyph glyph-name="heart" unicode="&#x2665;" horiz-adv-x="382" 
d="M191 147q-33 56 -80 117t-64 97t-17 90q0 39 24 64t58 25q28 0 50 -16t29 -42q7 26 29 42t50 16q34 0 58 -25t24 -64q0 -42 -13 -76.5t-31 -58.5t-53 -72t-64 -97z" />
    <glyph glyph-name="uni2693" unicode="&#x2693;" horiz-adv-x="318" 
d="M184 556h38q0 -45 -43 -60v-93h83v-40h-83v-239q46 30 72 95l37 -15q-21 -51 -51 -84t-78 -49q-86 30 -129 133l38 15q23 -62 71 -95v239h-82v40h82v93q-19 6 -30.5 23t-11.5 37h37q0 -11 7.5 -18.5t17.5 -7.5q11 0 18 7.5t7 18.5z" />
    <glyph glyph-name="uni2764" unicode="&#x2764;" horiz-adv-x="468" 
d="M234 153q-31 47 -72.5 91t-67.5 68t-45 60t-19 79q0 46 29.5 78.5t74.5 32.5q32 0 62 -18.5t38 -46.5q8 28 38 46.5t62 18.5q45 0 74.5 -32.5t29.5 -78.5q0 -43 -19 -79t-45 -60t-67.5 -68t-72.5 -91z" />
    <glyph glyph-name="commaaccent" unicode="&#xf6c3;" horiz-adv-x="120" 
d="M30 -32h60v-61l-37 -62h-23l22 62h-22v61z" />
    <glyph glyph-name="CR" horiz-adv-x="180" 
 />
    <glyph glyph-name="G.alt" horiz-adv-x="311" 
d="M134 66h137v-66h-137q-39 0 -66.5 27.5t-27.5 66.5v253h66v-253q0 -12 8.5 -20t19.5 -8zM205 117v169h-43v61h109v-230h-66zM106 398h-66v208q0 38 28 66t66 28h43q39 0 66.5 -27.5t27.5 -66.5v-78h-66v78q0 11 -8 19.5t-20 8.5h-43q-11 0 -19.5 -8.5t-8.5 -19.5v-208z
" />
    <glyph glyph-name="N.alt" horiz-adv-x="362" 
d="M40 573h26l40 -90v-483h-66v573zM272 341h50v-341h-66v219l-182 415h-34v66h80zM296 402l-40 95v203h66v-298h-26z" />
    <glyph glyph-name="O.alt.001" horiz-adv-x="328" 
d="M190 201h4q12 0 20 8.5t8 19.5v377q0 11 -8 19.5t-20 8.5h-4v66h4q39 0 66.5 -28t27.5 -66v-377q0 -39 -27.5 -66.5t-66.5 -27.5h-4v66zM139 201v-66h-5q-38 0 -66 28t-28 66v377q0 38 28 66t66 28h5v-66h-5q-11 0 -19.5 -8.5t-8.5 -19.5v-377q0 -11 8.5 -19.5t19.5 -8.5
h5zM49 66h231v-66h-231v66z" />
    <glyph glyph-name="Q.alt" horiz-adv-x="333" 
d="M227 347h66v-254q0 -38 -27 -65.5t-66 -27.5v-155h-66v155q-39 0 -66.5 27.5t-27.5 65.5v254h66v-253q0 -11 8.5 -19.5t19.5 -8.5h65q12 0 20 8.5t8 19.5v253zM227 398v208q0 11 -8 19.5t-20 8.5h-65q-11 0 -19.5 -8.5t-8.5 -19.5v-208h-66v208q0 38 27.5 66t66.5 28h65
q39 0 66.5 -28t27.5 -66v-208h-66z" />
    <glyph glyph-name="W.alt" horiz-adv-x="536" 
d="M441 66l-8 -66h-119l-44 334h-4l-42 -334h-121l-8 66h74l68 425l-32 209h67l96 -634h73zM447 117h-35l-17 110l54 473h67zM126 117h-37l-69 583h66l57 -473z" />
    <glyph glyph-name="Z.alt" horiz-adv-x="288" 
d="M50 117l57 230h-59v61h75l44 175h71l-44 -175h59v-61h-75l-57 -230h-71zM37 66h210v-66h-227zM251 634h-209v66h226z" />
    <glyph glyph-name="g.alt" horiz-adv-x="316" 
d="M103 446v-132h-63v132q0 39 27.5 66.5t66.5 27.5h49q38 0 65.5 -27.5t27.5 -66.5v-52h-62v52q0 13 -9 22t-22 9h-49q-13 0 -22 -9t-9 -22zM276 258v-145h-62v83h-49v62h111zM134 62h142v-62h-142q-39 0 -66.5 27.5t-27.5 65.5v170h63v-170q0 -13 9 -22t22 -9z" />
    <glyph glyph-name="n.alt" horiz-adv-x="368" 
d="M328 311h-26l-37 75v154h63v-229zM125 540l140 -280h63v-260h-63v122l-177 355h-48v63h85zM40 426h25l38 -76v-350h-63v426z" />
    <glyph glyph-name="o.alt" horiz-adv-x="340" 
d="M46 0v62h248v-62h-248zM206 477h-10v63h10q38 0 66 -27.5t28 -66.5v-236q0 -38 -27.5 -65.5t-66.5 -27.5h-10v62h10q13 0 22 9t9 22v236q0 13 -9 22t-22 9zM145 540v-63h-11q-13 0 -22 -9t-9 -22v-236q0 -13 9 -22t22 -9h11v-62h-11q-39 0 -66.5 27.5t-27.5 65.5v236
q0 38 27.5 66t66.5 28h11z" />
    <glyph glyph-name="q.alt" horiz-adv-x="339" 
d="M237 92v171h62v-171q0 -38 -27.5 -65.5t-65.5 -27.5h-5v-99h-62v99h-6q-38 0 -65.5 27.5t-27.5 65.5v171h62v-171q0 -13 9 -22t22 -9h73q13 0 22 9t9 22zM299 314h-62v132q0 13 -9 22t-22 9h-73q-13 0 -22 -9t-9 -22v-132h-62v132q0 38 27.5 65.5t65.5 27.5h73
q38 0 65.5 -27.5t27.5 -65.5v-132z" />
    <glyph glyph-name="w.alt" horiz-adv-x="547" 
d="M83 540l83 -427h-64l-82 427h63zM527 540l-83 -427h-63l82 427h64zM365 62h69l-12 -62h-107l-43 196l-40 -196h-108l-12 62h69l58 276l-46 202h64z" />
    <glyph glyph-name="z.alt" horiz-adv-x="275" 
d="M119 320l33 106h68l-33 -106h52v-62h-71l-45 -145h-68l45 145h-54v62h73zM236 477h-204v63h223zM39 62h204v-62h-223z" />
    <glyph glyph-name="zero.alt" horiz-adv-x="302" 
d="M262 447v-87l-160 -164v-103q0 -13 9 -22t22 -9h36q13 0 22 9t9 22v132l62 63v-195q0 -38 -27.5 -65.5t-65.5 -27.5h-36q-38 0 -65.5 27.5t-27.5 65.5v115l160 163v75q0 13 -9 22t-22 9h-36q-13 0 -22 -9t-9 -22v-102l-62 -64v167q0 38 27.5 65.5t65.5 27.5h36
q38 0 65.5 -27t27.5 -66z" />
    <glyph glyph-name="one.alt" horiz-adv-x="296" 
d="M181 540v-226h-63v163h-78v63h141zM118 263h63v-201h75v-62h-212v62h74v201z" />
    <glyph glyph-name="two.alt" horiz-adv-x="306" 
d="M252 314h-75q25 40 25 81v51q0 13 -9 22t-22 9h-37q-13 0 -22 -9t-9 -22v-52h-63v53q0 39 27.5 66t66.5 27h41q38 0 64 -27t26 -66v-52q0 -44 -13 -81zM137 263h89q-14 -21 -48 -57.5t-51.5 -68.5t-17.5 -75h157v-62h-226v62q0 46 17 86.5t32.5 60t47.5 54.5z" />
    <glyph glyph-name="three.alt" horiz-adv-x="302" 
d="M255 540v-63h-215v63h215zM262 261v-32h-63v20q0 14 -10 26t-22 12q-18 0 -28.5 -4.5t-27.5 -21.5l-57 40l88 125h77l-62 -89q11 9 29 9q37 0 56.5 -23t19.5 -62zM199 178h63v-87q0 -37 -27 -64t-64 -27h-40q-37 0 -64 27t-27 64v87h63v-86q0 -13 9 -21.5t21 -8.5h36
q13 0 21.5 8.5t8.5 21.5v86zM-116 178v51h415v-51h-415z" />
    <glyph glyph-name="four.alt" 
d="M105 178h200v-63h-58v-115h-63v115h-149v63l121 362h91v-311h-63v51l13 177z" />
    <glyph glyph-name="five.alt" horiz-adv-x="299" 
d="M249 477h-209v63h209v-63zM259 295v-66h-63v54q0 15 -11.5 25.5t-26.5 10.5q-26 0 -40.5 -17.5t-14.5 -48.5h-63v173h62v-65q25 22 66 22q37 0 64 -25.5t27 -62.5zM196 178h63v-87q0 -37 -26.5 -64t-64.5 -27h-36q-38 0 -65 26.5t-27 64.5v87h63v-86q0 -12 9 -21t22 -9
h32q12 0 21 8.5t9 21.5v86z" />
    <glyph glyph-name="six.alt" horiz-adv-x="304" 
d="M264 229h-63v31q0 14 -11.5 24t-24.5 10q-57 0 -64 -65h-61v220q0 37 27 64t64 27h42q37 0 64 -27t27 -64v-55h-63v53q0 12 -9 21t-22 9h-37q-12 0 -21 -9t-9 -21v-116q28 25 65 25q41 0 68.5 -26.5t27.5 -64.5v-36zM201 92v86h63v-87q0 -37 -27 -64t-64 -27h-42
q-37 0 -64 27t-27 64v87h60v-86q0 -12 9 -21t21 -9h38q13 0 23 9t10 21z" />
    <glyph glyph-name="seven.alt" horiz-adv-x="300" 
d="M181 426h65q-49 -96 -63.5 -181t-17.5 -245h-62q2 140 18 236.5t60 189.5zM270 477h-240v63h240v-63z" />
    <glyph glyph-name="eight.alt" horiz-adv-x="294" 
d="M108 447h-63q0 38 25.5 65.5t63.5 27.5h27q37 0 62.5 -27.5t25.5 -65.5h-63q0 12 -8.5 21t-21.5 9h-17q-13 0 -22 -9t-9 -21zM191 178h63v-87q0 -38 -25.5 -64.5t-62.5 -26.5h-37q-38 0 -63.5 26.5t-25.5 64.5v87h63v-86q0 -13 9 -21.5t22 -8.5h27q13 0 21.5 9t8.5 21v86
zM45 396h63v-34q0 -13 9 -21.5t21 -8.5h18q13 0 21.5 8.5t8.5 21.5v34h63v-33q0 -25 -13 -41.5t-30 -21.5q48 -22 48 -71h-63v5q0 13 -8.5 22t-21.5 9h-27q-13 0 -22 -9t-9 -22v-5h-63q0 52 49 71q-18 7 -31 23.5t-13 39.5v33z" />
    <glyph glyph-name="nine.alt" horiz-adv-x="307" 
d="M40 396h65v-70q0 -12 9 -21t22 -9q35 0 50 28.5t15 67.5v4h66v-305q0 -37 -27 -64t-65 -27h-44q-38 0 -64.5 26.5t-26.5 64.5v87h65v-86q0 -12 9 -21t22 -9h34q13 0 22 9t9 21v165q-29 -27 -65 -27q-38 0 -67 27.5t-29 63.5v75zM105 447h-65q0 38 27 65.5t64 27.5h44
q37 0 64.5 -27.5t27.5 -65.5h-66q0 12 -9 19.5t-22 7.5h-34q-13 0 -22 -7.5t-9 -19.5z" />
    <glyph glyph-name="ampersand.alt" horiz-adv-x="336" 
d="M30 371v25h63v-19q0 -57 53 -57h160v-62h-166q-47 0 -47 -49v-116q0 -13 9 -22t21 -9h59v145h63v-207h-124q-38 0 -64.5 27.5t-26.5 64.5v123q0 55 44 79q-44 30 -44 77zM93 447h-63q0 38 27.5 65.5t63.5 27.5h99v-63h-97q-13 0 -21.5 -9t-8.5 -21z" />
    <glyph glyph-name="onequarter.alt" horiz-adv-x="376" 
d="M227 0h-39v60h-73v32l64 204h48v-200h33v-36h-33v-60zM196 238l-40 -142h32v67zM138 443h30v218h-32v39h71v-257h30v-39h-99v39zM30 333v35h316v-35h-316z" />
    <glyph glyph-name="onehalf.alt" horiz-adv-x="376" 
d="M163 211h-39v43q0 18 13 30t31 12h23q19 0 31.5 -12t12.5 -30v-37q0 -25 -7 -39q-7 -15 -25 -40t-29 -46.5t-11 -44.5v-8h72v-39h-111v47q0 26 11 50t30.5 53t26.5 43q4 9 4 25v35q0 6 -5 6h-23q-5 0 -5 -6v-42zM138 443h30v218h-32v39h71v-257h30v-39h-99v39zM30 333v35
h316v-35h-316z" />
    <glyph glyph-name="threequarters.alt" horiz-adv-x="376" 
d="M134 661v39h108v-36l-46 -75q4 3 13 3q15 0 24 -9.5t9 -23.5v-111q0 -19 -13 -31.5t-31 -12.5h-19q-19 0 -32 12.5t-13 31.5v46h39v-46q0 -5 6 -5h19q5 0 5 5v99q0 11 -12 11q-11 0 -20 -17l-34 16l61 104h-64zM227 0h-39v60h-73v32l64 204h48v-200h33v-36h-33v-60z
M196 238l-40 -142h32v67zM30 333v35h316v-35h-316z" />
    <glyph glyph-name="ircle" horiz-adv-x="801" 
d="M426 -9v68q113 10 190.5 93t77.5 198q0 114 -77.5 198t-190.5 94v68q141 -10 238.5 -113.5t97.5 -246.5t-97 -246t-239 -113zM375 59v-68q-141 11 -237.5 113.5t-96.5 245.5t96.5 246t237.5 114v-68q-113 -10 -189.5 -93.5t-76.5 -198.5q0 -114 76.5 -197.5t189.5 -93.5z
" />
    <glyph glyph-name="the.ord" horiz-adv-x="579" 
d="M132 448h54v39h-146v-39h53v-279h39v279zM379 487h-38v-128h-86v128h-39v-318h39v151h86v-151h38v318zM457 448v-89h73v-39h-73v-113h82v-38h-122v318h122v-39h-82zM30 540v40h519v-40h-519zM30 80v40h519v-40h-519z" />
    <glyph glyph-name="for.ord" horiz-adv-x="579" 
d="M30 540v40h519v-40h-519zM30 80v40h519v-40h-519zM79 359v89h83v39h-122v-318h39v151h73v39h-73zM471 359h-47v89h57q8 0 14 -6t6 -14v-39q0 -12 -9 -21t-21 -9zM424 320h49q12 0 20 -8t8 -20v-123h38v126q0 33 -30 45q30 17 30 47v41q0 25 -17 42t-41 17h-97v-318h40
v151zM313 428v-201q0 -7 -5.5 -13t-13.5 -6h-45q-8 0 -14 5.5t-6 13.5v201q0 8 6 14t14 6h45q8 0 13.5 -6t5.5 -14zM352 428q0 25 -17 42t-41 17h-45q-25 0 -42 -17.5t-17 -41.5v-201q0 -24 17 -41t42 -17h45q24 0 41 17t17 41v201z" />
    <glyph glyph-name="and.ord" horiz-adv-x="718" 
d="M30 540v40h658v-40h-658zM30 80v40h658v-40h-658zM480 487h-39v-239l-83 239h-58v-318h40v246l85 -246h55v318zM157 448l-36 -139h77l-37 139h-4zM235 169l-28 102h-96l-28 -102h-41l86 318h62l86 -318h-41zM561 448h62q9 0 14.5 -6t5.5 -14v-200q0 -8 -5.5 -14t-14.5 -6
h-62v240zM522 487v-318h101q25 0 42 17.5t17 41.5v200q0 24 -17 41.5t-42 17.5h-101z" />
    <glyph glyph-name="of.ord" horiz-adv-x="404" 
d="M30 540v40h344v-40h-344zM30 80v40h344v-40h-344zM281 359v89h83v39h-122v-318h39v151h73v39h-73zM164 428v-201q0 -7 -6 -13t-13 -6h-45q-8 0 -14 5.5t-6 13.5v201q0 8 6 14t14 6h45q8 0 13.5 -6t5.5 -14zM203 428q0 25 -17 42t-41 17h-45q-25 0 -42 -17.5t-17 -41.5
v-201q0 -24 17 -41t42 -17h45q24 0 41 17t17 41v201z" />
    <glyph glyph-name="by.ord" horiz-adv-x="433" 
d="M30 540v40h364v-40h-364zM30 80v40h364v-40h-364zM264 487h-42l64 -167h7v-151h39v151h7l64 167h-43l-45 -128h-4zM133 359h-53v89h64q8 0 13.5 -6t5.5 -14v-39q0 -12 -8.5 -21t-21.5 -9zM80 320h53q13 0 21.5 -8.5t8.5 -20.5v-63q0 -8 -5.5 -14t-13.5 -6h-64v112z
M169 340q33 13 33 45v43q0 24 -17 41.5t-41 17.5h-103v-318h103q24 0 41 17.5t17 41.5v66q0 15 -9 28.5t-24 17.5z" />
    <glyph glyph-name="st.ord" horiz-adv-x="391" 
d="M39 484h39v-43q0 -8 6 -14t14 -6h31q9 0 15 6t6 14v15q0 17 -13 30l-71 71q-27 24 -27 61v23q0 24 17.5 41.5t41.5 17.5h31q25 0 42.5 -17.5t17.5 -41.5v-22h-39v22q0 8 -6 14t-15 6h-31q-8 0 -14 -6t-6 -14v-21q0 -19 15 -34l74 -72q22 -22 22 -54v-19
q0 -24 -17.5 -41.5t-42.5 -17.5h-31q-24 0 -41.5 17.5t-17.5 41.5v43zM297 661h53v39h-145v-39h53v-279h39v279zM30 293v40h331v-40h-331z" />
    <glyph glyph-name="nd.ord" horiz-adv-x="458" 
d="M30 293v40h398v-40h-398zM181 700h39v-318h-55l-85 246v-246h-40v318h58l83 -239v239zM363 661h-62v-240h62q9 0 14.5 6t5.5 14v200q0 8 -5.5 14t-14.5 6zM262 382v318h101q25 0 42 -17.5t17 -41.5v-200q0 -24 -17 -41.5t-42 -17.5h-101z" />
    <glyph glyph-name="rd.ord" horiz-adv-x="430" 
d="M80 572h47q12 0 21 9t9 21v39q0 8 -6 14t-14 6h-57v-89zM129 533h-49v-151h-40v318h97q24 0 41 -17t17 -42v-41q0 -30 -30 -47q30 -12 30 -45v-126h-38v123q0 12 -8 20t-20 8zM331 661h-62v-240h62q9 0 14.5 6t5.5 14v200q0 8 -5.5 14t-14.5 6zM230 382v318h101
q25 0 42 -17.5t17 -41.5v-200q0 -24 -17 -41.5t-42 -17.5h-101zM30 293v40h370v-40h-370z" />
    <glyph glyph-name="er.ord" horiz-adv-x="398" 
d="M80 661v-89h73v-39h-73v-113h82v-38h-122v318h122v-39h-82zM290 572h-47v89h57q8 0 14 -6t6 -14v-39q0 -12 -9 -21t-21 -9zM243 533h49q12 0 20 -8t8 -20v-123h38v126q0 33 -30 45q30 17 30 47v41q0 25 -17 42t-41 17h-97v-318h40v151zM30 293v40h338v-40h-338z" />
    <glyph glyph-name="ere.ord" horiz-adv-x="556" 
d="M80 661v-89h73v-39h-73v-113h82v-38h-122v318h122v-39h-82zM290 572h-47v89h57q8 0 14 -6t6 -14v-39q0 -12 -9 -21t-21 -9zM243 533h49q12 0 20 -8t8 -20v-123h38v126q0 33 -30 45q30 17 30 47v41q0 25 -17 42t-41 17h-97v-318h40v151zM30 293v40h496v-40h-496zM434 661
v-89h73v-39h-73v-113h82v-38h-122v318h122v-39h-82z" />
    <glyph glyph-name="em.ord" horiz-adv-x="485" 
d="M80 661v-89h73v-39h-73v-113h82v-38h-122v318h122v-39h-82zM30 293v40h425v-40h-425zM406 382h39v318h-59l-62 -259l-61 259h-59v-318h40v136l-9 133l66 -269h48l65 269l-8 -130v-139z" />
    <glyph glyph-name="eme.ord" horiz-adv-x="644" 
d="M80 661v-89h73v-39h-73v-113h82v-38h-122v318h122v-39h-82zM406 382h39v318h-59l-62 -259l-61 259h-59v-318h40v136l-9 133l66 -269h48l65 269l-8 -130v-139zM30 293v40h584v-40h-584zM522 661v-89h73v-39h-73v-113h82v-38h-122v318h122v-39h-82z" />
    <glyph glyph-name="th.ord" horiz-adv-x="419" 
d="M186 661h-54v-279h-39v279h-53v39h146v-39zM341 700h38v-318h-38v151h-86v-151h-39v318h39v-128h86v128zM30 293v40h359v-40h-359z" />
    <glyph glyph-name="ya.ord" horiz-adv-x="238" 
d="M108 573h51v88h-61q-8 0 -13.5 -6t-5.5 -14v-40q0 -11 8.5 -19.5t20.5 -8.5zM37 382l52 154q-22 6 -35.5 24t-13.5 42v40q0 23 17 40.5t41 17.5h100v-318h-39v151h-30l-50 -151h-42zM30 293v40h178v-40h-178z" />
    <glyph glyph-name="a_ya.ord." horiz-adv-x="496" 
d="M154 661l-36 -139h77l-37 139h-4zM232 382l-28 102h-96l-28 -102h-41l86 318h62l86 -318h-41zM417 573h-51q-12 0 -20.5 8.5t-8.5 19.5v40q0 8 5.5 14t13.5 6h61v-88zM347 536l-52 -154h42l50 151h30v-151h39v318h-100q-24 0 -41 -17.5t-17 -40.5v-40q0 -24 13.5 -42
t35.5 -24zM30 293v40h436v-40h-436z" />
    <glyph glyph-name="e.ord" horiz-adv-x="202" 
d="M79 661v-89h73v-39h-73v-112h83v-39h-122v318h122v-39h-83zM30 293v40h142v-40h-142z" />
    <glyph glyph-name="o_e.ord" horiz-adv-x="407" 
d="M163 441v200q0 8 -5.5 14t-13.5 6h-45q-8 0 -14 -6t-6 -14v-200q0 -8 6 -14t14 -6h45q8 0 13.5 6t5.5 14zM202 641v-200q0 -24 -17 -41.5t-41 -17.5h-45q-24 0 -41.5 17.5t-17.5 41.5v200q0 24 17.5 41.5t41.5 17.5h45q24 0 41 -17.5t17 -41.5zM284 661v-89h73v-39h-73
v-112h83v-39h-122v318h122v-39h-83zM30 293v40h347v-40h-347z" />
    <glyph glyph-name="o_i.ord" horiz-adv-x="461" 
d="M163 441v200q0 8 -5.5 14t-13.5 6h-45q-8 0 -14 -6t-6 -14v-200q0 -8 6 -14t14 -6h45q8 0 13.5 6t5.5 14zM202 641v-200q0 -24 -17 -41.5t-41 -17.5h-45q-24 0 -41.5 17.5t-17.5 41.5v200q0 24 17.5 41.5t41.5 17.5h45q24 0 41 -17.5t17 -41.5zM271 780h31v-7
q0 -13 12 -13h39q5 0 8.5 4t3.5 9v7h31v-5q0 -19 -12 -31.5t-31 -12.5h-40q-19 0 -30.5 12.5t-11.5 31.5v5zM421 382h-38v166l9 113l-92 -279h-55v318h39v-179l-10 -100l92 279h55v-318zM30 293v40h401v-40h-401z" />
    <glyph glyph-name="i.ord" horiz-adv-x="256" 
d="M66 780h31v-7q0 -13 12 -13h39q5 0 8.5 4t3.5 9v7h31v-5q0 -19 -12 -31.5t-31 -12.5h-40q-19 0 -30.5 12.5t-11.5 31.5v5zM216 382h-38v166l9 113l-92 -279h-55v318h39v-179l-10 -100l92 279h55v-318zM30 293v40h196v-40h-196z" />
    <glyph glyph-name="i_i.ord.001" horiz-adv-x="543" 
d="M138 382h-98v318h39v-98h59q26 0 44.5 -19t18.5 -44v-95q0 -25 -18.5 -43.5t-44.5 -18.5zM277 382h-39v318h39v-318zM161 437v109q0 16 -16 16h-66v-141h66q16 0 16 16zM353 780h31v-7q0 -13 12 -13h39q5 0 8.5 4t3.5 9v7h31v-5q0 -19 -12 -31.5t-31 -12.5h-40
q-19 0 -30.5 12.5t-11.5 31.5v5zM503 382h-38v166l9 113l-92 -279h-55v318h39v-179l-10 -100l92 279h55v-318zM30 293v40h483v-40h-483z" />
    <glyph glyph-name="e_e.ord" horiz-adv-x="372" 
d="M249 661v-89h73v-39h-73v-112h83v-39h-122v318h122v-39h-83zM79 661v-89h73v-39h-73v-112h83v-39h-122v318h122v-39h-83zM30 293v40h312v-40h-312z" />
    <glyph glyph-name="ya_ya.ord" horiz-adv-x="442" 
d="M312 573h51v88h-61q-8 0 -13.5 -6t-5.5 -14v-40q0 -11 8.5 -19.5t20.5 -8.5zM241 382l52 154q-22 6 -35.5 24t-13.5 42v40q0 23 17 40.5t41 17.5h100v-318h-39v151h-30l-50 -151h-42zM108 573h51v88h-61q-8 0 -13.5 -6t-5.5 -14v-40q0 -11 8.5 -19.5t20.5 -8.5zM37 382
l52 154q-22 6 -35.5 24t-13.5 42v40q0 23 17 40.5t41 17.5h100v-318h-39v151h-30l-50 -151h-42zM30 293v40h382v-40h-382z" />
    <glyph glyph-name="i_i.ord" horiz-adv-x="473" 
d="M216 382h-38v166l9 113l-92 -279h-55v318h39v-179l-10 -100l92 279h55v-318zM283 780h31v-7q0 -13 12 -13h39q5 0 8.5 4t3.5 9v7h31v-5q0 -19 -12 -31.5t-31 -12.5h-40q-19 0 -30.5 12.5t-11.5 31.5v5zM433 382h-38v166l9 113l-92 -279h-55v318h39v-179l-10 -100l92 279
h55v-318zM30 293v40h413v-40h-413z" />
    <glyph glyph-name="H.long" horiz-adv-x="680" 
d="M640 296v-296h-66v296h66zM40 408h534v292h66v-353h-534v-347h-66v408zM106 459h-66v241h66v-241z" />
    <glyph glyph-name="Ruble" horiz-adv-x="355" 
d="M151 583v-346h110v-60h-110v-177h-66v177h-55v60h55v58h-55v62h55v226h66zM202 295v62h25q14 0 23 11t9 25v213q0 11 -8.5 19.5t-19.5 8.5h-146v66h146q38 0 66 -27.5t28 -66.5v-218q0 -39 -24.5 -66t-63.5 -27h-35z" />
    <glyph glyph-name="E.long" horiz-adv-x="605" 
d="M40 634v66h535v-66h-535zM559 347h-519v236h66v-175h453v-61zM106 296v-230h468v-66h-534v296h66z" />
    <glyph glyph-name="T_T" horiz-adv-x="546" 
d="M172 583v-583h-66v583h66zM521 634h-496v66h496v-66zM440 583v-583h-66v583h66z" />
    <glyph glyph-name="T_V" horiz-adv-x="613" 
d="M416 258l-21 -141h-22l-79 517h-269v66h327zM438 66h-57l10 -66h99l109 700h-68zM172 583v-583h-66v583h66z" />
    <glyph glyph-name="T_W" horiz-adv-x="804" 
d="M634 66h58l-10 -66h-96l-48 411h-4l-49 -411h-96l-10 66h58l38 331l28 165l-19 138h105l-20 -138l28 -165zM410 282l-19 -165h-19l-75 517h-272v66h329zM106 583h66v-583h-66v583zM680 117l-18 167l55 416h67l-85 -583h-19z" />
    <glyph glyph-name="T_W.alt" horiz-adv-x="804" 
d="M709 66l-8 -66h-119l-44 334h-4l-42 -334h-121l-8 66h74l68 425l-32 209h67l96 -634h73zM394 117h-37l-61 517h-271v66h329l57 -473zM106 583h66v-583h-66v583zM715 117h-35l-17 110l54 473h67z" />
    <glyph glyph-name="T_Y" horiz-adv-x="581" 
d="M390 306l113 394h68l-115 -380v-254h57v-66h-180v66h57v240zM106 583h66v-583h-66v583zM398 513l-32 -111l-69 232h-272v66h321z" />
    <glyph glyph-name="E_A" horiz-adv-x="600" 
d="M231 634h-191v66h191v-66zM560 150l20 -150h-66l-22 150h68zM553 201h-187l-28 -201h-298v66h240l28 206h168l-48 363h-5l-41 -312h-67l51 377h119zM107 117h-67v466h67v-175h109v-61h-109v-230z" />
    <glyph glyph-name="E_T" horiz-adv-x="529" 
d="M357 583h66v-583h-66v583zM106 117h-66v466h66v-175h109v-61h-109v-230zM40 634v66h464v-66h-464zM40 66h190v-66h-190v66z" />
    <glyph glyph-name="afii10036_afii10037" horiz-adv-x="565" 
d="M354 267h79l50 433h67l-81 -700h-67l24 201h-61zM346 318l-52 316h-269v66h325l62 -382h-66zM106 583h66v-583h-66v583z" />
    <glyph glyph-name="afii10042.long" horiz-adv-x="863" 
d="M106 66h651v634h66v-700h-783v700h66v-634zM466 117h-66v583h66v-583z" />
    <glyph glyph-name="afii10043.long" horiz-adv-x="889" 
d="M106 66h652v634h66v-634h55v-221h-66v155h-773v700h66v-634zM400 117v583h66v-583h-66z" />
    <glyph glyph-name="z_a" horiz-adv-x="603" 
d="M123 113h-68l97 313h68zM236 477h-204v63h223zM559 128l24 -128h-64l-23 128h63zM550 179h-178l-34 -179h-318l19 62h247l34 179h155l-44 237h-4l-34 -186h-63l46 248h106z" />
    <glyph glyph-name="f_y" horiz-adv-x="556" 
d="M103 207v-207h-63v207h63zM219 258h-179v168h63v-106h116v-62zM428 207v-145h61v-62h-184v62h60v145h63zM439 258h-85l-85 219h-229v63h272l81 -220h7l79 220h67z" />
    <glyph glyph-name="dollar.alt" horiz-adv-x="262" 
d="M103 -60v70q-36 4 -60.5 30.5t-24.5 62.5v75h63v-75q0 -13 9 -22t22 -9h31q13 0 22.5 9t9.5 22v22q0 25 -16 46l-106 140q-21 29 -28 45t-7 46v24q0 36 24.5 63t60.5 30v69h51v-69q35 -4 59 -30.5t24 -62.5v-32h-62v32q0 13 -9.5 22t-22.5 9h-31q-13 0 -22 -9t-9 -22v-19
q0 -27 17 -49l109 -142q18 -24 24 -41t6 -45v-27q0 -36 -24 -62t-59 -31v-70h-51z" />
    <glyph glyph-name="afii10020_afii10037" horiz-adv-x="528" 
d="M317 267h79l50 433h67l-81 -700h-67l24 201h-61zM309 318l-52 316h-217v66h273l62 -382h-66zM106 583v-583h-66v583h66z" />
    <glyph glyph-name="afii10068_afii10085" horiz-adv-x="538" 
d="M330 241h70l60 299h63l-110 -540h-63l37 178h-40zM315 540l65 -248h-63l-50 186h-227v62h275zM40 426h62v-426h-62v426z" />
    </font>
</defs>
</svg>
